<svg class="main-svg" xmlns="http://www.w3.org/2000/svg" xmlns:xlink="http://www.w3.org/1999/xlink" width="2200" height="1000" style="" viewBox="0 0 1100 500"><rect x="0" y="0" width="1100" height="500" style="fill: rgb(255, 255, 255); fill-opacity: 1;"/><defs id="defs-e6d249"><g class="clips"><clipPath id="clipe6d249xyplot" class="plotclip"><rect width="1023" height="385"/></clipPath><clipPath class="axesclip" id="clipe6d249x"><rect x="62" y="0" width="1023" height="500"/></clipPath><clipPath class="axesclip" id="clipe6d249y"><rect x="0" y="50" width="1100" height="385"/></clipPath><clipPath class="axesclip" id="clipe6d249xy"><rect x="62" y="50" width="1023" height="385"/></clipPath></g><g class="gradients"/><g class="patterns"/></defs><g class="bglayer"/><g class="layer-below"><g class="imagelayer"/><g class="shapelayer"/></g><g class="cartesianlayer"><g class="subplot xy"><g class="layer-subplot"><g class="shapelayer"/><g class="imagelayer"/></g><g class="minor-gridlayer"><g class="x"/><g class="y"/></g><g class="gridlayer"><g class="x"><path class="xgrid crisp" transform="translate(190.22,0)" d="M0,50v385" style="stroke: rgb(0, 0, 0); stroke-opacity: 0.05; stroke-width: 1px;"/><path class="xgrid crisp" transform="translate(319.51,0)" d="M0,50v385" style="stroke: rgb(0, 0, 0); stroke-opacity: 0.05; stroke-width: 1px;"/><path class="xgrid crisp" transform="translate(448.8,0)" d="M0,50v385" style="stroke: rgb(0, 0, 0); stroke-opacity: 0.05; stroke-width: 1px;"/><path class="xgrid crisp" transform="translate(578.09,0)" d="M0,50v385" style="stroke: rgb(0, 0, 0); stroke-opacity: 0.05; stroke-width: 1px;"/><path class="xgrid crisp" transform="translate(707.39,0)" d="M0,50v385" style="stroke: rgb(0, 0, 0); stroke-opacity: 0.05; stroke-width: 1px;"/><path class="xgrid crisp" transform="translate(836.68,0)" d="M0,50v385" style="stroke: rgb(0, 0, 0); stroke-opacity: 0.05; stroke-width: 1px;"/><path class="xgrid crisp" transform="translate(965.97,0)" d="M0,50v385" style="stroke: rgb(0, 0, 0); stroke-opacity: 0.05; stroke-width: 1px;"/></g><g class="y"><path class="ygrid crisp" transform="translate(0,361.1)" d="M62,0h1023" style="stroke: rgb(0, 0, 0); stroke-opacity: 0.05; stroke-width: 1px;"/><path class="ygrid crisp" transform="translate(0,287.2)" d="M62,0h1023" style="stroke: rgb(0, 0, 0); stroke-opacity: 0.05; stroke-width: 1px;"/><path class="ygrid crisp" transform="translate(0,213.3)" d="M62,0h1023" style="stroke: rgb(0, 0, 0); stroke-opacity: 0.05; stroke-width: 1px;"/><path class="ygrid crisp" transform="translate(0,139.4)" d="M62,0h1023" style="stroke: rgb(0, 0, 0); stroke-opacity: 0.05; stroke-width: 1px;"/><path class="ygrid crisp" transform="translate(0,65.5)" d="M62,0h1023" style="stroke: rgb(0, 0, 0); stroke-opacity: 0.05; stroke-width: 1px;"/></g></g><g class="zerolinelayer"><path class="yzl zl crisp" transform="translate(0,435)" d="M62,0h1023" style="stroke: rgb(0, 0, 0); stroke-opacity: 0.05; stroke-width: 2px;"/></g><g class="layer-between"><g class="shapelayer"/><g class="imagelayer"/></g><path class="xlines-below"/><path class="ylines-below"/><g class="overlines-below"/><g class="xaxislayer-below"/><g class="yaxislayer-below"/><g class="overaxes-below"/><g class="overplot"><g class="xy" transform="translate(62,50)" clip-path="url(#clipe6d249xyplot)"><g class="scatterlayer mlayer"><g class="trace scatter trace35e63e" style="stroke-miterlimit: 2; opacity: 1;"><g class="fills"/><g class="errorbars"/><g class="lines"><path class="js-line" d="M0,385L61.05,384.33L62.31,383.55L64.96,297.33L66.2,381.62L68.79,382.29L71.39,369.65L72.64,379.24L75.24,384.02L76.56,383.55L79.13,378.7L80.43,382.7L82.99,378.69L86.85,383.92L89.44,366.49L90.75,329.67L93.37,368.52L95.95,366.58L97.26,376.87L99.81,374.86L101.13,381.8L106.25,379.48L107.57,375.91L110.13,356.25L111.45,368.88L114.01,380.96L115.36,376.45L117.92,368.42L120.49,380.04L121.84,327.12L124.38,327.54L125.69,296.24L128.22,375.9L130.89,378.06L132.14,375.25L134.71,379.52L135.98,372.99L138.65,355.93L141.2,372.9L145.03,347.52L146.34,362.46L148.91,279.69L150.23,367.69L152.86,351.87L155.4,314.06L156.73,341.31L159.27,278.54L160.59,363.44L163.22,360.23L165.76,334.22L167.07,367.86L169.63,376.85L170.96,376.17L173.54,375.72L174.79,365.43L180,368.27L181.32,353.49L183.89,358.14L185.12,366.52L187.71,373.99L190.31,350.75L191.63,349.6L194.16,312.56L195.47,355.56L198.13,376.11L200.7,344.45L201.96,371.56L204.57,372.51L205.82,377.19L209.76,323.33L212.31,364.28L214.86,340.24L216.17,371.84L218.81,377.89L220.04,375.82L222.61,340.51L225.26,325.98L226.49,360.67L229.12,321.44L230.44,352.51L232.98,322.76L235.62,371.54L236.85,360.97L239.49,363.34L240.72,367.84L243.34,359.32L244.66,361.16L247.23,365.51L249.82,327.79L251.06,354.19L253.63,376.61L257.53,355.29L260.17,184.38L261.47,287.02L264.01,351.48L265.33,362.59L267.9,368.56L270.53,356.55L271.77,364.14L274.34,347.4L275.67,364.43L278.25,373.93L279.49,370.89L282.08,355.45L284.74,298.05L285.95,296.1L288.58,350.74L289.9,358.26L292.45,366.76L295.05,366.93L296.39,362.22L298.96,364.44L300.21,376.46L302.8,361.82L304.12,374.23L306.72,352.62L309.26,364.79L310.6,346.26L313.15,370.02L314.48,323.56L317.01,362.82L319.61,354.57L320.93,353.9L323.5,208.72L324.82,237.65L327.37,301.69L329.98,327.13L331.27,357.34L333.81,366.59L335.13,368.68L337.68,357.03L341.59,367.54L344.21,370.15L345.48,377.68L348.02,199.26L349.39,224.12L351.98,309.6L358.37,370.68L359.7,351.12L362.25,327.14L364.88,350.87L366.2,353.27L368.76,370.46L370.08,371.05L372.59,365.49L373.96,367.57L376.53,347.67L379.06,334.99L380.41,358.27L383.01,363.88L384.26,357.28L386.85,350.72L389.41,230.96L390.73,225.66L393.3,345.08L394.65,350.98L397.22,348.85L398.48,359.83L401.07,334.07L403.61,342.37L404.94,364.29L407.55,359.66L408.84,349.81L411.42,332.54L413.99,364.45L415.31,364.07L417.88,372.71L419.13,366.95L421.73,376.52L424.38,330.13L425.62,273.18L429.5,326.55L432.07,342.84L433.41,353.65L435.99,347.66L438.53,354.78L439.85,351.76L442.42,346.05L443.75,365.34L446.3,366.92L448.9,365.39L450.16,369.46L452.81,342.72L454.06,364.53L456.65,276.22L459.21,279.95L460.52,225.28L464.43,303.72L466.98,340.18L468.32,342.94L470.89,339.9L473.52,364.11L474.76,339.71L477.35,363.35L478.7,354.96L481.21,365.3L483.79,364.23L485.09,366.99L487.75,354.69L489.02,346.78L491.59,373.53L495.44,286.89L498.06,338.82L501.96,371.2L503.2,312.89L505.84,334.87L508.43,282.51L509.7,285.33L512.28,331.68L513.54,336.92L516.18,357.75L518.76,369.64L520.01,343.37L523.89,366.52L526.49,370.45L527.78,373.65L530.33,372.7L532.92,371.88L534.2,368.04L536.94,361.96L538.11,374.25L540.73,369.35L543.25,368.58L544.64,372.56L547.19,375.86L548.42,359.59L551.1,375.74L553.62,374.35L554.93,70.94L557.51,172.78L558.83,284.39L562.71,338.6L565.29,349.9L567.88,356.36L569.14,365.53L571.77,363.34L573.05,348.36L575.6,360.96L578.22,301.08L579.54,336.31L582.05,364.1L583.39,350.52L585.92,372.05L588.55,369.98L589.81,376.79L592.45,373.9L593.71,378.73L596.26,365.25L597.64,375.53L600.22,373.21L602.78,359.75L604.02,352.45L606.61,353.17L607.99,363.96L610.49,374.42L614.41,376.24L616.96,249.54L618.28,264.66L620.91,338.95L623.44,336.03L624.77,361.43L628.64,365.36L631.22,331.48L632.55,355.76L635.05,372.89L637.66,298.87L638.98,309.96L641.52,331.99L642.83,357.93L645.41,366.8L648.01,371.67L649.3,375.79L651.94,375.37L653.21,376.96L655.81,377.61L657.11,375.38L659.68,381.63L662.23,370.45L663.57,373.13L667.37,376.66L670.04,345.49L672.56,377.56L673.92,380.91L676.45,381.81L677.75,381L680.34,379.79L682.91,346.57L684.24,344.22L686.82,366.45L688.05,376.53L690.64,380.03L692.01,367.42L694.56,371.06L697.13,369.92L698.45,376.66L701.03,380.46L702.3,380.86L707.53,382.63L708.75,382.1L712.72,382.99L715.24,382.64L717.82,377.98L719.1,371.44L721.72,371.33L722.99,373.27L726.91,380.09L729.45,381.26L732.07,382L733.36,380.08L735.98,378.07L737.26,380.61L743.67,383.04L746.26,381.31L747.6,383.31L750.21,382.39L751.42,381.92L754.09,382.62L756.66,381.1L757.9,378.09L760.51,382.41L761.77,382.84L764.39,382.47L766.95,379.67L768.23,380.18L770.89,380.31L772.16,371.08L774.69,381.9L777.28,381.86L778.58,382.62L781.23,381.94L782.46,372.44L785.08,381.91L786.31,382.32L788.91,378.12L791.52,381.02L792.81,381.8L795.36,376.43L799.28,375.11L801.88,381.94L803.14,382.64L805.73,382.31L807.09,376.7L809.61,381.32L813.52,382.92L816.12,382.21L817.36,381.88L819.97,378.34L821.25,376.64L823.88,375.54L827.73,377.04L830.33,379.32L831.63,379.62L834.19,381.81L838.06,383.05L840.72,373.04L841.94,366.45L844.55,381.75L847.11,383.49L848.46,383.43L851.02,374.33L852.34,381.24L856.21,383.69L858.8,383.93L865.23,384.13L866.51,382.68L873.02,384.6L875.61,384.06L880.73,383.72L883.31,377.51L885.95,383.21L887.18,383.89L900.13,384.54L901.43,384.29L904.07,383.92L906.65,384.65L914.4,384.63L915.69,383.02L918.2,384.21L920.82,384.2L924.66,384.71L925.99,384.7L932.43,384.71L935.01,384.72L942.77,384.81L945.4,384.62L953.16,384.86L955.69,384.88L973.84,384.87L975.16,384.05L980.26,384.82L981.64,384.85L994.49,384.25L995.86,383.9L1000.97,384.23L1002.3,384.62L1012.61,384.89L1015.24,384.93L1022.99,384.99" style="vector-effect: none; fill: none; stroke: rgb(124, 181, 236); stroke-opacity: 1; stroke-width: 2px; opacity: 1;"/></g><g class="points"/><g class="text"/></g><g class="trace scatter trace1066ed" style="stroke-miterlimit: 2; opacity: 1;"><g class="fills"/><g class="errorbars"/><g class="lines"><path class="js-line" d="M0,385L58.51,384.98L60.99,383.54L62.34,382.97L64.95,374.82L66.24,347L68.79,383.01L70.1,371.4L72.66,382.12L75.23,384.23L76.54,379.88L79.1,380.87L80.39,383.61L83,380.57L85.66,383.85L86.91,383.48L89.5,367.52L90.74,381.35L93.37,363.61L97.24,378.31L99.78,381.48L101.1,382.63L103.68,379.21L105.01,379.78L107.55,375.34L110.12,363.49L111.43,374.88L114,381.96L115.35,380.14L117.9,372.01L120.5,380.08L121.75,351.51L124.42,341.77L125.65,335.4L128.29,378.1L129.52,366.3L132.1,380.18L136.01,378.45L138.6,368.27L139.86,347.11L142.51,370.6L145.04,357.78L146.35,366.06L148.92,290.06L150.24,374.45L152.88,364.75L154.1,337.42L156.73,364.63L159.25,279.24L160.55,364.83L163.16,366.68L164.47,354.03L167.01,352.56L169.65,379.06L170.89,380.44L173.55,378.98L174.78,371.11L178.67,372.18L181.31,354.64L183.86,362.68L185.2,359.62L187.77,378.49L189.03,370.98L191.59,354.74L194.23,345.3L195.46,339.34L198.11,377.29L199.39,378.47L201.99,357.87L204.52,331.77L205.88,349.35L208.39,376.4L209.74,373.61L213.56,349.77L216.15,361.33L218.79,379.19L220.03,379.21L223.95,351.73L226.51,351.88L229.15,294.74L230.37,316.11L233.01,367.15L234.24,356.83L236.85,369.46L238.17,364.99L240.73,374.16L243.3,360.21L244.6,374.92L247.18,372.45L248.52,377.9L251.1,346.87L253.67,378.65L255,379.07L257.54,356.32L258.86,356.31L261.48,228.39L262.7,262.96L265.32,344.63L267.87,368.88L271.81,371.76L273.04,365.38L275.63,350.27L278.28,370.06L279.5,376.95L282.16,371.13L285.97,293.32L288.59,349.22L289.89,360.36L292.44,363.79L293.76,369.2L296.35,370.31L297.68,372.99L300.23,375.38L302.79,368.6L304.14,353.33L306.7,374.73L307.94,366.7L310.61,370.69L313.2,365.12L316.99,353.54L318.31,367.98L320.9,366.33L322.24,364.48L324.8,291.11L327.42,278.29L332.57,360.42L335.09,362.45L337.73,352.64L339.05,356.56L341.61,374.26L342.87,372.2L345.49,379.88L346.78,379.14L349.33,234.88L351.94,322.72L353.25,346.44L355.78,341.64L357.1,341.86L359.74,375.34L362.28,370.81L363.62,346.72L366.16,351.63L367.47,317.12L370.04,368.4L372.61,358.63L373.94,366.85L376.53,370.54L377.81,356.11L380.36,318.79L381.7,360.26L384.23,374.85L386.9,328.12L388.1,326.08L392,272.84L394.58,344.32L397.18,361.65L398.53,363.79L401.04,366.19L402.4,361.26L404.95,365.39L406.28,375.91L408.84,368.02L411.39,345.07L412.71,318.16L415.25,372.58L416.59,360.12L419.21,375.63L421.73,379.73L423.04,378.11L425.67,335.85L426.91,280.43L429.48,343.37L430.79,327.99L433.37,327.69L435.94,326.3L437.26,316.9L439.88,351.33L441.12,359.09L443.71,362.11L446.36,361.14L447.62,364.16L450.24,374.47L451.54,367.69L455.4,373.46L457.91,288.05L460.55,301.41L461.86,314.85L464.43,313.54L465.76,349.27L468.33,352.21L470.89,337.98L474.78,366.53L476.03,333L478.65,364.86L481.2,358.91L482.55,365.96L485.07,374.06L486.36,377.37L488.97,353.42L490.24,339.03L492.91,371.92L495.43,326.03L496.77,267.33L499.3,348.78L500.62,358.24L503.2,361.21L505.77,307.38L507.09,322.92L509.69,255.71L510.95,300.32L513.52,337.76L514.88,340.09L517.42,361.46L520.03,367.04L521.28,327.75L523.94,365.28L525.21,362.91L527.79,372.05L530.35,374.71L531.71,371.69L534.27,363.24L535.49,370.93L538.09,364.89L539.88,368.95L542.04,371.8L544.64,375.66L545.91,376.06L548.47,362.22L549.75,363.18L552.32,377.86L554.99,353.17L556.26,113.14L558.84,218.89L560.06,320.46L562.71,344.39L565.28,347.97L566.53,358.75L569.14,356.95L570.41,361.31L573.07,364.02L574.35,356.74L576.91,343.4L579.46,318.2L580.8,347.14L583.41,367.21L584.67,360.51L587.27,375.72L589.8,369.8L591.18,376.58L595.03,378.4L597.59,378.44L598.87,355.31L601.45,372.72L604.01,349.94L605.32,352.83L607.89,369.94L609.27,371.23L611.77,376.05L614.42,376.51L615.68,371.79L618.3,258.15L619.54,316.68L622.15,353.75L623.48,351.13L626.04,366.12L628.59,357.89L629.94,365.58L632.55,339.86L633.8,369.85L636.41,375.44L638.94,293.73L640.27,317.69L642.86,347.27L644.12,364.96L646.69,371.92L647.97,377.39L650.62,379.41L653.2,378.99L654.53,380.27L657.05,378.39L658.33,381.33L660.95,382.51L663.5,372.82L664.86,374.83L667.43,373.95L668.7,380.66L671.34,368.62L673.88,381.33L675.18,382.71L679.06,374.5L681.64,378.95L682.94,358.15L685.48,366.65L688.07,375.56L689.4,376.67L693.3,361.2L695.84,364.57L699.75,379.83L702.32,378.76L703.61,381.73L706.25,380.85L707.51,382.78L710.14,382.74L712.67,382.85L713.96,381.13L716.55,380.09L717.87,380.65L720.4,372.37L723.02,375.51L724.35,377.52L726.88,377.74L728.15,380.61L730.74,381.23L732.08,382.46L734.62,377.81L737.26,375.94L738.55,381.79L741.11,381.51L742.36,382.39L745.04,380.65L747.53,383.27L748.92,382.92L751.43,383.19L752.79,382.11L755.36,382.68L757.93,379.85L759.27,381.46L761.84,383.01L763.07,381.6L765.72,380.92L766.95,379.11L772.11,375.65L773.46,377.76L776.04,382.81L777.3,382.37L779.88,383.4L782.52,376.54L783.8,380.91L786.38,381.97L787.7,380.48L790.21,380.63L791.52,381.65L794.09,382.68L797.97,376.94L800.62,381.71L804.48,382.96L807.02,377.92L808.32,381.34L810.93,382.58L812.26,383.11L814.84,383.09L816.08,382.89L818.64,380.57L821.26,377.57L822.58,378.01L826.45,376.52L829.05,379.52L832.95,381.82L835.46,382.81L839.36,383.9L841.93,361.99L843.24,374.11L845.87,380.35L847.09,381.52L849.74,377.15L851.05,377.61L853.62,383.05L860.04,384.22L861.33,384.35L863.95,384.39L866.49,383.62L867.86,383.32L870.4,384.32L874.33,384.59L875.55,383.57L880.72,383.79L882,379.22L884.66,381.02L885.87,382.84L891.12,384.21L892.37,384.24L900.15,384.69L902.68,384.21L910.5,384.67L913.03,384.57L916.92,383.67L919.55,383.88L923.38,384.66L924.72,384.76L931.18,384.8L933.74,384.79L968.71,384.87L969.91,384.88L972.56,384.89L975.16,383.03L982.88,384.74L984.19,384.79L1021.68,384.94" style="vector-effect: none; fill: none; stroke: rgb(67, 67, 72); stroke-opacity: 1; stroke-width: 2px; opacity: 1;"/></g><g class="points"/><g class="text"/></g><g class="trace scatter tracef709c3" style="stroke-miterlimit: 2; opacity: 1;"><g class="fills"/><g class="errorbars"/><g class="lines"><path class="js-line" d="M0,384.99L58.46,384.97L61.05,383.46L62.28,379.58L64.87,346.88L66.22,330.74L68.8,382.11L71.35,362.06L72.71,369.92L75.31,383.95L76.54,381.72L79.15,375.36L80.47,381.06L83.03,383.25L85.56,382.69L86.9,383.73L89.48,361.87L90.72,288.51L93.37,368.97L95.93,362.2L97.24,373.24L99.86,370.63L101.08,380.51L103.74,381.4L106.28,375.41L107.6,375.46L110.15,354.02L111.47,357.07L114,379.03L117.96,358.14L120.54,299.29L121.78,302.01L124.4,321.2L125.7,313.52L128.24,354.28L130.82,380.49L132.11,380.09L134.69,378.54L136.03,369.55L138.59,350.51L141.24,361.24L142.47,317.82L145.11,359.55L146.33,356.68L148.93,358.65L150.23,368.84L152.86,357.09L156.72,257.78L159.27,356.33L160.57,330.69L163.19,350.47L165.73,359.51L167.06,370.12L169.6,376.39L170.92,377.47L173.49,360.11L174.82,368.69L179.94,358.91L181.26,353.42L183.82,352.8L185.15,363.93L187.76,365.44L190.33,346.6L191.63,344.55L194.25,324.61L195.46,364.71L198.04,345.02L201.94,359.45L204.56,375.68L205.86,378.75L208.47,309.73L209.69,326.15L212.26,291.14L214.88,357.41L216.19,370.93L218.75,375.84L220.09,345.79L222.65,357.93L225.22,343.61L226.55,292.92L229.09,340.3L230.39,355.28L233.02,325.77L236.86,357.37L239.47,364.76L240.79,368.05L243.35,366L244.67,348.04L247.26,366.11L249.75,314.31L251.08,372.33L253.71,374.91L254.96,342.06L257.51,347.87L260.16,194.81L261.46,271.91L263.99,354.04L265.32,362.24L267.89,359.93L270.48,358.57L271.8,356.58L274.38,342.2L275.62,364.14L278.27,371.45L279.51,367.22L282.16,281.34L284.68,290.44L289.89,365.6L292.49,368.73L295.1,361.71L296.36,342.33L298.91,376.41L300.19,366.07L302.84,357.52L304.08,373.1L306.66,355.67L309.32,295.07L310.55,306.05L313.18,297.63L314.4,310.96L317.04,356.49L319.62,293.32L320.94,199.61L323.53,207.27L324.76,269.01L327.4,313.14L329.93,340.66L331.25,351.84L333.88,344.39L335.1,338.22L337.72,361.42L339.05,368L341.58,369.27L344.22,376.2L345.49,376.23L348.1,195.05L349.32,220.33L351.98,307.62L354.52,328.13L355.83,357.93L358.39,364.66L362.26,327.52L364.89,341.97L366.21,342.02L368.76,364.98L370,350.17L372.58,353.02L373.94,368.57L376.47,299.46L379.11,344.26L380.34,349.49L384.23,354.64L386.9,304.24L389.39,223.9L390.72,293.26L394.66,370L397.15,365.78L398.52,368.68L401.12,313.55L404.99,363.68L407.52,342.89L408.86,305.21L411.39,351.52L415.27,356.47L417.85,374.83L419.13,355.57L421.75,356.23L424.34,255.97L425.67,249.76L428.22,320.39L429.55,304.64L433.38,351.31L435.96,301.16L438.57,320.64L439.89,349.54L442.45,363L443.7,356.54L446.34,363.33L448.87,365.06L450.16,362.52L452.79,371.25L454.04,304.13L456.66,317.49L459.21,238.6L460.52,236.75L464.46,331.13L467,323.08L468.34,349.53L470.89,351.05L473.44,347.18L474.81,320.61L477.32,334.89L478.68,336.68L481.19,360.4L483.88,359.39L485.16,370.58L487.65,327.2L491.55,370.03L494.17,296.51L495.48,302.66L498.01,347.81L499.34,344.82L501.93,327.69L503.24,319.51L505.79,298.46L508.4,294.97L509.65,337.16L512.23,346.35L513.6,337.36L516.12,358.12L518.7,366.51L520.05,351.29L522.57,359.34L523.95,359.42L526.45,372.89L527.83,365.88L530.39,369.66L532.92,361.32L534.26,367.4L536.87,365.51L538.13,374.97L540.7,355.48L543.24,372.22L544.55,365.84L547.18,308.01L548.43,324.7L551.06,375.59L554.91,19.25L557.54,174.2L558.76,292.24L561.41,312.32L562.65,329.48L565.3,328.75L569.17,356.85L571.69,341.92L575.58,326.16L578.2,303.83L579.53,336.72L582.04,352.38L583.36,359.6L585.99,358.94L588.5,369.58L589.8,365.68L592.42,376.89L593.7,371.21L596.32,370.77L597.56,314.32L600.2,371.09L602.8,339.58L606.65,366.84L607.93,366.48L610.51,373.37L613.14,373.33L614.38,375.77L617.02,230.08L620.89,336.1L623.42,345.34L624.74,350.41L627.38,363.94L628.6,364.5L631.18,353.27L632.51,367.45L635.12,372.75L637.7,290.14L638.94,292.72L641.57,324.61L642.8,352.68L645.45,366.71L647.97,370.2L649.35,376.68L651.88,377.68L653.18,378.26L655.76,376.19L657.04,374.67L659.64,379.17L662.29,369.86L663.53,376.11L666.09,374.62L667.44,378.68L670.02,371.59L672.54,379.14L673.85,380.27L676.43,376.35L677.79,370.04L680.34,374.98L682.95,325.21L684.21,342.18L688.11,375.05L690.65,371.24L692.01,345.77L694.58,354.62L698.46,375.43L701,377.16L702.3,376.67L704.92,379.73L707.46,382.2L708.8,381.54L711.34,382.95L712.83,377.33L715.29,378.2L717.88,377.57L719.14,364.23L721.72,373.25L726.9,379.38L729.44,380.3L732.1,380.09L733.38,369.35L737.2,381.46L739.81,381.35L743.69,382.61L746.24,382.85L751.5,382.39L754.02,383.13L757.94,379.77L760.49,380.97L761.82,380.74L764.42,382.33L766.94,378.77L768.23,380.8L770.83,373.54L772.09,374.07L774.7,382.74L777.3,382.18L778.63,382.99L781.19,383.39L782.44,375.15L785.05,381.92L786.37,380.38L788.98,375.77L791.54,381.06L792.82,381.8L795.4,370.21L796.69,376.56L799.33,375.92L801.84,381.75L803.19,382.41L805.76,382.65L807.1,382.21L809.66,382.63L813.51,383.08L816.12,381.91L817.43,380.78L819.99,376.63L821.26,373.43L823.84,373.5L826.41,372.9L827.78,374.18L831.64,378.26L834.16,380.68L838.07,382.64L840.62,332.92L841.92,364.42L844.51,373.78L847.12,380.89L848.43,381.28L851.02,374.08L852.31,380.02L856.19,383.54L858.79,383.73L865.19,384.23L866.5,382.58L871.73,384.49L872.97,384.42L876.89,383.4L879.44,380.99L880.8,382.13L883.33,373.71L885.94,382L887.24,382.77L891.11,383.81L893.64,384L897.59,384.5L900.12,383.95L901.39,384.13L903.98,383.71L907.93,384.68L910.51,384.68L914.41,384.61L915.61,381.41L918.19,384.17L920.78,384.05L924.7,384.71L926.04,384.62L928.55,383.95L931.13,384.75L966.04,384.56L967.32,384.81L973.89,384.8L975.09,382.25L977.74,384.46L980.31,384.71L994.49,384.19L995.78,383.72L1001.01,384.54L1002.25,384.61L1019.05,384.88L1020.36,384.89L1023,384.99" style="vector-effect: none; fill: none; stroke: rgb(144, 237, 125); stroke-opacity: 1; stroke-width: 2px; opacity: 1;"/></g><g class="points"/><g class="text"/></g><g class="trace scatter trace7744b2" style="stroke-miterlimit: 2; opacity: 1;"><g class="fills"/><g class="errorbars"/><g class="lines"><path class="js-line" d="M0,385L58.49,384.93L61.07,381.22L62.35,381.11L64.96,310.23L66.24,342.13L68.8,380.44L70.08,363.09L72.66,382.24L76.56,383.74L79.16,372.17L80.41,378.8L83.06,382.33L85.59,378.71L86.86,381.77L89.51,352.62L90.79,191.47L93.39,366.54L95.95,356.14L97.26,377.54L99.79,375.98L101.12,381.47L103.74,381.93L104.96,380.09L107.6,369.51L110.14,378.6L111.44,367.36L114.09,378.08L115.34,374.85L117.9,376.21L120.55,378.85L121.81,375.21L124.4,289.91L125.71,319.93L128.24,292.28L129.55,356.33L132.12,378.93L134.74,371.49L136,381.93L138.63,373.94L139.86,344.59L142.5,371.15L145.05,315.53L146.36,340.78L148.97,273.16L152.84,373.97L154.16,349.05L156.69,309.6L159.31,305.73L160.61,291.47L163.14,344.74L164.44,353.89L167.06,346.26L170.92,378.39L173.47,375.81L174.81,362.17L177.36,366.21L178.68,366.1L181.23,368.65L185.19,359.15L187.76,372.66L189,368.23L191.65,337.91L194.18,344.08L195.5,356.39L199.35,373.18L201.92,325.87L208.44,369.44L209.75,377.36L212.3,290.71L213.55,352.34L216.19,315.44L218.78,368.11L220.06,373.17L222.66,346.62L223.99,350.46L226.54,326.6L229.11,293.53L230.43,313.75L234.3,359.08L236.84,357.44L238.15,352.6L240.76,369.57L243.33,364.95L244.64,359.04L247.25,360.2L248.49,355.08L251.06,339.11L253.7,369.65L254.93,374.61L257.58,341.37L258.81,361.93L261.46,230.07L265.3,331.22L267.91,357.76L269.23,363.38L271.8,369.21L273.09,370.52L275.68,354.68L279.58,366.55L282.12,374.16L283.46,364.63L286.02,272.8L289.87,354.87L292.48,352.55L293.8,365.17L296.35,361.17L297.68,368.07L300.27,337.39L302.82,362.38L304.15,357.22L306.7,373.38L307.96,350.1L310.6,348.86L313.13,361.33L314.46,359.81L317,348.98L318.32,366.07L320.89,363.25L322.22,339.65L324.76,269.33L327.36,263.25L328.62,273.23L331.26,307.45L332.57,313.53L335.09,355.16L337.72,362.01L339.06,345.96L341.6,365.79L342.85,370.46L345.45,376L346.79,376.13L349.31,199.42L353.23,304.72L355.78,328.22L357.1,327.3L359.72,360.29L363.59,326.29L366.12,345.62L367.42,339.71L370.04,358.67L373.92,372.96L376.53,369.93L377.79,338.41L380.34,304.98L381.66,333.72L384.3,357.46L386.85,356.55L388.17,339.43L390.69,306.31L392.01,271.44L394.64,351.61L397.23,361.42L401.04,368.92L402.37,340.77L406.26,368.82L408.8,369.51L412.68,330.21L415.34,360.73L416.58,369.78L419.16,366.94L423.05,380.12L425.65,342.35L429.5,318.56L430.83,340.87L433.38,324.15L435.97,245.85L439.84,340.19L441.15,347.7L443.73,343.56L446.34,365.28L447.6,358.98L450.21,361.02L451.46,368.93L454.08,362.74L455.42,320.26L457.91,287.55L460.59,279.45L461.83,291.45L464.39,270.08L465.72,299.46L468.33,341.55L470.9,337.17L472.22,348.76L474.76,358.84L476.08,368.97L478.6,354.54L481.26,364.6L482.53,364.97L485.15,355.35L486.4,357.22L488.99,352.85L490.29,341.47L492.84,363.86L495.48,301.12L496.73,220.03L499.34,283.43L500.65,321.43L503.22,345.53L505.77,298.58L507.08,316.16L509.68,234.03L510.93,262.28L513.59,316.91L514.83,322.93L517.46,357.24L520.03,365.35L521.35,365.12L523.93,341.57L525.24,357.6L527.77,352.48L530.34,372.34L531.69,369.89L534.26,369.85L535.51,365.76L538.16,362.72L539.43,364.84L544.61,372.54L545.86,376.53L548.44,371.12L549.75,342.91L552.39,374.98L554.89,372.26L556.21,276.89L558.84,156.57L560.15,200.61L562.68,311.51L566.53,347.69L569.15,360.81L570.47,357.2L573.06,359.19L574.3,345.09L576.91,332.76L579.48,278.35L580.83,332.71L584.69,363.98L587.3,367.97L589.84,374.97L591.12,365.18L594.98,377.35L597.58,374.47L598.85,325.9L601.5,372.63L604.04,368.16L605.39,345.94L607.91,369.3L609.26,370.4L611.85,376.87L614.4,376.26L615.67,369.02L618.27,251.61L619.6,285.48L622.14,321.02L623.45,336.97L626,351.97L628.65,365.96L629.88,353.92L632.53,361.88L633.78,351.59L636.36,370.5L638.96,296.01L640.29,310.81L642.83,325.52L644.15,348.97L646.7,362.65L648.03,370.67L650.62,375.18L653.15,376.46L654.45,379.73L657.06,379.48L658.37,375.87L660.91,379.66L663.49,379.14L664.87,371.58L667.43,377.35L668.69,365.97L671.31,378.95L673.9,361.67L675.18,379.99L679.02,380.27L681.67,374.64L682.93,373.44L685.54,345.77L688.11,364.43L689.36,365.24L692,377.89L693.26,371.07L695.84,360.73L698.42,375.26L699.78,369.22L702.34,375L703.58,377.27L706.25,379.93L707.46,380.16L710.07,381.48L712.68,381.36L713.96,382.46L717.82,371.48L720.41,375.86L722.97,372.68L724.32,375.88L728.2,379L730.76,379.48L732.04,381.51L734.65,381.17L737.27,371.33L738.54,370.5L741.13,381.73L742.41,382.3L744.95,380.29L747.59,382.59L748.84,381.85L751.46,382.74L752.71,383.09L755.28,381.27L757.9,382.22L759.23,380.47L763.06,383.37L765.71,379.33L767.01,380.85L769.55,381.32L772.12,380.71L773.45,381.81L776.06,372.76L777.29,380.45L779.95,375.25L782.49,382.27L787.62,382.75L790.27,380.02L791.56,380.28L794.13,378.24L796.71,374.55L798.01,375.79L801.86,381.01L804.5,382.3L807.03,382.55L808.35,379.51L810.98,381.63L812.21,380.53L814.76,382.36L816.14,381.88L818.67,380.94L821.25,378.23L822.53,375.54L825.16,374.39L829.05,375.69L831.58,378.62L835.54,381.13L836.74,381.7L839.36,383.07L841.92,383.52L843.26,360.35L845.87,363.59L847.16,374.81L849.75,378.67L851.06,374.39L853.55,381.99L857.46,383.22L860.08,383.97L866.48,384.07L867.78,383.55L870.38,381.61L871.71,382.57L875.53,384.1L878.21,383.95L880.72,382.73L882.03,383.07L885.95,377.96L888.48,382.63L894.95,384.16L896.32,384.36L902.73,384.56L905.33,383.04L910.48,384.59L913.04,384.69L915.61,384.65L916.93,383.01L920.88,384.39L923.46,384.27L927.32,384.65L929.83,384.21L933.79,384.81L935,384.8L962.19,384.79L964.85,384.83L976.44,384.83L978.97,382.16L980.31,382.42L982.87,384.53L990.66,384.8L993.21,384.75L997.12,383.45L999.68,383.9L1001,384.51L1003.6,384.59L1008.7,384.87L1011.33,384.88L1021.68,384.94" style="vector-effect: none; fill: none; stroke: rgb(247, 163, 92); stroke-opacity: 1; stroke-width: 2px; opacity: 1;"/></g><g class="points"/><g class="text"/></g><g class="trace scatter tracef42c3f" style="stroke-miterlimit: 2; opacity: 1;"><g class="fills"/><g class="errorbars"/><g class="lines"><path class="js-line" d="M0,385L58.51,384.95L60.99,384.06L62.38,383.66L64.93,291.98L66.21,382.6L68.78,381.83L71.43,371.21L72.64,371.3L76.53,383.73L79.18,378.99L80.45,378.4L82.99,383.83L85.61,380.44L86.89,383.51L89.49,380.48L90.74,370.04L93.34,251.13L95.94,378.81L97.27,370.06L99.79,381.75L101.1,376.87L103.74,382.23L106.31,381.69L107.54,379.49L110.17,378.63L111.42,381.28L114.08,357.96L115.32,379.11L117.92,374.53L120.47,367.87L121.82,380.54L124.41,313.29L125.65,330.98L128.26,336.5L130.89,378.67L132.12,381.45L134.73,381.98L136.02,381.27L138.62,380.82L141.2,353.57L142.52,378.5L145.1,334.3L146.41,350.5L148.93,310.17L150.26,273.32L152.83,372.78L155.44,322.97L156.67,326.17L159.3,297.98L160.61,304.38L163.13,357.84L165.76,366.46L167.07,354.54L169.63,376.21L170.95,378.51L173.49,376.6L174.83,379.63L177.39,367.99L179.96,372.56L181.29,369.75L183.83,363.61L185.14,371.01L187.72,366.55L190.3,377.08L191.64,374.41L194.2,314.07L198.05,371.27L200.71,373.47L201.96,332.42L204.55,363.71L208.46,373.44L209.73,379.07L212.27,328.82L214.92,333.1L216.17,342.29L218.74,374.62L220.09,377.26L222.69,365.96L225.25,344.32L226.56,359.66L229.11,279.12L230.42,329.15L232.98,353.21L235.62,344.92L239.46,373.9L240.78,375.49L243.36,369.68L244.59,363.4L247.23,362.69L249.77,375.3L251.1,328.26L253.68,373.09L255.01,375.37L257.58,362.08L260.12,243.54L261.44,222.12L264,323.64L265.32,344.27L267.86,344.36L270.53,366.71L271.78,372.93L274.38,358.22L275.71,363.87L278.28,364.4L279.53,366.77L282.08,377.26L285.99,275.22L288.61,345.11L289.92,363.19L292.47,368.67L296.37,371.92L298.95,377.82L300.21,364.67L302.8,374.61L304.06,362.21L306.7,373.97L309.28,364.67L310.61,367.08L313.15,358.2L314.48,373.86L317.07,357.5L319.63,370.47L320.89,370.34L323.47,376.49L324.81,350.49L327.42,268.2L333.83,355.67L335.15,357.11L339,366.78L341.56,366.77L344.14,374.84L345.49,374.1L348.03,379.43L349.31,322.62L351.94,277L354.52,319.61L355.85,349.2L358.37,344L359.69,361.29L362.32,359.13L364.86,339.04L366.17,351.85L370,370.06L372.65,368.98L373.88,370.03L376.46,368.57L379.05,357.21L380.37,315.3L384.27,362.13L386.85,367.92L393.33,328.83L394.6,343.69L397.21,372.3L398.54,371.13L401.03,375.35L403.61,319.15L404.94,351.06L407.54,373.09L408.82,376.15L411.38,340.96L414.03,343.17L415.26,359.42L417.92,369.9L419.17,366.37L421.79,378.19L424.36,374.52L425.63,366.76L428.22,268.07L429.49,297.86L432.13,315.16L433.36,330L435.94,346.23L438.6,323.96L439.84,347.92L442.47,361L443.72,338.75L446.28,361.62L448.92,370.03L450.19,369.06L452.74,370.2L454.09,370.38L456.65,357.31L459.23,315.22L460.56,280.76L463.13,320.48L464.45,303.09L467.02,353.94L468.35,337L470.91,366.52L473.44,359.69L474.77,368.61L477.41,358.18L481.23,358.65L483.86,367.04L485.14,361.02L487.66,373.19L488.99,359.27L491.6,358.51L494.21,365.6L495.49,337.05L498.07,289.58L499.29,310.15L501.94,361.32L503.17,364.36L505.82,260.22L508.36,357.27L509.7,248.09L512.24,319.03L513.58,316.63L516.19,339.97L518.75,367.11L520,367.82L522.61,323.33L523.93,353.29L526.51,362.73L527.77,357.29L530.36,375.94L532.94,372.6L534.21,372.28L536.84,366.46L538.09,370.78L540.72,371.65L543.3,377.12L544.6,374.53L547.17,376.47L548.93,379.32L551.04,363.21L553.67,374.3L554.88,378.38L557.51,59.71L562.7,335.51L565.25,337.36L567.89,347.71L569.14,341L571.72,343.38L572.98,353.93L575.62,360.32L578.18,325.6L579.52,324.75L582.11,361.18L583.34,358.77L586,371.32L588.51,377.43L589.87,371.46L593.73,376.45L596.29,373.03L597.61,373.51L600.14,360.18L602.72,374.38L604.11,371.96L606.6,366.6L607.93,376.8L610.55,369.33L613.14,373.59L614.41,376.6L616.94,344.1L618.31,267.48L620.83,332.91L624.79,358.71L627.34,368.86L628.64,370.55L631.2,362.29L632.54,366.74L635.12,363.08L637.71,367.55L638.95,315.16L645.39,364.01L648.04,375.01L649.29,374.74L651.91,380.15L653.22,378.33L655.81,382.13L657.05,379.1L659.65,380.67L662.24,382.11L663.59,381.51L666.1,377.65L667.37,378.92L670.04,380.87L672.63,358.9L673.88,375.47L676.47,381.34L677.78,381.91L680.3,378.33L682.96,379.73L684.22,372.89L686.82,364.21L688.07,364.21L690.72,378.68L691.97,379.28L694.57,351.65L697.13,374.3L698.46,372.77L701.03,374.85L702.3,377.71L704.91,380.44L707.54,380.88L708.76,382.89L712.76,382.27L715.3,383.4L719.12,373.19L721.67,372.98L722.97,371.32L725.64,375.99L726.92,378L729.46,379.97L733.39,381.46L735.92,380.25L739.85,379.06L742.45,382.13L743.72,382.72L746.3,382.71L747.54,383.05L750.14,382.13L751.44,382.4L754.01,381.07L756.61,381.62L757.87,379.89L761.81,383.38L764.34,381.88L768.22,382.57L770.8,378.32L772.16,381.94L774.72,379.14L777.31,383.11L778.6,380.97L781.18,380.91L782.47,383.07L785.07,383.56L786.32,382.95L788.96,370.76L791.57,380.23L792.79,381.73L795.41,371.14L796.71,356.74L799.29,378.52L805.79,383.01L807.04,382.23L809.61,380.6L812.2,381.56L813.54,382.89L816.11,382.96L817.37,382.43L820,379.85L821.22,379.18L823.83,376.29L826.41,377.54L827.71,377.06L834.17,382L836.82,380.42L838.04,382.65L840.62,383.74L841.99,381.85L844.55,358.31L847.1,379.29L848.41,380.75L852.26,381.94L854.92,383.66L856.15,383.3L858.75,384.09L866.57,383.98L869.14,381.81L871.75,384.07L873,384.12L876.91,384.18L879.46,383.36L880.7,383.61L883.39,382.79L885.95,381.91L887.2,383.78L897.55,384.65L900.13,384.71L915.61,384.66L918.29,383.86L922.13,383.84L924.66,384.6L936.34,384.82L938.97,384.42L960.91,384.85L963.48,384.85L975.14,384.87L977.74,381.46L980.28,384.25L981.61,384.5L991.94,384.8L994.49,382.93L995.85,383.86L998.4,384.6L1004.85,384.61L1006.14,384.77L1022.92,384.95" style="vector-effect: none; fill: none; stroke: rgb(128, 133, 233); stroke-opacity: 1; stroke-width: 2px; opacity: 1;"/></g><g class="points"/><g class="text"/></g><g class="trace scatter tracef885e8" style="stroke-miterlimit: 2; opacity: 1;"><g class="fills"/><g class="errorbars"/><g class="lines"><path class="js-line" d="M0,385L58.46,384.94L61.05,383.08L62.32,382.15L64.94,304.75L66.21,371.63L68.82,384.11L71.33,372.49L72.71,383.88L76.57,384.24L79.16,377.27L80.41,383.38L82.99,382.72L85.57,381.52L86.92,381.73L90.81,376.68L93.39,306.02L95.91,371.12L97.23,372.59L99.84,374.07L101.08,382.07L103.73,382.67L106.28,381.16L107.58,377.27L110.14,381.06L111.48,366.37L114.04,382.72L115.31,376.92L117.88,370.88L120.48,379.08L121.83,353.18L124.4,325.24L125.71,367.92L128.24,374.96L130.88,377.91L132.14,375.86L134.69,378.52L136.04,377.1L138.59,363.64L141.23,379.65L142.47,366.45L145.03,352.6L146.33,354.31L148.95,298.89L150.22,366.98L155.46,339.35L156.68,355.19L159.33,275.63L160.56,363.22L163.17,361.7L165.79,342.85L167.01,345.58L169.65,377.83L170.96,378.76L173.51,378.37L174.85,367.73L177.41,367.02L179.97,375.44L181.3,367.65L183.83,373.14L185.17,366.11L187.74,376.1L190.34,368.53L191.66,369.72L194.21,335.38L195.52,339.45L198.05,370.36L200.64,336.4L201.98,342.76L204.79,341.9L205.85,346.34L208.47,378.91L209.77,315.87L212.3,347.86L214.92,324.87L216.16,370.08L218.8,378.27L220.03,377.42L222.6,353.07L225.23,343.18L226.57,348.54L229.13,309.41L230.44,325.95L233,363.84L235.54,344.32L236.84,359.12L239.48,375.1L243.29,369.31L244.6,365.09L247.23,356.99L249.8,345.3L251.05,332.84L253.72,377.74L254.98,377.65L257.57,350.14L260.11,298.22L261.42,216.03L264.03,342.05L265.34,357.36L267.9,370.62L270.51,373.76L271.76,363.44L274.41,364.27L275.65,350.35L278.21,371.67L279.52,374.97L282.11,376.93L284.72,270.64L286.03,308.74L289.89,365.36L292.45,371.86L295.02,368.61L296.35,363.02L298.92,358.46L300.24,377.69L302.85,364.99L304.1,366.58L306.69,373.13L309.27,362.65L310.58,349.52L313.12,371.89L314.46,341.88L316.99,360.11L320.9,369.38L323.46,314.99L324.77,277.79L327.35,230.78L329.99,337.1L331.29,338.09L333.82,366.4L335.14,366.68L337.69,348.79L339.02,355.36L341.59,370.57L344.18,373.58L345.44,379L348.11,378.67L349.37,254.7L351.92,317.77L354.55,324.76L355.78,350.27L358.4,370.57L359.74,361.75L362.3,368.16L364.85,349.99L366.17,337.07L368.72,353.09L370.05,362.99L372.62,346.31L373.96,361.23L376.46,356.25L379.13,330.96L380.35,348.22L382.99,369.99L384.22,366.96L386.81,342.2L389.43,301.28L390.7,294.27L393.34,350.96L394.62,361.77L397.23,367.53L398.49,365.77L401.03,348.65L403.69,351.84L404.93,366.92L407.56,375.49L408.78,356.42L411.38,320.2L414.01,365.32L419.17,371.06L421.74,376.92L425.65,294.79L428.21,317.05L429.54,341.24L432.08,319.02L433.41,352.4L435.97,321.05L438.6,354.36L439.82,354.63L442.4,348.22L443.76,370.26L446.31,357.94L448.94,373.82L450.25,369.28L452.77,372.95L454.13,372.89L456.63,305.33L459.28,286.28L460.5,238.7L463.17,270.29L464.41,318.2L467.01,333.12L468.32,362.53L470.87,353.17L473.51,369.72L474.74,363.51L477.34,363.58L478.69,370.83L481.24,354.51L485.12,370.46L487.73,376.91L488.96,347.18L491.63,367.56L494.16,310.7L495.5,320.53L498.06,311.77L499.36,349.65L501.92,366.58L503.26,365.45L505.84,328.07L508.41,268.08L509.7,279.72L512.29,337.7L513.57,353.94L516.12,354.86L518.7,368.24L520.04,366.12L522.62,356.88L523.87,366.09L526.51,369.72L527.77,376.47L530.35,374.17L532.92,374.79L534.2,368.88L536.83,369.38L538.11,372.11L540.68,365.84L544.57,376.53L547.15,375.05L548.46,327.22L551.08,371.74L553.61,374.59L554.89,349.64L557.53,196.89L558.83,288.19L561.42,352.88L562.66,346.65L565.32,356.76L567.84,346.18L569.18,355.09L571.71,361.93L575.62,317.51L578.24,323.77L579.46,360.58L582.05,359.26L583.37,356.25L585.97,376.16L588.5,367.04L589.86,375.23L593.7,376.98L596.35,369.93L597.6,352.27L600.17,367.03L602.81,359.99L604.05,349.1L606.61,367.13L607.97,370.28L610.54,373.24L613.09,370.1L614.44,375.84L616.95,242.06L618.28,304.86L620.82,346.5L624.7,366.64L627.36,356.26L628.59,365.31L631.18,354.21L632.55,358.21L635.06,373.2L637.65,298.97L639,318.12L641.55,354.63L642.8,359.75L645.39,369.76L648.02,373.9L649.29,377.15L651.88,377.46L653.17,377.18L655.78,379.23L657.08,380.13L659.69,380.22L662.22,376.5L663.51,370.87L666.16,375.41L667.42,379.21L670.05,360.25L672.59,378L673.87,380.76L676.48,380.34L677.78,372.54L680.35,377.51L684.25,333.61L686.83,369.18L688.08,374.25L690.71,377.93L691.96,351.98L694.6,359.72L697.16,363.68L698.48,372.7L701.02,379.78L702.34,378.85L704.95,381.63L707.51,382.61L711.33,381.96L712.64,382.31L717.84,360.45L719.13,369.63L721.73,374.44L723.05,375.12L729.51,381.58L732.03,381.79L735.93,377.08L737.23,377.82L739.79,381.98L742.39,382.43L743.74,383.12L746.28,382.28L747.64,383.35L750.2,382.97L751.47,382.5L753.99,382.59L756.62,380.54L757.95,380.99L761.78,383.24L764.39,381.87L766.95,381.93L768.27,377.95L770.88,381.38L772.09,377.54L774.77,382.39L777.26,381.94L778.57,381.34L781.21,375.83L782.5,382.22L785.02,381.84L786.37,382.57L788.94,376.6L792.82,381.8L795.38,364.49L796.69,375.35L799.26,380.48L803.2,382.84L805.75,378.12L807.08,377.8L809.63,380.71L812.2,383.23L813.47,383.23L817.37,381.14L820.02,378.41L821.23,376.47L823.87,377.01L826.42,377.62L827.77,379.33L831.64,381.56L834.21,380.69L838.07,383.31L840.69,370.66L841.93,353.65L844.57,379.54L848.46,382.22L851.03,381.02L852.34,383.51L854.85,383.91L862.69,384.54L865.26,384.1L866.56,382.23L869.16,383.91L873.03,384.58L875.59,383.84L876.83,384.06L879.43,382.88L880.75,383.4L883.29,372.71L885.91,382.78L887.19,383.42L897.57,384.6L900.16,384.64L901.49,384.23L904.06,384.41L911.82,384.58L914.36,384.54L915.63,383.68L918.29,383.75L925.95,384.67L928.63,384.45L936.33,384.69L938.92,384.77L945.38,384.83L946.72,384.85L966.12,384.82L967.43,384.88L973.79,384.87L975.09,382.27L977.77,384.46L980.26,384.68L990.69,384.83L991.9,384.83L998.43,384.32L1000.99,384.71L1022.93,384.99" style="vector-effect: none; fill: none; stroke: rgb(241, 92, 128); stroke-opacity: 1; stroke-width: 2px; opacity: 1;"/></g><g class="points"/><g class="text"/></g></g></g></g><path class="xlines-above crisp" d="M0,0" style="fill: none;"/><path class="ylines-above crisp" d="M0,0" style="fill: none;"/><g class="overlines-above"/><g class="xaxislayer-above"><g class="xtick"><text text-anchor="middle" x="0" y="451" transform="translate(190.22,0)" style="font-family: 'Lucida Grande', 'Open Sans', verdana, arial, sans-serif; font-size: 10px; fill: rgb(0, 0, 0); fill-opacity: 1; white-space: pre; opacity: 1;">500</text></g><g class="xtick"><text text-anchor="middle" x="0" y="451" style="font-family: 'Lucida Grande', 'Open Sans', verdana, arial, sans-serif; font-size: 10px; fill: rgb(0, 0, 0); fill-opacity: 1; white-space: pre; opacity: 1;" transform="translate(319.51,0)">1000</text></g><g class="xtick"><text text-anchor="middle" x="0" y="451" style="font-family: 'Lucida Grande', 'Open Sans', verdana, arial, sans-serif; font-size: 10px; fill: rgb(0, 0, 0); fill-opacity: 1; white-space: pre; opacity: 1;" transform="translate(448.8,0)">1500</text></g><g class="xtick"><text text-anchor="middle" x="0" y="451" style="font-family: 'Lucida Grande', 'Open Sans', verdana, arial, sans-serif; font-size: 10px; fill: rgb(0, 0, 0); fill-opacity: 1; white-space: pre; opacity: 1;" transform="translate(578.09,0)">2000</text></g><g class="xtick"><text text-anchor="middle" x="0" y="451" style="font-family: 'Lucida Grande', 'Open Sans', verdana, arial, sans-serif; font-size: 10px; fill: rgb(0, 0, 0); fill-opacity: 1; white-space: pre; opacity: 1;" transform="translate(707.39,0)">2500</text></g><g class="xtick"><text text-anchor="middle" x="0" y="451" style="font-family: 'Lucida Grande', 'Open Sans', verdana, arial, sans-serif; font-size: 10px; fill: rgb(0, 0, 0); fill-opacity: 1; white-space: pre; opacity: 1;" transform="translate(836.68,0)">3000</text></g><g class="xtick"><text text-anchor="middle" x="0" y="451" style="font-family: 'Lucida Grande', 'Open Sans', verdana, arial, sans-serif; font-size: 10px; fill: rgb(0, 0, 0); fill-opacity: 1; white-space: pre; opacity: 1;" transform="translate(965.97,0)">3500</text></g></g><g class="yaxislayer-above"><g class="ytick"><text text-anchor="end" x="56" y="3.5" transform="translate(0,435)" style="font-family: 'Lucida Grande', 'Open Sans', verdana, arial, sans-serif; font-size: 10px; fill: rgb(0, 0, 0); fill-opacity: 1; white-space: pre; opacity: 1;">0</text></g><g class="ytick"><text text-anchor="end" x="56" y="3.5" style="font-family: 'Lucida Grande', 'Open Sans', verdana, arial, sans-serif; font-size: 10px; fill: rgb(0, 0, 0); fill-opacity: 1; white-space: pre; opacity: 1;" transform="translate(0,361.1)">10B</text></g><g class="ytick"><text text-anchor="end" x="56" y="3.5" style="font-family: 'Lucida Grande', 'Open Sans', verdana, arial, sans-serif; font-size: 10px; fill: rgb(0, 0, 0); fill-opacity: 1; white-space: pre; opacity: 1;" transform="translate(0,287.2)">20B</text></g><g class="ytick"><text text-anchor="end" x="56" y="3.5" style="font-family: 'Lucida Grande', 'Open Sans', verdana, arial, sans-serif; font-size: 10px; fill: rgb(0, 0, 0); fill-opacity: 1; white-space: pre; opacity: 1;" transform="translate(0,213.3)">30B</text></g><g class="ytick"><text text-anchor="end" x="56" y="3.5" style="font-family: 'Lucida Grande', 'Open Sans', verdana, arial, sans-serif; font-size: 10px; fill: rgb(0, 0, 0); fill-opacity: 1; white-space: pre; opacity: 1;" transform="translate(0,139.4)">40B</text></g><g class="ytick"><text text-anchor="end" x="56" y="3.5" style="font-family: 'Lucida Grande', 'Open Sans', verdana, arial, sans-serif; font-size: 10px; fill: rgb(0, 0, 0); fill-opacity: 1; white-space: pre; opacity: 1;" transform="translate(0,65.5)">50B</text></g></g><g class="overaxes-above"/></g></g><g class="polarlayer"/><g class="smithlayer"/><g class="ternarylayer"/><g class="geolayer"/><g class="funnelarealayer"/><g class="pielayer"/><g class="iciclelayer"/><g class="treemaplayer"/><g class="sunburstlayer"/><g class="glimages"/><defs id="topdefs-e6d249"><g class="clips"/></defs><g class="layer-above"><g class="imagelayer"/><g class="shapelayer"/></g><g class="infolayer"><g class="g-gtitle"><text class="gtitle" x="550" y="25" text-anchor="middle" dy="0em" style="opacity: 1; font-family: 'Lucida Grande', 'Open Sans', verdana, arial, sans-serif; font-size: 20px; fill: rgb(42, 63, 95); fill-opacity: 1; white-space: pre;"><tspan class="line" dy="0em" x="550" y="25">MS1 BPC</tspan><tspan class="line" dy="1.3em" x="550" y="25">​<tspan style="font-size:70%" dy="-0.6em">6 samples</tspan><tspan dy="0.42em">​</tspan></tspan></text></g><g class="g-xtitle"><text class="xtitle" x="573.5" y="472.3" text-anchor="middle" style="opacity: 0.3; font-family: 'Lucida Grande', 'Open Sans', verdana, arial, sans-serif; font-size: 14px; fill: rgb(0, 0, 0); fill-opacity: 1; white-space: pre;">Retention Time (min)</text></g><g class="g-ytitle"><text class="ytitle" transform="rotate(-90,22.00625,242.5)" x="22.00625" y="242.5" text-anchor="middle" style="opacity: 0.3; font-family: 'Lucida Grande', 'Open Sans', verdana, arial, sans-serif; font-size: 14px; fill: rgb(0, 0, 0); fill-opacity: 1; white-space: pre;">Ion Count</text></g></g></svg>