<svg class="main-svg" xmlns="http://www.w3.org/2000/svg" xmlns:xlink="http://www.w3.org/1999/xlink" width="2200" height="1000" style="" viewBox="0 0 1100 500"><rect x="0" y="0" width="1100" height="500" style="fill: rgb(255, 255, 255); fill-opacity: 1;"/><defs id="defs-4822c8"><g class="clips"><clipPath id="clip4822c8xyplot" class="plotclip"><rect width="1023" height="385"/></clipPath><clipPath class="axesclip" id="clip4822c8x"><rect x="62" y="0" width="1023" height="500"/></clipPath><clipPath class="axesclip" id="clip4822c8y"><rect x="0" y="50" width="1100" height="385"/></clipPath><clipPath class="axesclip" id="clip4822c8xy"><rect x="62" y="50" width="1023" height="385"/></clipPath></g><g class="gradients"/><g class="patterns"/></defs><g class="bglayer"/><g class="layer-below"><g class="imagelayer"/><g class="shapelayer"/></g><g class="cartesianlayer"><g class="subplot xy"><g class="layer-subplot"><g class="shapelayer"/><g class="imagelayer"/></g><g class="minor-gridlayer"><g class="x"/><g class="y"/></g><g class="gridlayer"><g class="x"><path class="xgrid crisp" transform="translate(190.22,0)" d="M0,50v385" style="stroke: rgb(0, 0, 0); stroke-opacity: 0.05; stroke-width: 1px;"/><path class="xgrid crisp" transform="translate(319.51,0)" d="M0,50v385" style="stroke: rgb(0, 0, 0); stroke-opacity: 0.05; stroke-width: 1px;"/><path class="xgrid crisp" transform="translate(448.8,0)" d="M0,50v385" style="stroke: rgb(0, 0, 0); stroke-opacity: 0.05; stroke-width: 1px;"/><path class="xgrid crisp" transform="translate(578.09,0)" d="M0,50v385" style="stroke: rgb(0, 0, 0); stroke-opacity: 0.05; stroke-width: 1px;"/><path class="xgrid crisp" transform="translate(707.39,0)" d="M0,50v385" style="stroke: rgb(0, 0, 0); stroke-opacity: 0.05; stroke-width: 1px;"/><path class="xgrid crisp" transform="translate(836.68,0)" d="M0,50v385" style="stroke: rgb(0, 0, 0); stroke-opacity: 0.05; stroke-width: 1px;"/><path class="xgrid crisp" transform="translate(965.97,0)" d="M0,50v385" style="stroke: rgb(0, 0, 0); stroke-opacity: 0.05; stroke-width: 1px;"/></g><g class="y"><path class="ygrid crisp" transform="translate(0,368.47)" d="M62,0h1023" style="stroke: rgb(0, 0, 0); stroke-opacity: 0.05; stroke-width: 1px;"/><path class="ygrid crisp" transform="translate(0,301.93)" d="M62,0h1023" style="stroke: rgb(0, 0, 0); stroke-opacity: 0.05; stroke-width: 1px;"/><path class="ygrid crisp" transform="translate(0,235.4)" d="M62,0h1023" style="stroke: rgb(0, 0, 0); stroke-opacity: 0.05; stroke-width: 1px;"/><path class="ygrid crisp" transform="translate(0,168.86)" d="M62,0h1023" style="stroke: rgb(0, 0, 0); stroke-opacity: 0.05; stroke-width: 1px;"/><path class="ygrid crisp" transform="translate(0,102.33)" d="M62,0h1023" style="stroke: rgb(0, 0, 0); stroke-opacity: 0.05; stroke-width: 1px;"/></g></g><g class="zerolinelayer"><path class="yzl zl crisp" transform="translate(0,435)" d="M62,0h1023" style="stroke: rgb(0, 0, 0); stroke-opacity: 0.05; stroke-width: 2px;"/></g><g class="layer-between"><g class="shapelayer"/><g class="imagelayer"/></g><path class="xlines-below"/><path class="ylines-below"/><g class="overlines-below"/><g class="xaxislayer-below"/><g class="yaxislayer-below"/><g class="overaxes-below"/><g class="overplot"><g class="xy" transform="translate(62,50)" clip-path="url(#clip4822c8xyplot)"><g class="scatterlayer mlayer"><g class="trace scatter trace6711cb" style="stroke-miterlimit: 2; opacity: 1;"><g class="fills"/><g class="errorbars"/><g class="lines"><path class="js-line" d="M0,384.99L62.31,384.78L64.96,382.69L66.2,382.15L68.79,383.04L71.39,379.54L72.64,383.66L80.43,383.4L82.99,382L85.64,384.2L86.85,383.88L89.44,380.38L90.75,380.73L93.37,379.83L95.95,372.06L97.26,376.06L99.81,378.39L101.13,377.39L103.69,378.81L106.25,375.03L107.57,378.72L110.13,376.94L111.45,379.4L114.01,382.41L115.36,377.88L117.92,382.04L120.49,379.09L121.84,380.44L124.38,367.12L125.69,366.78L128.22,373.82L132.14,382.73L134.71,379.91L135.98,380.22L138.65,378.22L142.51,366.22L145.03,373.72L146.34,371.87L148.91,358.66L150.23,346.47L152.86,365.62L155.4,375.41L156.73,377.3L163.22,354.75L165.76,368.33L167.07,361.79L169.63,370.22L170.96,373.81L173.54,377.87L174.79,376.31L177.35,379.13L180,367.89L181.32,373.9L183.89,379.69L185.12,360.06L187.71,376.98L190.31,373.03L194.16,375.08L195.47,374.71L198.13,381.26L200.7,358.28L201.96,356.85L204.57,367.76L208.43,376.29L209.76,377.55L212.31,377.06L214.86,361.57L216.17,362.9L218.81,371.63L220.04,374.98L222.61,378.5L225.26,350.67L226.49,359.01L229.12,289.26L230.44,312.08L232.98,338.33L235.62,350.48L236.85,349.92L239.49,361.6L240.72,364.65L243.34,359.4L244.66,355.4L247.23,363.65L249.82,363.01L251.06,359.36L253.63,364.06L254.97,361.19L257.53,306.41L260.17,350.71L261.47,363.13L264.01,374.27L267.9,378.54L270.53,377.98L271.77,371.25L274.34,375.65L275.67,373.78L278.25,368.71L279.49,368.92L282.08,374.92L284.74,321.3L285.95,364.08L288.58,370.18L289.9,368.57L292.45,378.42L295.05,372.16L296.39,373.58L298.96,371.26L300.21,371.3L302.8,364.85L304.12,365.41L306.72,377.93L309.26,362.52L310.6,372.67L313.15,369.45L314.48,356.11L317.01,373.03L319.61,377.21L320.93,367.36L323.5,19.25L324.82,44.25L327.37,255.47L329.98,310.57L331.27,314.66L333.81,343.62L335.13,349.61L339,369.77L341.59,375.18L344.21,369.68L345.48,371.62L348.02,370.85L349.39,379.39L351.98,375.25L354.52,281.88L355.83,354.47L358.37,351.65L359.7,363.35L362.25,367.09L364.88,368.13L366.2,370.59L368.76,371.17L370.08,375.08L372.59,360.62L373.96,374.67L376.53,372.92L379.06,299.02L380.41,337.55L383.01,331.48L384.26,363.72L386.85,373.61L389.41,375.08L390.73,377.55L394.65,370.95L397.22,375.4L401.07,366.91L403.61,375.7L404.94,376.08L407.55,377.92L408.84,380.07L411.42,366.97L413.99,338.64L415.31,339.12L417.88,365.56L419.13,362.93L421.73,372.78L424.38,373.66L425.62,375.59L428.27,375.78L429.5,372.1L432.07,378.44L433.41,376.79L435.99,364.04L438.53,373.74L439.85,373.97L442.42,367.95L443.75,359.65L446.3,368.73L448.9,374.63L450.16,374.12L452.81,374.84L454.06,366.03L456.65,378.91L459.21,372.55L460.52,357.33L463.1,313.94L464.43,328.7L468.32,325.6L470.89,360.49L473.52,365.19L474.76,361.6L478.7,376.73L481.21,374.96L483.79,379.84L485.09,379.43L487.75,378.29L489.02,321.41L491.59,371.59L494.12,319.65L495.44,352.81L498.06,364.28L499.29,363.17L501.96,366.66L505.84,372.68L508.43,327.56L509.7,327.84L512.28,337.64L513.54,342.08L516.18,334.86L518.76,358L520.01,358.54L522.65,364.58L523.89,369.36L526.49,374.59L527.78,373.82L530.33,361.97L532.92,365.92L534.2,357.56L536.94,355.19L538.11,372.22L540.73,377.44L543.25,377.84L544.64,377.09L548.42,381.43L551.1,374.51L554.93,380.47L557.51,349.57L558.83,375.04L561.38,372.15L562.71,364.18L565.29,371.67L567.88,376.89L569.14,381.16L571.77,381.62L573.05,380.84L575.6,381.32L578.22,307.29L579.54,322.9L582.05,335.96L583.39,337.7L585.92,355.43L592.45,367.9L593.71,367.05L596.26,360.11L597.64,369.93L600.22,372.47L602.78,372.16L604.02,369.98L606.61,359.14L607.99,362.02L610.49,358.37L614.41,372.87L616.96,374.42L618.28,350.89L620.91,372.1L623.44,375.6L624.77,373.88L627.31,372.53L628.64,375.86L632.55,377.75L635.05,371.13L637.66,376.9L638.98,377.03L641.52,377.87L642.83,379.83L645.41,376.54L648.01,378.72L649.3,379.74L651.94,380.1L653.21,380.27L655.81,381.6L659.68,381.57L662.23,381.56L667.37,381.75L670.04,359.73L673.92,374.24L676.45,380.22L677.75,382.61L680.34,382.15L684.24,381.67L686.82,367.99L688.05,374.76L690.64,377.99L692.01,378.2L694.56,376.88L698.45,377.6L701.03,379.86L702.3,380.28L704.95,382.51L722.99,383.91L725.63,383.11L726.91,383.7L729.45,383.79L756.66,383.99L757.9,383.59L761.77,384.08L764.39,383.26L770.89,384.02L772.16,383.2L777.28,384.05L778.58,383.85L791.52,384.23L792.81,384.09L809.61,384.42L812.18,384.45L821.25,384.56L823.88,383.7L827.73,384.41L830.33,384.44L971.21,384.86L973.84,384.85L1022.99,384.94" style="vector-effect: none; fill: none; stroke: rgb(124, 181, 236); stroke-opacity: 1; stroke-width: 2px; opacity: 1;"/></g><g class="points"/><g class="text"/></g><g class="trace scatter trace535c87" style="stroke-miterlimit: 2; opacity: 1;"><g class="fills"/><g class="errorbars"/><g class="lines"><path class="js-line" d="M0,384.98L62.34,384.72L64.95,382.98L70.1,384.17L72.66,383.61L75.23,383.79L76.54,382.34L79.1,384.21L80.39,383.78L83,382.86L85.66,384.37L86.91,383.9L89.5,378.55L90.74,381.99L93.37,380.75L95.93,375.14L97.24,376.36L99.78,379.59L101.1,379.81L105.01,378.69L107.55,381.81L110.12,379.99L111.43,380.27L114,382.3L115.35,380.18L117.9,382.76L120.5,378.93L121.75,382.03L124.42,370.06L125.65,376.1L128.29,376.75L129.52,375.47L132.1,382.78L134.77,381.12L136.01,381.44L138.6,379.96L139.86,371.05L142.51,367.71L145.04,371.2L146.35,376.23L148.92,363.23L150.24,364.42L152.88,369.11L154.1,366.29L156.73,376.35L159.25,360.14L160.55,373.47L163.16,366.57L164.47,373.71L167.01,365.58L169.65,371.23L170.89,372.9L173.55,379.19L174.78,379.61L177.43,379.07L178.67,380.24L181.31,372.26L183.86,381.32L185.2,378.44L187.77,381.32L189.03,373.28L191.59,371.15L194.23,379.97L195.46,379.06L198.11,380.82L199.39,381.72L201.99,355.06L204.52,341.03L205.88,368.94L209.74,378.74L212.33,375.51L213.56,379.54L216.15,376.31L218.79,376.4L220.03,380.02L223.95,378.72L226.51,367.25L229.15,363.95L230.37,335.45L233.01,346.21L234.24,354.56L236.85,367.13L238.17,362.83L240.73,377.3L243.3,353.95L244.6,359.44L247.18,363.66L248.52,369.7L251.1,365.5L255,373.08L257.54,369.14L258.86,368.97L261.48,361.14L265.32,378.55L267.87,377.68L269.21,380.12L271.81,375.03L273.04,370.67L275.63,379.88L278.28,370.25L279.5,373.67L282.16,366.19L283.41,376.07L285.97,375.44L288.59,372.48L289.89,374.57L292.44,375.18L293.76,377.81L296.35,374.14L297.68,361.04L300.23,374.68L302.79,373.21L304.14,368.34L307.94,377.41L310.61,369.7L314.44,375.26L316.99,369.7L318.31,376.8L320.9,379.29L322.24,368.33L324.8,372.6L327.42,144.37L328.67,276.23L332.57,341.15L335.09,347.31L337.73,367.14L339.05,369.71L341.61,376.56L342.87,376.6L345.49,377.82L346.78,376.24L349.33,374.67L351.94,377.46L353.25,376.28L355.78,314.74L357.1,359.88L359.74,366.11L362.28,368.6L363.62,350.75L366.16,371.16L367.47,374.9L370.04,373.36L372.61,373.77L373.94,370.73L376.53,376.1L377.81,368.58L380.36,329.85L381.7,354.86L384.23,356.32L388.1,375.92L390.77,374.24L392,373.35L394.58,378.41L397.18,377.49L398.53,374.69L401.04,378.71L402.4,367.49L404.95,371.24L406.28,375.97L408.84,378.71L411.39,362.12L412.71,372.36L415.25,376.03L416.59,352.83L419.21,374.77L421.73,376.76L423.04,375.72L425.67,376.08L426.91,373.6L429.48,373.74L430.79,375.02L433.37,378.22L435.94,358.89L437.26,376.38L439.88,376.69L441.12,372.04L443.71,367.4L446.36,362.14L447.62,376.88L451.54,376.92L454.04,366.54L455.4,373.56L457.91,374.16L460.55,367.63L461.86,373.67L464.43,337.26L465.76,350.48L468.33,349.09L470.89,368.63L472.22,368.01L474.78,369.36L478.65,378.65L481.2,377.52L482.55,374.88L485.07,380.36L486.36,381.51L488.97,376.64L490.24,310.94L492.91,369.95L495.43,330.95L496.77,350.86L499.3,362.28L500.62,355.27L505.77,373.16L507.09,370.38L509.69,326.23L510.95,292.02L513.52,332.19L514.88,316.99L520.03,355.29L521.28,349.52L523.94,363.5L525.21,364.76L527.79,371.7L530.35,362.62L531.71,370.73L534.27,349.14L535.49,371.52L538.09,364.14L539.88,373.43L542.04,376.24L544.64,373.7L545.91,378.1L548.47,380.11L549.75,379.53L554.99,380.01L556.26,379.66L558.84,359.01L560.06,376.58L562.71,362.26L565.28,373.55L566.53,372.46L569.14,380.7L574.35,382.11L576.91,382.66L579.46,312.46L580.8,331.83L583.41,344.53L584.67,345.53L587.27,363.67L589.8,364.38L591.18,365L593.73,370.9L595.03,373.18L597.59,373.42L601.45,375.43L604.01,375.28L605.32,366.79L607.89,365.11L609.27,371.69L611.77,368.79L614.42,373.42L615.68,373.75L618.3,376.65L619.54,371.22L622.15,377.49L623.48,376.89L626.04,375.1L628.59,378.17L632.55,379.79L633.8,374.42L636.41,378.55L638.94,378.36L644.12,380.41L646.69,379.87L658.33,382.35L660.95,382.04L668.7,382.51L671.34,369.18L673.88,373.51L675.18,379.32L677.74,382.82L679.06,382.99L682.94,382.71L685.48,382.5L688.07,378.88L689.4,380.71L691.95,381.33L693.3,373.91L695.84,374.36L698.4,377.85L702.32,381.6L703.61,382.01L707.51,383.01L710.14,383.02L713.96,383.59L716.55,383.44L717.87,383.08L720.4,383.87L724.35,384.04L726.88,382.56L728.15,384.04L730.74,384.01L738.55,384.3L741.11,383.9L745.04,384.28L747.53,383.99L755.36,384.17L757.93,383.84L763.07,384.01L765.72,383.83L769.58,384.22L772.11,381.78L773.46,383.32L776.04,384.13L801.87,384.51L804.48,384.47L822.58,384.22L825.13,383.52L826.45,384.22L829.05,384.25L857.48,384.66L860.04,384.56L882,384.75L884.66,384.73L935.07,384.82L937.6,384.82L1021.68,384.95" style="vector-effect: none; fill: none; stroke: rgb(67, 67, 72); stroke-opacity: 1; stroke-width: 2px; opacity: 1;"/></g><g class="points"/><g class="text"/></g><g class="trace scatter trace68b29b" style="stroke-miterlimit: 2; opacity: 1;"><g class="fills"/><g class="errorbars"/><g class="lines"><path class="js-line" d="M0,384.99L62.28,384.64L64.87,381.55L68.8,383.03L71.35,380.76L72.71,382.17L75.31,383.6L76.54,382.14L79.15,383.95L83.03,382.4L85.56,384.11L86.9,383.64L89.48,383.65L90.72,383.48L93.37,378.07L95.93,373.66L97.24,375.34L101.08,375.74L103.74,377.72L106.28,372.55L107.6,377.75L110.15,379.97L111.47,377.11L114,380.62L115.33,379.82L117.96,380.31L120.54,379.66L121.78,348.23L124.4,370.82L125.7,369.44L128.24,375.95L130.82,382.64L132.11,382.32L136.03,379.03L138.59,377.9L141.24,366.62L142.47,342.01L145.11,371.13L146.33,375.22L148.93,344.21L150.23,345.15L155.39,376.24L156.72,370.44L159.27,317.73L160.57,362.6L163.19,364.45L165.73,360.08L169.6,367.5L170.92,373.43L173.49,377.59L174.82,376.79L177.38,379.31L179.94,350.26L181.26,373.85L183.82,375.61L185.15,376.31L187.76,370.59L190.33,361.78L191.63,375.42L194.25,367.14L195.46,371.22L198.04,369.82L200.66,358.99L201.94,348.69L204.56,361.49L205.86,371.02L208.47,372.09L209.69,374.5L212.26,358.85L214.88,362.41L216.19,371.47L220.09,377.88L222.65,373.53L225.22,354.12L226.55,326.22L229.09,323.07L230.39,313.47L233.02,351.97L235.55,338.99L236.86,343.93L239.47,362.05L240.79,348.43L243.35,350.66L244.67,351.31L247.26,370.33L249.75,356.83L251.08,354.19L253.71,364.18L254.96,360.38L257.51,304.95L260.16,359.54L261.46,361.83L263.99,372.38L265.32,374.98L267.89,377.91L270.48,355.48L271.8,368.5L274.38,374.53L275.62,366.7L278.27,374.08L279.51,363.79L282.16,369.59L284.68,334.98L285.98,359.91L288.59,369.7L289.89,360.22L292.49,378.76L295.1,374.76L296.36,356.67L298.91,373.58L300.19,364.39L302.84,342.57L304.08,368.07L306.66,374L309.32,366.34L310.55,358.72L313.18,354.65L314.4,352.12L317.04,375.97L319.62,366.15L320.94,208.45L323.53,78.39L324.76,179.89L329.93,305.85L331.25,333.52L333.88,342.91L335.1,365.92L337.72,369.44L339.05,373.22L341.58,372.21L344.22,374.91L345.49,374.57L348.1,378.33L349.32,378.65L351.98,369.31L354.52,310.93L355.83,335.72L359.72,361.14L362.26,360.44L364.89,367.37L366.21,363.51L368.76,373.77L370,373.82L372.58,373.82L373.94,376.48L376.47,215.89L379.11,304.62L382.95,360.49L384.23,366.19L386.9,376.44L389.39,373.52L390.72,375.03L393.32,371.08L397.15,377.3L398.52,373.34L401.12,368.34L403.66,376.36L404.99,376.59L407.52,378.26L408.86,378.99L411.39,363.96L414.04,348.94L415.27,346.55L419.13,374.23L421.75,377.86L424.34,373.77L425.67,376.53L428.22,365.73L429.55,371.93L432.11,377.14L433.38,377.29L435.96,344.58L438.57,371.09L439.89,370.88L442.45,361.99L443.7,368.52L446.34,374.26L448.87,373.86L450.16,372.42L452.79,367.08L454.04,379.27L456.66,378.53L459.21,344.9L460.52,256.2L463.09,332.54L464.46,336.73L467,336.75L468.34,357.13L470.89,368.38L474.81,371.18L477.32,379.14L478.68,372.99L481.19,375.48L483.88,379.72L485.16,380L487.65,318.31L488.99,315.54L491.55,361.18L494.17,318.94L495.48,341L498.01,357.76L499.34,331.25L501.93,354.04L503.24,368.78L505.79,306.77L508.4,297.24L509.65,289.16L512.23,329.11L513.6,330.68L516.12,326.55L518.7,363.72L520.05,356.81L522.57,362.91L526.45,374.17L527.83,369.87L530.39,367.16L532.92,347.37L534.26,368.81L536.87,360.31L538.13,376.68L540.7,375.76L543.24,375.58L544.55,377.07L547.18,379.9L548.43,379.58L551.06,375.33L553.64,379.82L554.91,379.76L557.54,370.92L558.76,377.1L561.41,355.55L562.65,367.84L565.3,374.26L567.9,379.84L569.17,380.02L571.69,381.15L572.98,380.88L575.58,381.53L578.2,286.68L579.53,307.69L582.04,318.36L583.36,337.58L585.99,347.44L592.42,366.07L593.7,366.02L596.32,368.14L597.56,367.13L602.8,372.58L604.03,364.78L606.65,355.81L607.93,372.25L610.51,359.17L613.14,371.23L614.38,372.11L617.02,371.3L618.24,371.93L620.89,374.75L623.42,373.78L624.74,374.45L627.38,371.34L628.6,375.74L632.51,372.36L635.12,373.59L637.7,376.57L638.94,376.27L642.8,378.25L645.45,375.16L647.97,378.09L649.35,377.84L653.18,378.36L655.76,380.51L657.04,380.72L659.64,379.6L662.29,379.22L663.53,380.08L667.44,380.53L670.02,373.05L673.85,373.88L676.43,380.64L677.79,381.58L680.34,382.01L682.95,382.09L684.21,381.16L688.11,377.13L690.65,379.82L694.58,373.34L697.11,375.97L698.46,373.6L701,380.84L704.92,382.02L707.46,382.13L717.88,382.75L719.14,383.33L722.99,383.56L725.63,381.72L726.9,383.44L729.44,383.52L733.38,383.54L735.91,383.63L737.2,383.7L739.81,382.96L743.69,383.66L746.24,383.71L760.49,383.78L761.82,383.81L766.94,383.37L768.23,383.82L770.83,383.3L772.09,380.36L774.7,383.23L777.3,383.92L792.82,384.04L795.4,384.28L801.84,384.39L803.19,384.34L821.26,384.32L823.84,383.26L827.78,384.16L830.35,384.26L847.12,384.6L848.43,384.51L887.24,384.66L889.75,384.67L975.09,384.77L977.74,384.81L1023,384.95" style="vector-effect: none; fill: none; stroke: rgb(144, 237, 125); stroke-opacity: 1; stroke-width: 2px; opacity: 1;"/></g><g class="points"/><g class="text"/></g><g class="trace scatter trace9c4c78" style="stroke-miterlimit: 2; opacity: 1;"><g class="fills"/><g class="errorbars"/><g class="lines"><path class="js-line" d="M0,384.98L62.35,384.6L64.96,381.88L66.24,381.51L68.8,383.67L70.08,383.94L72.66,381.96L75.24,383.9L76.56,383.42L79.16,382.59L80.41,383.97L83.06,382.37L85.59,383.32L89.51,383.51L90.79,375.75L93.39,376.55L95.95,372.73L97.26,373.58L99.79,376.44L104.96,376.31L107.6,377.39L110.14,372.4L111.44,373.53L114.09,382.52L115.34,381.11L120.55,379.44L121.81,380.59L124.4,362.71L125.71,365.56L128.24,365.68L129.55,359.35L132.12,381.21L134.74,379.5L136,380.71L138.63,375.53L139.86,373.81L142.5,360.09L145.05,353.44L146.36,362.7L148.97,367.56L150.23,332.51L152.84,352.89L154.16,354.78L156.69,373.83L159.31,368.42L160.61,357.36L163.14,343.81L164.44,367.68L167.06,350.84L170.92,365.5L173.47,373.64L174.81,376.05L177.36,376.32L178.68,378.2L181.23,378.67L183.87,377.75L185.19,372.67L187.76,377.34L189,365.98L191.65,350.78L194.18,378.32L195.5,378.86L198.13,378.04L199.35,378.73L201.92,365.24L205.82,334.63L208.44,368.39L209.75,374.36L212.3,376.73L213.55,375.31L216.19,361.75L218.78,368.55L220.06,364.84L222.66,377.14L223.99,376.62L226.54,350.32L229.11,352.53L230.43,298.46L232.97,330.61L234.3,325.03L236.84,341.2L238.15,346.49L240.76,361.75L243.33,353.68L244.64,329.81L247.25,334.1L248.49,339.92L251.06,348.82L253.7,351.81L254.93,353.23L257.58,371.07L258.81,373.75L261.46,326.14L267.91,371.88L269.23,376.01L271.8,380.88L273.09,380.67L275.68,375.05L278.25,376.36L279.58,361.96L282.12,363.35L283.46,360.83L286.02,374.69L288.56,366.54L289.87,373.03L292.48,369.33L293.8,364.99L296.35,354.32L297.68,362.95L300.27,375.84L302.82,372.8L304.15,358.47L306.7,366.74L307.96,371.79L310.6,355.66L314.46,373.33L317,356.65L318.32,372.58L320.89,375.56L322.22,344.44L324.76,367.1L327.36,101.49L328.62,123.25L332.57,279.3L335.09,312.96L337.72,363.7L339.06,364.48L342.85,376.68L345.45,375L346.79,376.64L349.31,374.88L351.91,377.2L353.23,376.33L355.78,365.91L357.1,248.94L359.72,339.43L362.27,355.99L363.59,364.08L366.12,365.39L367.42,367.3L370.04,361.19L372.67,367.96L373.92,360.78L376.53,375.14L377.79,375.01L380.34,334.09L381.66,345.83L384.3,333.52L386.85,361.48L388.17,372.9L390.69,374.63L392.01,369.6L394.64,378.31L398.46,375.63L401.04,374.01L402.37,371.7L404.97,370.03L406.26,374.09L408.8,378.21L411.39,378.37L412.68,365.29L415.34,377.75L416.58,375.39L419.16,367.29L421.75,371.34L423.05,375.24L425.65,369.63L429.5,377.26L430.83,372.71L433.38,372.96L435.97,374.88L437.29,371.22L439.84,357.97L441.15,365.87L443.73,370.53L447.6,349.94L450.21,373.34L451.46,374.17L454.08,370.9L455.42,346.55L457.91,377L460.59,378.39L461.83,370.23L464.39,294.37L465.72,312.42L468.33,291.32L470.9,357.81L472.22,365.69L474.76,370.35L476.08,375.7L478.6,374.98L481.26,374.73L482.53,376.86L486.4,379.09L488.99,380.69L490.29,240.66L492.84,346.91L496.73,327.11L499.34,358.2L500.65,355.9L503.22,366.64L505.77,370.67L507.08,366.31L510.93,296.94L513.59,291L514.83,248.97L517.46,332.53L520.03,348.68L521.35,348.7L523.93,355.27L525.24,362.53L527.77,372.75L530.34,358.14L531.69,355.01L534.26,373.8L535.51,353.47L538.16,364.75L539.43,353.05L541.99,375.89L544.61,375.88L545.86,374.39L549.75,379.66L552.39,379.71L554.89,377.75L556.21,379.46L558.84,339.92L560.15,371.68L562.68,375.46L565.31,374.27L566.53,373.95L569.15,376.53L570.47,370.55L573.06,379.87L574.3,381.05L576.91,381.79L580.83,295.43L583.35,328.87L584.69,339.74L587.3,353.29L589.84,364.28L591.12,354.06L594.98,362.8L597.58,364.74L598.85,348.66L601.5,364.52L604.04,367.12L605.39,353.53L607.91,368.22L609.26,343.09L611.85,361.82L614.4,368.51L615.67,371.84L618.27,373.64L619.6,374.07L622.14,368.77L623.45,371.92L626,372.2L628.65,369.55L629.88,375.7L632.53,375.29L633.78,374.11L636.36,361.25L638.96,374.38L640.29,374.12L642.83,377.78L644.15,376.66L646.7,376.11L648.03,376.97L650.62,377.16L653.15,378.54L654.45,378.13L658.37,379.65L660.91,379.1L664.87,380.27L667.43,379.82L668.69,379.54L671.31,380.8L673.9,373.77L675.18,374.26L677.81,380.12L679.02,379.65L682.93,380.96L685.54,381.19L688.11,375.45L689.36,366.27L692,378.42L693.26,378.13L695.84,378.59L698.42,376.65L699.78,374.93L702.34,378.2L706.25,382.07L707.46,381.67L713.96,382.61L716.51,382.66L717.82,381.71L720.41,383.49L726.84,383.46L728.2,381.44L730.76,383.42L732.04,383.37L752.71,383.7L755.28,383.56L767.01,384.01L769.55,383.3L773.45,383.92L776.06,381.19L777.29,383.2L779.95,382.89L786.38,383.95L787.62,384.01L812.21,384.46L814.76,384.22L825.16,384.36L826.4,383.15L829.05,384.25L831.58,384.25L843.26,384.42L845.87,384.53L880.72,384.61L882.03,384.62L927.32,384.77L929.83,384.78L1021.68,384.98" style="vector-effect: none; fill: none; stroke: rgb(247, 163, 92); stroke-opacity: 1; stroke-width: 2px; opacity: 1;"/></g><g class="points"/><g class="text"/></g><g class="trace scatter trace659f60" style="stroke-miterlimit: 2; opacity: 1;"><g class="fills"/><g class="errorbars"/><g class="lines"><path class="js-line" d="M0,384.99L62.38,384.71L64.93,383.5L71.43,384.19L72.64,381.71L76.53,383.48L79.18,383.08L80.45,383.99L82.99,382.38L86.89,384.1L89.49,383L90.74,380.93L93.34,380.74L95.94,379.33L97.27,372.71L99.79,375.34L101.1,379.11L103.74,377.66L106.31,379.9L107.54,376.41L110.17,381.81L115.32,383L117.92,380.2L121.82,381.94L124.41,367.39L125.65,371.11L128.26,371.84L132.12,381.05L134.73,382.11L136.02,380.95L138.62,380.11L141.2,369.49L142.52,372.63L145.1,344.23L146.41,369.63L148.93,374.39L150.26,357.05L152.83,357.33L155.44,362.47L156.67,373.78L159.3,377.34L160.61,367.01L163.13,368.7L165.76,374.14L167.07,373.52L169.63,368.52L170.95,374.76L173.49,374.95L174.83,379.08L177.39,378.08L179.96,375.62L181.29,378.12L183.83,374.98L185.14,378.82L187.72,379.47L190.3,370.62L191.64,376.59L194.2,366.07L195.51,379.97L198.05,379.06L200.71,379.65L201.96,360.12L204.55,356.24L209.73,377.31L212.27,378.61L214.92,378.99L216.17,373.19L218.74,379.72L220.09,375.87L222.69,380.79L225.25,378.07L226.56,351.9L229.11,366.71L230.42,366.26L232.98,330.95L235.62,338.05L236.85,352.88L240.78,371.82L243.36,371.96L244.59,335.63L247.23,341.72L249.77,366.72L251.1,357.94L255.01,362.96L257.58,366.04L260.12,367.03L261.44,311.95L265.32,368.75L267.86,373.9L270.53,377.4L271.78,380.4L274.38,372.8L275.71,376.77L278.28,369.67L279.53,359.8L282.08,362.37L284.67,374.09L285.99,373.5L288.61,375.09L289.92,376.16L292.47,375.64L295.03,377.3L296.37,376.58L298.95,376.02L300.21,381.07L302.8,379.84L304.06,365.47L306.7,373.5L309.28,376.75L310.61,344.87L313.15,370.3L314.48,374.16L317.07,362.57L319.63,375.75L320.89,376.86L323.47,371L324.81,374.85L329.98,247.49L331.29,244.41L333.83,327.3L335.15,329.78L337.68,365.04L339,367.21L341.56,372.33L344.14,366.46L345.49,373.48L348.03,378.45L349.31,376.83L351.94,379.66L354.52,376.36L355.85,369.63L358.37,341.2L359.69,338.02L362.32,362.09L364.86,352.31L366.17,370.96L368.78,370.33L370,369.76L372.65,367.43L373.88,362.89L376.46,375.08L380.37,371.96L382.93,358.58L384.27,355.38L386.85,357.12L389.42,373.55L391.17,372.68L393.33,370.52L394.6,373.52L397.21,370.99L398.54,354.69L401.03,371.51L403.61,372.69L404.94,373.7L407.54,374.41L408.82,378.69L411.38,373.44L415.26,376.76L417.92,363.59L419.17,372.03L421.79,373.51L424.36,369.42L425.63,373.09L428.22,379.6L429.49,378.43L432.13,375.16L433.36,375.56L435.94,377.97L438.6,375.51L439.84,372.71L442.47,373.94L443.72,365.18L446.28,365.72L450.19,375.19L452.74,376.86L454.09,377.34L456.65,372.01L460.56,380.18L463.13,367.9L464.45,358.83L467.02,330.5L468.35,338.65L470.91,365.28L474.77,376.28L477.41,375.5L478.65,378.07L481.23,379.31L483.86,377.74L485.14,379.74L487.66,381.53L488.99,381.05L491.6,334.32L494.21,359.76L495.49,346.73L498.07,364.04L499.29,363.13L501.94,357.33L503.17,369.64L505.82,371.13L508.36,373.72L509.7,322.66L512.24,315.98L513.58,332.92L516.19,341.77L518.75,342.82L520,349.46L522.61,318.27L523.93,357.22L526.51,372.21L527.77,375.71L530.36,371.11L532.94,376.83L534.21,375.67L536.84,372.08L538.09,362.28L540.72,377.42L543.3,378.35L551.04,380.88L553.67,375.1L554.88,374.28L557.51,378.54L558.85,328.16L561.38,378.46L562.7,376.89L565.25,375.27L567.89,368.17L569.14,376.6L571.72,381.07L572.98,381.15L575.62,381.11L578.18,382.18L579.52,293.43L582.11,337.01L583.34,341.43L586,346.95L589.87,367.19L592.38,371.15L593.73,370.62L596.29,373.84L597.61,370.8L600.14,373.88L602.72,375.2L604.11,374.7L606.6,360.26L607.93,372.1L610.55,374.49L613.14,374.3L616.94,375.87L618.31,377.46L620.83,374.91L623.47,378.7L624.79,377.59L627.34,359.3L628.64,373.04L631.2,378.57L632.54,380.08L635.12,378.01L637.71,374.02L638.95,378.38L641.6,378.5L642.82,380.41L645.39,379.6L648.04,379.96L657.05,381.31L659.65,381.55L663.59,382.09L666.1,382.05L670.04,382.19L672.63,354.49L673.88,364.8L676.47,379.28L677.78,379.48L680.3,381.64L686.82,382.21L688.07,359.86L690.72,375.75L691.97,377.93L694.57,380.1L697.13,374.61L698.46,375.96L701.03,377.19L702.3,379.18L704.91,380.91L708.76,383.02L711.35,382.99L715.3,383.37L717.83,382.47L719.12,383.26L721.67,383.76L726.92,383.89L729.46,383.72L737.19,384.04L739.85,383.9L751.44,384.12L754.01,384.14L770.8,383.52L772.16,384.16L774.72,382.47L777.31,383.73L785.07,384.2L786.32,384.26L823.83,384.6L826.41,384.49L854.92,384.67L856.15,384.65L897.55,384.74L900.13,384.78L991.94,384.78L994.49,384.73L1022.92,384.98" style="vector-effect: none; fill: none; stroke: rgb(128, 133, 233); stroke-opacity: 1; stroke-width: 2px; opacity: 1;"/></g><g class="points"/><g class="text"/></g><g class="trace scatter traced59ddd" style="stroke-miterlimit: 2; opacity: 1;"><g class="fills"/><g class="errorbars"/><g class="lines"><path class="js-line" d="M0,384.98L62.32,384.76L64.94,383.59L66.21,382.89L68.82,383.88L72.71,383.29L75.24,383.92L80.41,383.89L82.99,382.89L90.81,384.07L93.39,381.47L95.91,371.16L97.23,375.24L101.08,379.65L103.73,380.55L106.28,378.33L107.58,378.25L110.14,382.22L111.48,380.95L115.31,382.9L117.88,381.41L120.48,381.09L121.83,382.69L124.4,373.04L125.71,376.6L128.24,377.08L130.88,379.85L132.14,382.36L134.69,379.55L136.04,376.83L138.59,377.74L145.03,368.17L146.33,376.19L148.95,359.74L150.22,358.1L155.46,375.43L156.68,375.64L159.33,327.17L160.56,355.56L163.17,367.84L165.79,370.84L167.01,359.05L169.65,370L173.51,377.48L174.85,377.41L177.41,378L179.97,369.74L181.3,365.82L183.83,380.77L185.17,379.68L187.74,381.32L190.34,374.76L191.66,376.96L194.21,377.3L195.52,378.68L198.05,377.59L200.64,378.8L201.98,347.92L204.79,343.94L205.85,363.46L208.47,376.99L209.77,378.37L212.3,378.8L214.92,365.22L216.16,362.76L220.03,375.04L222.6,375.42L225.23,346.82L226.57,361.29L229.13,360.94L230.44,324.22L233,339.28L235.54,358.72L236.84,355.85L239.48,371.01L240.71,376.02L243.29,348.02L244.6,355.15L247.23,347.14L249.8,372.55L251.05,354.7L253.72,368.49L254.98,365.29L257.57,363.45L260.11,322.17L264.03,372.1L265.34,374.79L267.9,378.28L270.51,378.94L271.76,378.74L274.41,377.4L275.65,378.94L278.21,364.64L279.52,372.25L282.11,367.53L284.72,373.88L286.03,330.09L288.56,374.66L289.89,375.44L292.45,372.07L295.02,375.87L296.35,354.74L298.92,374.86L300.24,370.92L302.85,375.32L304.1,372.27L306.69,377.5L309.27,334.23L310.58,368.01L313.12,375.1L314.46,373.45L316.99,371.88L319.66,377.38L320.9,376.69L323.46,368.85L324.77,371.1L327.35,223.45L331.29,320.6L333.82,335.98L335.14,351.62L337.69,368.58L339.02,373.5L341.59,376.95L344.18,371.69L345.44,375.49L348.11,376.48L349.37,369.91L351.92,376.67L354.55,364.77L355.78,320.64L358.4,348.18L359.74,367.88L362.3,366.06L364.85,371.9L366.17,372.08L368.72,367.74L370.05,370.8L372.62,367.22L373.96,372.12L376.46,377.68L379.13,333.93L380.35,326.12L382.99,344.05L384.22,361.57L386.81,375.43L389.43,378.35L390.7,376.71L393.34,375.98L394.62,378.65L397.23,376.61L398.49,378.3L401.03,375.92L403.69,371.33L404.93,377.23L407.56,379.39L408.78,380.75L411.38,367.2L414.01,378.17L415.33,363.7L417.92,372.92L419.17,373.66L421.74,372.44L424.3,373.81L425.65,376.38L428.21,377.33L429.54,367.57L432.08,374.35L433.41,377.17L435.97,369.26L438.6,367.42L439.82,371.13L442.4,367.81L443.76,372.62L446.31,376.36L448.94,375.49L452.77,375.46L454.13,370.41L456.63,377.3L459.28,377.57L460.5,349.19L463.17,309.37L464.41,336.15L467.01,321.62L468.32,341.94L470.87,364.6L473.51,366.67L474.74,370.4L477.34,377.47L478.69,377.89L481.24,375.8L483.85,380.11L485.12,380.06L487.73,381.07L488.96,359.17L491.63,355.52L494.16,315.78L495.5,343.41L498.06,358.62L499.36,360.18L501.92,363.9L503.26,364.11L505.84,372.16L508.41,337.95L509.7,320.46L512.29,337.95L513.57,333.51L516.12,328.48L518.7,357.68L520.04,361.93L522.62,363.76L523.87,371.16L526.51,374.75L527.77,374.26L532.92,374.22L534.2,371.21L536.83,366.15L538.11,375.79L540.68,379.24L543.27,378.13L547.15,380.77L548.46,381.73L551.08,378.85L553.61,379.83L554.89,379.52L557.53,355.61L558.83,367.74L561.42,376.78L562.66,368.7L565.32,373.45L567.84,379.17L569.18,379.26L573.01,382.01L575.62,381.84L578.24,281.63L579.46,328.69L582.05,346.55L583.37,346.84L588.5,366.64L589.86,366.79L592.42,370.77L593.7,371.06L596.35,356.73L597.6,373.29L600.17,373.14L602.81,375.98L604.05,367.24L606.61,364.95L607.97,365.78L610.54,372.34L616.95,377.45L618.28,377.22L620.82,376.07L623.46,377.55L624.7,377.83L627.36,376.43L628.59,378.85L631.18,379.09L632.55,377.41L635.06,376.67L637.65,378.84L639,378.27L641.55,380.62L642.8,380.52L648.02,380L649.29,380.94L651.88,380.33L653.17,380.99L657.08,381.72L659.69,381.3L663.51,381.82L666.16,382.09L667.42,381.77L670.05,366.03L673.87,373.76L676.48,382.11L682.9,382.14L684.25,382.46L686.83,373.49L688.08,379.02L691.96,379.56L694.6,370.67L697.16,376.46L698.48,376.97L702.34,381.92L704.95,382.73L711.33,382.82L712.64,383.28L715.3,381.91L717.84,383.18L723.05,383.72L725.64,381.68L726.89,383.48L729.51,383.82L753.99,384.3L756.62,383.92L768.27,383.87L770.88,384.22L772.09,376.74L774.77,383.56L778.57,383.91L781.21,383.98L791.5,384.4L792.82,384.39L821.23,384.61L823.87,382.74L826.42,384.27L827.77,384.16L844.57,384.65L847.13,384.66L904.06,384.8L906.61,384.77L1022.93,384.98" style="vector-effect: none; fill: none; stroke: rgb(241, 92, 128); stroke-opacity: 1; stroke-width: 2px; opacity: 1;"/></g><g class="points"/><g class="text"/></g></g></g></g><path class="xlines-above crisp" d="M0,0" style="fill: none;"/><path class="ylines-above crisp" d="M0,0" style="fill: none;"/><g class="overlines-above"/><g class="xaxislayer-above"><g class="xtick"><text text-anchor="middle" x="0" y="451" transform="translate(190.22,0)" style="font-family: 'Lucida Grande', 'Open Sans', verdana, arial, sans-serif; font-size: 10px; fill: rgb(0, 0, 0); fill-opacity: 1; white-space: pre; opacity: 1;">500</text></g><g class="xtick"><text text-anchor="middle" x="0" y="451" style="font-family: 'Lucida Grande', 'Open Sans', verdana, arial, sans-serif; font-size: 10px; fill: rgb(0, 0, 0); fill-opacity: 1; white-space: pre; opacity: 1;" transform="translate(319.51,0)">1000</text></g><g class="xtick"><text text-anchor="middle" x="0" y="451" style="font-family: 'Lucida Grande', 'Open Sans', verdana, arial, sans-serif; font-size: 10px; fill: rgb(0, 0, 0); fill-opacity: 1; white-space: pre; opacity: 1;" transform="translate(448.8,0)">1500</text></g><g class="xtick"><text text-anchor="middle" x="0" y="451" style="font-family: 'Lucida Grande', 'Open Sans', verdana, arial, sans-serif; font-size: 10px; fill: rgb(0, 0, 0); fill-opacity: 1; white-space: pre; opacity: 1;" transform="translate(578.09,0)">2000</text></g><g class="xtick"><text text-anchor="middle" x="0" y="451" style="font-family: 'Lucida Grande', 'Open Sans', verdana, arial, sans-serif; font-size: 10px; fill: rgb(0, 0, 0); fill-opacity: 1; white-space: pre; opacity: 1;" transform="translate(707.39,0)">2500</text></g><g class="xtick"><text text-anchor="middle" x="0" y="451" style="font-family: 'Lucida Grande', 'Open Sans', verdana, arial, sans-serif; font-size: 10px; fill: rgb(0, 0, 0); fill-opacity: 1; white-space: pre; opacity: 1;" transform="translate(836.68,0)">3000</text></g><g class="xtick"><text text-anchor="middle" x="0" y="451" style="font-family: 'Lucida Grande', 'Open Sans', verdana, arial, sans-serif; font-size: 10px; fill: rgb(0, 0, 0); fill-opacity: 1; white-space: pre; opacity: 1;" transform="translate(965.97,0)">3500</text></g></g><g class="yaxislayer-above"><g class="ytick"><text text-anchor="end" x="56" y="3.5" transform="translate(0,435)" style="font-family: 'Lucida Grande', 'Open Sans', verdana, arial, sans-serif; font-size: 10px; fill: rgb(0, 0, 0); fill-opacity: 1; white-space: pre; opacity: 1;">0</text></g><g class="ytick"><text text-anchor="end" x="56" y="3.5" style="font-family: 'Lucida Grande', 'Open Sans', verdana, arial, sans-serif; font-size: 10px; fill: rgb(0, 0, 0); fill-opacity: 1; white-space: pre; opacity: 1;" transform="translate(0,368.47)">2B</text></g><g class="ytick"><text text-anchor="end" x="56" y="3.5" style="font-family: 'Lucida Grande', 'Open Sans', verdana, arial, sans-serif; font-size: 10px; fill: rgb(0, 0, 0); fill-opacity: 1; white-space: pre; opacity: 1;" transform="translate(0,301.93)">4B</text></g><g class="ytick"><text text-anchor="end" x="56" y="3.5" style="font-family: 'Lucida Grande', 'Open Sans', verdana, arial, sans-serif; font-size: 10px; fill: rgb(0, 0, 0); fill-opacity: 1; white-space: pre; opacity: 1;" transform="translate(0,235.4)">6B</text></g><g class="ytick"><text text-anchor="end" x="56" y="3.5" style="font-family: 'Lucida Grande', 'Open Sans', verdana, arial, sans-serif; font-size: 10px; fill: rgb(0, 0, 0); fill-opacity: 1; white-space: pre; opacity: 1;" transform="translate(0,168.86)">8B</text></g><g class="ytick"><text text-anchor="end" x="56" y="3.5" style="font-family: 'Lucida Grande', 'Open Sans', verdana, arial, sans-serif; font-size: 10px; fill: rgb(0, 0, 0); fill-opacity: 1; white-space: pre; opacity: 1;" transform="translate(0,102.33)">10B</text></g></g><g class="overaxes-above"/></g></g><g class="polarlayer"/><g class="smithlayer"/><g class="ternarylayer"/><g class="geolayer"/><g class="funnelarealayer"/><g class="pielayer"/><g class="iciclelayer"/><g class="treemaplayer"/><g class="sunburstlayer"/><g class="glimages"/><defs id="topdefs-4822c8"><g class="clips"/></defs><g class="layer-above"><g class="imagelayer"/><g class="shapelayer"/></g><g class="infolayer"><g class="g-gtitle"><text class="gtitle" x="550" y="25" text-anchor="middle" dy="0em" style="opacity: 1; font-family: 'Lucida Grande', 'Open Sans', verdana, arial, sans-serif; font-size: 20px; fill: rgb(42, 63, 95); fill-opacity: 1; white-space: pre;"><tspan class="line" dy="0em" x="550" y="25">Total Ion Chromatograms</tspan><tspan class="line" dy="1.3em" x="550" y="25">​<tspan style="font-size:70%" dy="-0.6em">6 samples</tspan><tspan dy="0.42em">​</tspan></tspan></text></g><g class="g-xtitle"><text class="xtitle" x="573.5" y="472.3" text-anchor="middle" style="opacity: 0.3; font-family: 'Lucida Grande', 'Open Sans', verdana, arial, sans-serif; font-size: 14px; fill: rgb(0, 0, 0); fill-opacity: 1; white-space: pre;">Retention Time (min)</text></g><g class="g-ytitle"><text class="ytitle" transform="rotate(-90,22.00625,242.5)" x="22.00625" y="242.5" text-anchor="middle" style="opacity: 0.3; font-family: 'Lucida Grande', 'Open Sans', verdana, arial, sans-serif; font-size: 14px; fill: rgb(0, 0, 0); fill-opacity: 1; white-space: pre;">Ion Count</text></g></g></svg>