<svg class="main-svg" xmlns="http://www.w3.org/2000/svg" xmlns:xlink="http://www.w3.org/1999/xlink" width="2200" height="1000" style="" viewBox="0 0 1100 500"><rect x="0" y="0" width="1100" height="500" style="fill: rgb(255, 255, 255); fill-opacity: 1;"/><defs id="defs-355f68"><g class="clips"><clipPath id="clip355f68xyplot" class="plotclip"><rect width="1017" height="385"/></clipPath><clipPath class="axesclip" id="clip355f68x"><rect x="68" y="0" width="1017" height="500"/></clipPath><clipPath class="axesclip" id="clip355f68y"><rect x="0" y="50" width="1100" height="385"/></clipPath><clipPath class="axesclip" id="clip355f68xy"><rect x="68" y="50" width="1017" height="385"/></clipPath></g><g class="gradients"/><g class="patterns"/></defs><g class="bglayer"/><g class="layer-below"><g class="imagelayer"/><g class="shapelayer"/></g><g class="cartesianlayer"><g class="subplot xy"><g class="layer-subplot"><g class="shapelayer"/><g class="imagelayer"/></g><g class="minor-gridlayer"><g class="x"/><g class="y"/></g><g class="gridlayer"><g class="x"><path class="xgrid crisp" transform="translate(195.47,0)" d="M0,50v385" style="stroke: rgb(0, 0, 0); stroke-opacity: 0.05; stroke-width: 1px;"/><path class="xgrid crisp" transform="translate(324,0)" d="M0,50v385" style="stroke: rgb(0, 0, 0); stroke-opacity: 0.05; stroke-width: 1px;"/><path class="xgrid crisp" transform="translate(452.53,0)" d="M0,50v385" style="stroke: rgb(0, 0, 0); stroke-opacity: 0.05; stroke-width: 1px;"/><path class="xgrid crisp" transform="translate(581.07,0)" d="M0,50v385" style="stroke: rgb(0, 0, 0); stroke-opacity: 0.05; stroke-width: 1px;"/><path class="xgrid crisp" transform="translate(709.6,0)" d="M0,50v385" style="stroke: rgb(0, 0, 0); stroke-opacity: 0.05; stroke-width: 1px;"/><path class="xgrid crisp" transform="translate(838.13,0)" d="M0,50v385" style="stroke: rgb(0, 0, 0); stroke-opacity: 0.05; stroke-width: 1px;"/><path class="xgrid crisp" transform="translate(966.67,0)" d="M0,50v385" style="stroke: rgb(0, 0, 0); stroke-opacity: 0.05; stroke-width: 1px;"/></g><g class="y"><path class="ygrid crisp" transform="translate(0,369.98)" d="M68,0h1017" style="stroke: rgb(0, 0, 0); stroke-opacity: 0.05; stroke-width: 1px;"/><path class="ygrid crisp" transform="translate(0,304.95)" d="M68,0h1017" style="stroke: rgb(0, 0, 0); stroke-opacity: 0.05; stroke-width: 1px;"/><path class="ygrid crisp" transform="translate(0,239.93)" d="M68,0h1017" style="stroke: rgb(0, 0, 0); stroke-opacity: 0.05; stroke-width: 1px;"/><path class="ygrid crisp" transform="translate(0,174.9)" d="M68,0h1017" style="stroke: rgb(0, 0, 0); stroke-opacity: 0.05; stroke-width: 1px;"/><path class="ygrid crisp" transform="translate(0,109.88)" d="M68,0h1017" style="stroke: rgb(0, 0, 0); stroke-opacity: 0.05; stroke-width: 1px;"/></g></g><g class="zerolinelayer"><path class="yzl zl crisp" transform="translate(0,435)" d="M68,0h1017" style="stroke: rgb(0, 0, 0); stroke-opacity: 0.05; stroke-width: 2px;"/></g><g class="layer-between"><g class="shapelayer"/><g class="imagelayer"/></g><path class="xlines-below"/><path class="ylines-below"/><g class="overlines-below"/><g class="xaxislayer-below"/><g class="yaxislayer-below"/><g class="overaxes-below"/><g class="overplot"><g class="xy" transform="translate(68,50)" clip-path="url(#clip355f68xyplot)"><g class="scatterlayer mlayer"><g class="trace scatter trace6db5e2" style="stroke-miterlimit: 2; opacity: 1;"><g class="fills"/><g class="errorbars"/><g class="lines"><path class="js-line" d="M0,371.61L1.55,373.38L2.79,373.48L6.71,370.85L9.3,373.52L13.14,373.67L15.74,371.49L16.97,372.84L19.56,372.3L20.79,369.34L23.37,370.89L27.3,370.29L29.87,366.66L31.09,366.76L33.64,369.72L36.22,369.05L37.57,370.19L40.14,370.23L41.42,369.35L47.87,367.09L50.43,368.39L51.64,367.51L54.21,368.15L55.56,368.27L58.12,365.94L60.69,335.2L61.94,259.74L64.58,325.59L65.82,246.61L68.39,217.55L70.97,293.71L72.21,281.53L74.8,201.72L78.67,249.19L79.96,251.92L82.5,298.66L85.14,216.52L86.34,220.29L88.91,336.5L90.22,306.54L92.83,272.37L95.39,346.08L96.69,324.62L99.22,305.52L100.54,303.58L105.62,309.13L106.94,292L109.48,344.06L110.79,324.44L113.34,274.26L114.68,317.78L119.79,249.41L121.13,324.45L124.95,346.68L127.47,288.39L130.12,254.12L131.36,261.13L133.92,259.5L135.18,286.42L137.84,308.1L140.37,311.63L141.68,329.6L144.18,330.73L145.48,322.11L148.03,333.12L149.35,326.52L151.97,328.34L154.49,329.91L155.81,312.94L158.34,348.42L159.65,322.09L162.26,319.47L164.79,308.2L166.09,287.26L168.64,285.42L172.52,230.8L173.76,302.23L176.31,273.53L178.95,310.47L180.26,322.19L182.81,299.18L184.03,287.14L186.61,273.73L189.19,346.18L190.5,350.78L193.03,329.66L194.33,300.2L196.97,203.41L199.52,319.65L200.77,301.75L203.37,285.78L204.61,251.93L207.21,295.75L208.53,318.86L211.07,265.02L213.6,335.47L214.9,316.45L217.53,289.68L218.75,262.62L223.94,315.7L225.16,294.26L227.78,355L229.08,335.29L231.62,336.67L234.24,304.72L235.46,321.2L238.08,338.38L241.91,288.79L243.23,320.25L245.78,270.46L248.35,316.7L249.58,275.25L252.15,264.07L253.48,270.14L256.02,328.42L258.64,339.64L259.94,332.16L263.77,266.92L266.33,223.18L268.94,288.66L270.17,251.38L274.06,300.94L276.62,255L277.85,269.58L280.43,241.48L283.07,363.63L284.28,346.76L288.2,298.62L290.73,254.43L293.32,259.79L294.65,301.28L297.21,261.39L298.45,207.81L301.02,285.49L302.34,244.19L304.92,273.11L307.45,280L308.78,293.7L311.31,269.49L312.63,335.72L315.16,247.59L317.74,278.72L319.05,273.68L321.6,360.62L322.92,361.34L325.45,355.78L328.04,341.48L329.33,315.03L331.85,294L333.16,274.3L335.7,292.36L339.59,230.81L342.19,209.32L343.45,180.87L345.98,298.61L347.34,301.18L349.91,299.34L352.44,351.51L353.74,323.16L356.27,295.64L357.59,325.22L360.13,336.45L362.74,308.37L364.05,295.3L366.6,296.26L367.91,236.82L370.4,276.12L371.77,195.75L374.32,299.25L376.84,337.42L378.18,293.9L380.77,275.93L382.01,278.48L384.58,264.98L387.13,308.87L388.44,273.64L391,266.29L392.33,288.96L394.89,211.25L396.14,249.54L398.72,281.09L401.25,285.87L402.56,263.17L405.16,184.24L406.44,212.41L409.01,320.89L411.56,295.09L415.43,219.66L416.67,237.47L419.26,156.29L421.89,253.85L423.12,263.15L425.76,297.83L426.98,309.72L429.53,234.08L430.87,241.75L433.43,287.93L435.96,286.47L437.27,276.43L439.82,284.57L441.15,226.54L443.68,211.71L446.27,213.87L447.52,130.17L450.15,226.99L451.39,255.81L453.97,260.1L456.52,289.67L457.82,338.84L460.39,326.73L461.7,285.96L465.57,294.72L468.13,322.85L470.74,259.72L471.97,253.63L478.39,177.86L480.95,103.38L482.25,90.05L484.89,216.76L486.15,309.98L488.71,202.06L492.54,340.37L495.14,300.86L496.36,291.35L499.01,236.45L500.25,318.6L502.87,290.22L505.45,289.55L506.71,304.79L509.28,238.03L510.53,300.04L513.16,310.8L515.72,281.63L516.96,287.9L519.58,273.96L520.81,217.2L523.4,184.33L524.69,133.95L527.22,143.61L529.8,153.05L531.07,240.66L533.79,261.83L534.96,207.8L537.55,195.63L540.06,227.95L541.45,207.39L543.98,72.74L545.2,178.96L547.87,190.37L550.37,150.13L551.67,236.97L554.24,353.38L555.55,326.2L558.09,306.9L559.41,303.72L561.97,274.28L564.55,230.91L565.8,171.59L568.41,180.02L569.69,179.86L572.23,213.96L574.82,317.64L576.14,297.08L578.64,288.58L579.96,244.56L582.48,183.9L585.1,237.56L586.35,153.16L588.97,221.1L590.22,127.86L592.76,252.17L594.13,226.3L596.7,244.01L600.47,325.2L603.05,249.66L604.42,316.38L606.91,220.95L609.55,194.55L610.81,233.57L613.34,345.76L614.65,361.94L619.79,291.21L621.11,286.5L623.63,300.42L624.95,277.82L627.52,289.65L628.84,269.13L631.32,261.15L633.92,305.79L635.24,321.77L637.76,312.42L639.06,283.94L641.63,285.41L644.21,202.91L645.49,231.05L648.12,206.29L649.38,163.85L653.25,206.72L655.81,58.13L658.35,279.31L659.67,266.37L662.2,248.35L663.46,205.92L666.11,303.97L668.61,255.24L672.48,135.69L673.77,189.86L676.35,230.28L678.9,289.01L680.23,316.1L682.79,294.26L686.59,214.47L687.95,248.86L690.49,301.88L693.05,305.37L694.36,232.82L696.92,190.08L698.18,245.4L700.81,150.14L703.38,109.83L704.6,140.24L708.54,67.3L711.04,54.87L713.61,234.93L714.89,263.77L717.48,283.1L718.75,261.32L721.38,261.32L722.65,216.16L725.17,186.78L727.77,180.63L729.06,190.99L731.66,237.96L735.48,149.14L738.06,106.83L739.31,97.76L741.88,137.82L743.22,110.91L745.81,183.46L747.01,171.31L749.66,170.21L753.46,246.11L756.05,123.86L757.31,154.28L759.91,174.4L762.45,245.3L763.72,196.17L766.37,255.98L767.63,328.21L770.15,195.36L772.72,212.91L774.01,222.8L776.65,196.48L777.87,304.02L780.47,206.06L781.7,167.94L784.29,256.18L786.88,253.7L788.16,208.98L791.99,269.32L794.59,285L798.43,155.98L801,169.26L802.36,258.39L804.86,197.95L807.41,155.51L808.75,153.34L815.16,292.07L816.43,296.42L819.04,331.78L821.61,305.89L825.46,285.66L826.76,266.64L829.29,261.2L831.92,248.43L833.14,229.28L835.79,264.89L837,311.02L839.6,253.48L842.14,242.07L843.49,230.56L846.03,299.56L847.34,279.07L849.84,244.85L851.19,239.42L853.76,219.03L856.27,238.23L857.61,218.25L860.16,199.72L861.43,217.22L864.01,217.87L866.64,150.59L867.9,165.95L870.48,192.57L871.68,262.93L874.33,258.22L875.56,254.22L878.13,315.64L880.76,286.38L881.98,277.64L884.56,251.49L885.91,251.13L888.43,244.03L890.98,238.98L892.34,203.42L894.85,214.6L896.15,241.12L898.77,257.82L901.33,207.96L902.63,179.95L905.16,190.42L906.49,200.41L909.04,228.82L910.32,256.39L912.81,264.78L915.42,241.77L916.69,210.01L919.23,198.14L920.56,216.42L923.16,248.62L925.74,194.01L926.96,224.17L929.52,216.08L930.83,210.18L933.48,213.83L936.02,200.04L937.24,204.18L939.86,278.07L941.11,236.79L943.72,245.22L945.01,219.39L947.57,219.75L950.08,224.46L951.4,219.2L954.04,233.74L955.25,224.88L957.88,226.87L960.4,251.4L961.69,240.08L964.31,247.15L965.52,237.76L968.13,240.66L969.44,319.67L971.99,287.6L974.51,281.9L975.88,244.48L978.42,238.58L979.73,241.81L982.26,230.98L986.11,204.84L988.65,259.39L990.02,247.45L992.55,186.05L995.09,192.88L996.42,206.01L998.98,204.05L1000.31,199.13L1004.17,258.17L1006.67,264.12L1009.28,282.98L1010.59,286.87L1013.09,290.54L1014.38,290.82L1016.99,358.6" style="vector-effect: none; fill: none; stroke: rgb(124, 181, 236); stroke-opacity: 1; stroke-width: 2px; opacity: 1;"/></g><g class="points"/><g class="text"/></g><g class="trace scatter trace22ee42" style="stroke-miterlimit: 2; opacity: 1;"><g class="fills"/><g class="errorbars"/><g class="lines"><path class="js-line" d="M0,371.8L1.56,372.1L2.79,373.11L6.73,369.7L9.32,372.69L13.15,372.63L15.74,373.09L20.86,367.7L23.43,370.33L26.03,366.69L27.27,369.12L29.85,364.36L31.09,366.26L33.64,369.87L36.23,369.93L37.57,370.23L40.17,369.17L41.4,366.36L43.96,369.08L47.87,369.35L50.43,367.3L51.67,369.08L54.25,369.38L55.6,366.92L58.17,369.38L60.63,326.13L61.97,236.72L64.56,286.42L65.85,266.99L68.39,253.67L69.69,300.53L72.23,300.4L74.79,230.6L76.09,282.09L78.64,266.08L79.92,255.33L82.51,275.23L85.16,214.97L86.4,219.02L88.98,349.55L90.21,293.45L92.82,315.91L95.37,346.13L96.67,324.72L99.2,301.7L100.51,296.94L103.07,310.88L104.4,322.83L106.92,317.22L109.47,334.73L110.78,330.96L113.33,264.76L114.68,312.22L117.21,301.87L119.8,248.56L121.04,293.77L123.69,336.68L124.92,340.71L127.53,295.46L128.76,296.21L131.32,244.77L133.98,281.81L135.22,274.55L139.04,318.22L141.68,328.39L144.19,330.73L145.49,308.15L148.04,327.55L149.35,313.71L151.98,328.09L153.2,328.22L155.81,336.4L158.32,356.19L159.61,332.57L162.21,317.54L163.51,318.6L166.03,306.07L168.66,282.13L169.89,279.24L172.53,248.25L173.76,290.75L176.39,262.37L177.62,293.85L180.25,328.44L182.78,245.82L184.11,305.24L186.67,264.96L187.92,280.53L190.47,343.75L193.09,310.1L194.32,309.27L198.22,210.29L200.81,337.55L203.32,341.48L204.67,326.51L207.16,257.73L208.51,259.17L211.09,316.06L212.31,284.17L214.88,311.08L217.5,273.96L218.74,238.88L221.32,302.63L222.64,321.97L225.18,295.6L227.81,343.57L229.02,337.45L231.65,309.08L232.87,312.5L235.46,310L236.77,312.46L239.32,231.13L241.87,334.57L243.17,301.47L245.73,279.84L247.07,264.95L249.62,304.09L252.18,259.86L253.5,252.06L257.34,336.29L259.94,342.85L266.3,254.55L267.63,215.53L270.21,290.94L271.44,260.83L274.01,286.78L276.65,289.72L277.86,262.4L280.5,229.98L284.3,357.64L286.9,323.78L288.19,307.03L290.73,295.65L292.04,262.71L294.61,282.31L295.93,288.03L298.47,282.06L301.02,257.06L302.36,312.71L304.9,248.31L306.13,249.49L308.79,261.09L311.36,292.18L312.6,271.98L315.13,301.04L316.44,246.59L319.02,255.2L320.35,266.61L322.9,331.12L325.5,367.02L326.74,360.19L330.62,323.14L333.13,310.41L335.75,303.26L337.06,296.83L339.61,218.71L340.86,220.8L343.47,142.76L344.75,156.55L347.28,320.06L349.87,316.48L351.18,311.76L353.7,349.07L355,315.65L357.63,278.35L360.16,273.6L361.49,335.45L364.01,312.62L365.31,290.89L367.87,294.09L370.42,276.27L371.75,267.33L374.33,170.2L375.6,282.64L378.13,337.39L379.47,305.19L381.98,284.79L384.63,287L385.82,299.23L388.47,316.01L389.7,311.92L392.26,257.87L394.85,233.17L396.19,224.63L398.69,200.65L400.04,276.2L402.57,257.94L403.9,184.51L406.44,156.16L408.98,311.06L410.29,316.22L412.82,240.25L414.15,259.04L416.75,185.71L419.26,93.14L420.55,133.37L423.18,270.49L424.41,299.69L426.96,309.72L428.26,289.13L430.83,263L433.39,325.26L434.69,325.58L437.3,281.93L438.53,234.41L441.11,217.85L443.74,245.38L444.99,228.03L447.6,130.67L448.89,193.87L451.38,227.62L452.73,172.33L455.23,310.2L457.85,321.12L459.15,314.81L461.7,312.25L463.02,269.35L465.59,273.66L468.13,288.68L469.45,310.73L472,233.01L473.24,254.44L475.84,155.72L479.72,239.75L482.22,113.35L483.51,49.45L486.1,218.91L487.36,316.49L490.01,244.97L492.52,289.55L493.86,335.77L500.25,226.78L502.81,309.03L504.11,289.93L506.7,290.79L507.95,312.24L510.51,254.84L511.87,301.69L514.39,268.11L516.98,243.42L518.23,292.65L520.87,235.52L522.13,261.84L524.69,185.5L527.24,190.38L528.59,176.74L531.13,294.31L532.35,254.75L534.93,228.53L536.71,213.87L538.86,218.49L542.7,165.53L545.25,180.84L546.53,188.62L549.08,84.52L553,282.72L555.57,342.71L556.77,312.26L559.41,309.82L561.96,251.11L563.21,244.72L569.71,170.41L570.99,240.74L573.53,186.87L576.07,317.74L579.99,268.74L581.24,263.86L583.82,173.44L586.34,240.34L587.71,180.8L590.24,134.96L591.54,179.87L594.09,202.93L595.36,267.69L597.92,247.93L600.47,316.89L601.77,325.28L604.33,254.82L605.69,292.1L608.18,204.63L610.81,218.82L612.07,216.5L614.68,335.32L615.91,348.08L618.5,287.41L619.82,288.65L622.37,305.61L626.25,245.29L628.84,270L630.08,258.96L632.68,198.94L635.2,307.86L636.51,313.87L639.09,253.27L640.34,286.38L642.9,217.24L644.17,217.89L646.81,174.59L649.37,110.22L650.69,96.48L653.19,174.56L654.47,133.14L657.07,19.25L659.6,260.34L660.96,230.53L663.52,227.04L664.78,141.75L667.4,278.87L669.93,206.2L671.22,106.09L673.76,199.16L675.07,246.64L677.64,197.27L678.94,252.29L681.46,326.64L685.36,248.28L687.89,266.52L689.23,341.06L691.76,314.1L694.31,269.34L695.64,222.05L698.2,190.09L699.48,155.06L702.11,171.88L703.36,90.84L705.97,101.28L708.49,64.09L712.35,210.23L713.66,206.92L716.17,241.77L718.78,232.86L720.1,216.14L722.61,236.91L723.88,143.03L726.45,140.25L727.79,131.2L730.31,175.68L732.93,205.88L734.22,134.07L736.76,129.81L738.01,67.1L740.67,176.64L743.15,104.4L744.52,57.06L747.02,87.36L748.37,153.92L750.93,104.83L753.48,205.7L754.81,150.79L757.37,157.47L758.59,200.63L761.23,165.25L762.45,239.58L765.07,233.33L767.58,295.25L768.92,273.34L771.49,188.2L772.74,186.94L775.3,181.96L777.93,275.02L779.2,191.87L781.77,202.77L783.08,234.6L785.58,235.99L786.88,225.78L789.44,189.54L792.06,240.12L793.29,264.56L795.92,215.25L797.16,197.5L799.76,143L802.28,261.59L803.57,217.88L806.17,187.06L807.5,134.41L811.29,219.35L813.84,271.9L816.44,294.57L817.76,339.51L820.29,328.94L821.61,315.56L824.19,315.63L826.71,292.41L830.56,259.33L831.87,236.97L834.44,216.28L836.99,305.88L840.91,279.21L842.12,273.7L846.06,290.31L848.61,241.19L852.45,197.61L855,168L856.28,165.45L858.88,146.75L862.77,215.48L865.29,133.53L866.53,117.3L869.21,131.02L870.41,214.28L873.04,231.26L875.56,249.8L876.82,282.85L879.47,298.77L880.68,282.85L883.32,262.65L885.89,251.09L887.14,232.82L889.76,224.64L891.02,217.77L893.57,198.09L894.87,174.36L897.39,238.74L899.99,179.6L901.31,206.61L903.92,160.8L905.16,179.48L907.68,182.4L910.27,247.18L911.54,264.37L914.15,276.68L917.96,172.31L919.3,181.08L921.84,206.35L924.4,202.66L925.72,199.97L928.27,192.6L929.59,201.09L932.1,239.85L934.68,194.06L936,187.52L938.6,284.75L939.84,238.28L942.42,223.87L945.02,200.46L946.23,211.87L948.85,210.58L950.17,224.5L952.7,215.51L956.55,220.43L959.08,221.56L960.39,237.09L963.03,218.86L964.22,234.46L966.86,237.98L969.44,336.96L970.66,319.04L973.25,293.46L974.59,288.05L978.42,253.56L981,232.7L987.39,184.24L988.72,215.28L991.32,164.06L993.8,172.58L995.14,187.24L997.73,202.25L998.95,205.69L1001.51,233.46L1005.45,255.97L1007.96,256.59L1009.28,277.01L1011.87,295.78L1013.08,286.74L1015.69,297.36" style="vector-effect: none; fill: none; stroke: rgb(67, 67, 72); stroke-opacity: 1; stroke-width: 2px; opacity: 1;"/></g><g class="points"/><g class="text"/></g><g class="trace scatter trace42fdd0" style="stroke-miterlimit: 2; opacity: 1;"><g class="fills"/><g class="errorbars"/><g class="lines"><path class="js-line" d="M0,366.53L1.55,367.22L2.9,365.93L6.73,366.2L9.32,368.03L11.9,364.41L13.13,365.51L17.01,362.48L19.59,366.04L20.82,364.24L23.41,364.4L27.27,364.52L29.85,357.95L31.09,363.28L33.65,364.07L37.56,366.5L40.12,364.36L41.37,364.12L43.94,361.18L47.84,362.36L50.39,360.04L51.72,362.69L54.3,364.72L55.53,364.3L58.12,365.8L60.69,312.16L61.92,261.41L64.49,303.49L65.83,270.39L68.39,262.68L70.93,285.57L72.28,295.27L74.87,208.77L76.09,257.16L78.68,220.06L80,279.48L82.55,236.33L85.06,212.28L86.39,175.57L88.95,309.61L90.19,295.11L95.36,345.85L96.67,330.13L100.49,304.04L103.13,297.9L105.66,330.27L106.97,325.66L110.82,340.38L113.33,285.43L114.65,305.89L117.27,291.03L119.84,287.83L121.06,367.49L123.67,342.42L124.96,340.25L127.49,305.93L130.06,243.2L131.34,203.66L133.9,267.91L137.78,332.91L140.41,313.59L141.64,347.93L144.26,328.01L145.48,298.06L148.05,331.82L149.35,311.25L151.96,307.25L154.48,340.25L155.8,345.58L158.33,343.49L159.63,323.11L162.23,332.49L164.76,289.31L166.08,319.38L168.6,289.27L169.92,274.24L172.47,306.05L173.79,273.8L176.34,267.19L178.89,320.9L180.2,311.05L182.75,299.53L184.06,297.45L186.65,285.56L189.22,357.84L190.51,330.97L193.11,342.6L194.32,308.63L196.88,306.33L199.49,294.42L200.75,298.07L203.36,248.98L204.65,243.81L207.25,335.3L208.46,308.23L211.01,354.32L213.62,331.76L217.47,276.69L218.79,302.57L221.35,306.05L223.9,303.91L225.22,351.92L227.75,344.24L229.04,332.72L231.65,335.39L235.47,331.35L238.07,324.81L239.38,317.28L241.92,279.97L243.24,287.14L245.81,258.07L248.29,305.52L249.61,284.65L252.23,279.46L253.46,296.41L256,328.76L258.63,342.96L263.76,262.71L266.32,196.04L268.89,302.61L270.21,239.59L272.78,295.6L274,303.28L276.64,249.78L277.87,307.26L280.5,311.76L283.01,359.65L284.3,338.59L286.89,324.17L290.77,262.69L293.37,240.21L294.62,321.52L297.16,178.78L298.43,276.17L301.07,292.69L302.3,259.15L304.86,305.15L307.51,298.39L308.72,332.44L311.35,328.11L312.56,314.03L315.18,240.4L317.75,297.15L319.06,350.98L321.63,365.52L322.85,358.2L325.48,348.09L329.3,311.09L331.92,324.77L335.74,269.76L337.06,204.53L339.58,236.81L342.2,162.73L343.46,147.71L346.05,335.31L347.28,307.99L349.91,332.64L352.44,338.35L353.75,310.35L356.29,300.2L357.61,328.95L360.14,343.07L362.75,309.69L364.06,305.21L366.6,253.55L367.83,282.14L370.4,251.19L371.75,204.38L374.27,352.99L376.89,298.64L378.11,290.73L380.7,261.41L381.97,271.9L384.63,265.46L387.11,305.67L388.43,266.71L391.02,281.91L392.34,226.42L394.82,209.19L396.18,214.88L398.77,293.59L401.3,270.98L402.61,217.17L405.13,234.39L406.46,294.51L408.98,295.66L411.61,269.84L412.84,269.72L415.4,201.72L416.67,251.26L419.27,241.98L421.85,269.41L423.17,300.69L425.71,310.96L427.03,301.43L429.58,183.12L430.84,253.59L433.4,343.86L436,297.45L437.31,255.24L439.86,237.04L441.1,205.08L443.72,209.43L446.24,194.86L447.52,229.72L450.14,229.39L451.38,233.6L453.98,280.78L456.52,347.65L457.82,341.88L460.38,267.31L461.74,258.35L464.26,298.7L465.59,266.99L468.13,295.42L470.66,223.02L472.02,259.42L474.52,223.81L475.88,221.27L478.36,179.28L481.04,167.81L482.31,81.4L484.79,320.87L486.12,298.45L488.67,228.23L491.27,330.14L492.57,335.38L496.41,283.07L498.98,295.28L500.29,302.77L502.82,293L505.42,283.04L506.66,312.72L509.23,240.19L510.59,326.3L513.1,283.84L515.66,260.03L517,273.97L519.51,216.54L520.87,247.71L523.37,192.36L524.73,163.03L527.28,145.97L529.8,267.98L531.13,252.13L533.72,268.72L534.97,192.7L537.53,182.15L540.06,226.71L541.36,183.92L543.97,187.8L545.21,230.62L547.82,121.46L550.39,228.83L551.65,343.2L554.27,337.93L555.48,300.41L558.12,319.76L559.35,293.93L564.57,204.06L565.83,198.29L568.34,185.57L569.62,219.74L572.21,222.76L574.81,320.02L578.63,292.11L579.94,256.24L582.56,292.69L585.05,190.16L586.34,253.31L588.95,172.78L590.21,210.35L592.82,261.13L594.06,323.69L596.68,229.59L599.27,330.59L600.49,292.26L603.09,236.92L604.36,281.97L606.93,214.63L609.54,247.76L610.78,196.51L613.41,345.09L614.61,344.83L617.25,323.27L621.08,292.18L623.7,284.02L624.92,276.33L627.48,290.56L628.8,254.83L631.4,242.31L633.96,324.36L635.19,322.08L637.81,298.23L639.03,300.08L644.17,219.39L645.54,216.29L649.35,164.66L651.92,227.59L653.19,222.33L655.78,134.57L658.41,272.26L659.64,221.64L662.18,227.41L663.53,180.73L666.09,281.48L668.6,170.42L669.9,161.28L672.47,241.66L673.82,258.38L676.35,229.39L680.19,343.37L682.76,295.19L686.6,232.84L687.95,338.8L690.51,316.53L693.02,269.44L694.36,255.1L696.89,201.57L698.18,194.17L700.79,149.23L703.31,126.38L704.65,127.69L707.16,95.04L708.65,188.64L711.09,186.07L713.67,236.6L714.92,261.73L717.49,268.03L718.75,250.48L721.38,246.16L722.64,158.67L725.16,189.01L727.81,179.28L729.08,242.76L731.59,223.89L732.87,162.9L735.47,171.47L738.09,91.68L739.33,119.96L741.86,122.99L743.21,104.03L745.78,170.06L747.09,155.26L749.59,95.97L752.19,214.72L753.49,207.62L756.03,173.25L757.35,220.71L759.94,167.91L762.45,243.18L763.72,200.55L766.31,297.11L767.56,322.62L770.16,229.28L772.74,225.4L774.06,209.82L776.6,173.26L777.85,229.4L780.44,217.38L781.76,236.57L784.35,274.79L786.9,246.92L788.17,197.37L790.73,286.67L792.01,256.16L794.64,263.13L797.14,202.12L798.48,190.19L801.03,163.95L802.37,200.37L804.91,154.73L807.5,147.14L808.74,141.2L811.33,218.68L812.64,274.4L815.18,289.56L819.01,338.24L821.56,304.63L822.93,309.48L825.48,289.31L829.27,259.31L831.88,257.33L833.15,242.42L835.69,317.02L836.98,309.29L839.55,270.91L842.15,272.15L843.45,267.43L846.03,297.61L847.31,269.1L851.16,192.81L853.76,195.74L857.62,132.88L860.11,135.58L861.41,186.11L864,151.91L866.62,99.9L867.85,120.98L870.47,191.75L871.75,257.06L874.29,284.99L875.64,262.25L878.15,307.37L880.75,269.08L882.03,268.57L884.54,243.29L885.88,225.92L888.4,225.48L890.96,218.04L892.33,204.25L894.84,221.77L896.1,192.61L898.68,219.86L901.27,152.54L902.6,163.61L905.17,130.87L906.39,153.52L909.05,182.68L910.24,255.69L912.81,254.28L915.38,219.93L916.74,189.31L919.27,165.13L920.61,191.94L923.11,252.88L925.67,178.05L926.99,191.96L929.6,198.53L930.9,232.87L933.44,188.1L937.33,167.57L939.88,283.62L943.74,209.94L945.04,173.01L947.61,204.28L950.14,194.08L951.47,183.67L953.99,189.31L955.34,204.11L957.88,186.33L960.37,251.35L961.65,209.42L964.24,210.78L965.56,219.32L968.17,229.46L969.37,324.27L974.56,273.84L975.82,262.13L979.69,227.93L982.3,216.45L984.81,195.6L986.14,176.38L988.65,216.37L989.94,223.45L992.57,153.72L995.14,137.62L998.95,180.98L1000.28,204.04L1002.82,233.48L1004.12,234.6L1006.72,241.74L1009.24,257.3L1010.55,271.78L1013.08,282.79L1014.38,277.05L1017,357.69" style="vector-effect: none; fill: none; stroke: rgb(144, 237, 125); stroke-opacity: 1; stroke-width: 2px; opacity: 1;"/></g><g class="points"/><g class="text"/></g><g class="trace scatter trace7a3dc2" style="stroke-miterlimit: 2; opacity: 1;"><g class="fills"/><g class="errorbars"/><g class="lines"><path class="js-line" d="M0,373.62L5.45,372.57L6.7,370.02L13.1,372.14L15.68,371.3L19.57,369.56L20.81,366.45L23.36,367.56L26.03,371.5L27.27,368.41L29.87,367.9L31.11,365.29L33.65,368.26L40.12,364.82L41.35,362.04L45.24,365.54L47.87,368.08L50.37,369.46L51.67,368.02L54.29,365.55L55.5,366.14L58.15,364.43L60.71,340.05L61.99,251.95L64.58,301.27L65.85,267.37L68.4,278.89L69.67,272.6L72.23,288.1L76.11,239.89L78.7,319.07L79.94,263.56L82.57,246.9L85.09,292.28L86.35,247.26L88.98,286.15L90.25,347.72L92.85,333.79L95.39,362.36L96.69,345.3L99.2,331.92L100.52,329.59L103.13,308.1L104.35,311.54L106.97,328.2L109.49,328.54L110.79,334L113.42,287.67L114.67,321.63L117.21,278.37L119.85,266.65L121.1,255.49L123.67,359.69L124.98,352.12L127.49,358.89L128.79,341.53L131.35,264.71L133.95,249.4L135.2,179.96L139.04,338.98L141.66,310.65L144.2,360.23L145.5,350.45L149.35,340.44L151.94,323.35L153.25,340.96L155.77,334.42L158.37,335.47L159.67,354.58L162.18,343.12L163.47,331.62L166.08,321.02L168.61,297.26L169.92,287.36L172.45,259.25L173.78,267.12L176.32,294.66L177.63,281.43L180.17,294.88L182.79,296.32L184.11,306.74L186.66,297.45L187.89,305.67L190.52,356.52L193.04,330.93L194.35,326.24L196.97,301.79L198.18,272.81L200.73,300.65L203.31,351.35L204.61,330.29L207.21,301.38L208.52,256.01L211.05,316.72L212.3,306.48L214.92,352.72L217.49,308.27L218.77,294.58L221.35,312.54L222.67,313.27L225.21,319.58L227.76,356.52L229.08,352.86L232.93,329.08L235.45,331.15L236.75,333.05L239.35,277.86L241.9,348.2L243.2,346.91L245.8,311.48L247.03,320.58L249.58,314.58L252.22,291L253.44,284.93L256.07,318.42L257.29,288.7L259.92,359.07L261.22,351.74L263.74,333.01L267.65,282.13L270.21,185.02L274.06,267.15L276.62,278.92L277.94,296.32L280.46,269.68L281.8,273.9L284.34,341.97L286.87,330.24L288.17,319.37L290.77,300.53L292.08,303.64L294.61,314.03L295.93,282.37L298.51,289.01L301.04,260.73L302.37,306.21L304.91,242.75L306.16,306.35L308.78,304.2L311.29,312.51L312.62,278.6L315.15,307L316.45,275.55L319.01,255.23L320.33,312.08L322.86,347.04L325.44,365.52L326.7,365.81L329.32,360.22L333.13,332.65L335.74,285.78L337.07,293.29L339.59,247.78L340.84,219.87L343.42,228.13L344.76,184.92L347.26,312.6L349.84,311.2L351.16,319.39L353.7,348.08L355,348.3L357.61,301.1L360.14,303.98L361.46,338.15L363.97,325.43L367.87,309.82L370.49,273.35L371.72,238.82L374.32,221.47L375.58,294.17L378.11,329.71L379.42,302.37L382.05,300.56L384.58,291.27L385.89,300.53L388.4,296.61L389.71,330.94L392.32,247.9L394.9,264.5L396.12,245.63L398.69,250.64L400.01,280.83L402.6,251.6L403.88,202.21L406.41,178.99L408.98,258.35L410.26,326.05L412.9,232.82L414.14,236.89L416.7,237.81L419.28,134.94L420.57,77.83L423.15,228.56L424.41,277.15L426.98,279.09L428.3,300.25L430.84,304.08L433.41,327.66L434.73,322.08L437.26,333.08L438.56,281.28L441.13,254.26L443.73,207.13L444.98,274.32L447.56,231.18L448.81,174.29L451.41,235.57L452.75,266.13L455.23,289.41L457.88,257.92L459.12,320.49L461.66,324.96L462.99,283.29L465.58,310.81L468.13,298.86L469.45,307.35L471.98,260.41L473.29,216.98L475.79,228.71L478.44,174.23L479.7,207.52L482.31,233.63L483.55,163.88L486.12,162.27L487.41,321.5L489.95,233.1L492.57,281.51L493.81,317.5L496.42,319.81L497.72,325.02L500.27,263.86L502.8,308.39L504.11,272.72L506.69,299.28L507.93,300.35L510.57,315.04L511.81,338.76L514.42,279.4L516.98,280.83L518.29,265.91L520.85,307.82L522.16,238.29L524.68,263.69L527.23,223.91L528.57,231.12L531.13,226.05L532.37,228.64L536.27,276.08L538.81,214.82L541.42,212.22L542.66,196.12L545.23,152.37L546.52,178.01L549.15,141.07L551.64,120.94L552.94,158.13L555.56,361.46L556.86,338.92L559.38,314.82L561.99,302.68L563.21,285.11L565.81,225.31L567.12,264.69L569.7,187.47L570.93,228.47L573.52,213.77L576.08,319L581.26,242.19L583.85,201.77L586.38,203.56L587.66,292.12L590.23,238.33L591.49,139.17L594.07,201.8L595.34,316.72L597.97,227.64L600.49,251.46L601.83,321.85L604.35,273.6L605.69,299.86L608.26,220.09L610.8,223.01L612.06,257.01L614.64,338.81L615.96,332.54L618.49,341.53L619.79,321.29L622.33,312.58L624.96,297.64L628.82,260.88L630.06,274.23L632.62,264.19L635.21,329.34L636.53,325.97L639.06,310.24L640.37,311.91L642.91,277.94L644.23,270.95L646.81,241.22L649.32,158.09L650.61,154.69L653.21,152.29L654.51,248.44L657.03,167.36L659.6,136.77L660.97,267.22L663.52,248.72L664.77,262.71L667.37,214.41L669.95,231.87L671.22,182.85L673.83,160.58L675.03,210.03L677.67,258.46L678.93,250.84L684.07,327.24L685.32,325.1L689.19,242.65L691.76,326.93L694.32,247.18L695.67,282.26L698.22,252.83L699.46,211.06L703.31,166.03L705.91,118.86L708.5,211.04L709.78,86.27L712.31,171.87L713.61,276.65L716.19,244.41L718.73,283.53L720.07,273.68L722.58,226.94L723.93,254.45L726.48,223.19L727.75,142.08L730.34,151.6L732.94,208.6L734.21,290.62L736.78,137.66L738.06,153.97L740.58,195.23L743.21,144.17L744.45,186.04L747.05,129.85L748.29,110.25L750.85,167.06L753.46,156.31L754.77,204.67L757.37,140.09L758.58,158.73L761.22,243.83L762.52,204.22L765.04,252.53L767.59,197.11L768.91,162.4L771.51,327.91L772.73,258.24L775.37,287.57L779.19,164.69L781.77,178.19L783,141.52L785.64,250.37L786.92,264.46L789.47,251.81L792.04,260.82L793.32,271L795.84,264.09L797.16,251.98L802.29,217.84L803.61,235.86L806.22,206.99L807.45,217.7L809.99,168.1L811.35,203.12L813.87,277.63L816.44,296.45L817.71,301.95L820.32,321.48L821.56,342.32L824.19,313.48L826.7,301.43L828.07,289.61L831.83,267.61L834.44,228.55L836.98,233.28L838.31,291.46L840.91,313.75L842.19,300.2L844.77,283.9L846.06,295.2L848.55,252.67L851.17,224.09L852.43,205.36L855.04,203.52L856.3,187.65L858.83,166.72L861.4,170.78L862.69,187.29L865.27,264.12L866.6,239.74L870.4,208L873.06,220.42L875.55,268.25L876.86,263.46L880.75,306.13L883.27,284.11L885.91,263.09L887.14,259.43L889.7,235.8L891.06,215.04L893.59,220.77L894.85,201.68L897.43,181.93L900.02,276.15L901.33,271.93L903.84,192.85L905.14,165.1L907.69,165.32L910.24,180.46L911.56,237.3L914.19,259.72L915.48,253.5L918.04,232.68L919.26,205.1L921.88,205.46L924.38,244.08L925.77,193.14L928.32,212.09L929.52,195.74L932.18,182.89L934.66,282.21L936.01,229L938.52,199.94L939.84,208.32L942.48,215.35L945,204.38L946.33,216.1L948.82,213.3L950.14,208.67L952.67,213.93L953.99,212.06L956.55,209.91L959.19,228.26L960.39,219.23L962.96,263.84L964.32,264.52L966.88,239.58L969.4,230.36L970.71,209.58L973.23,333.53L977.11,295.67L978.45,288.65L980.98,263.1L983.51,223.77L984.85,221.31L987.38,207.15L988.71,239.24L991.27,214.18L993.82,206.99L995.13,174.35L997.72,222.55L998.93,213.77L1001.58,226.27L1002.79,249.75L1005.4,284.48L1007.99,287.95L1009.29,308.33L1011.79,318.48L1013.1,319.36L1015.69,322.92" style="vector-effect: none; fill: none; stroke: rgb(247, 163, 92); stroke-opacity: 1; stroke-width: 2px; opacity: 1;"/></g><g class="points"/><g class="text"/></g><g class="trace scatter trace72ea4d" style="stroke-miterlimit: 2; opacity: 1;"><g class="fills"/><g class="errorbars"/><g class="lines"><path class="js-line" d="M0,373.88L1.57,371.71L2.88,372.03L5.47,372.87L6.7,374.47L11.89,373.21L13.13,373.83L15.74,372.48L16.97,373.04L19.54,372.87L20.79,370.28L23.37,371.83L25.95,370.56L27.3,369.97L29.88,370.49L31.12,369.45L33.67,370.45L36.26,369.06L37.49,367.19L40.17,367.21L41.4,366.41L43.96,367.37L46.54,366.81L47.86,367.85L50.43,364.46L51.67,367.4L54.25,367.38L55.6,366.25L58.16,367.25L60.63,340.49L62.01,269L64.55,325.02L65.82,259.62L68.38,212.07L71.01,275.99L72.21,292.24L74.85,317.67L76.08,231.62L78.72,281.49L82.51,256.83L85.11,276.08L86.38,231.56L88.96,300.67L90.21,349.88L92.79,305.68L96.7,362.78L99.2,336.75L100.51,324.34L103.13,315.48L105.68,313.16L106.91,340.19L109.53,312.31L110.76,287.9L113.41,324.55L114.64,276.03L117.23,322L119.77,260.36L121.1,264.65L123.68,355.56L124.91,339.46L127.51,337.44L131.34,270.11L133.94,207.42L137.8,247.97L140.37,319.32L141.69,300.45L144.25,362.2L145.55,340.19L148.06,328.32L149.38,329.32L151.93,317.73L154.53,336.35L155.75,331.62L158.36,331.09L159.67,340.18L162.18,329.06L164.79,310.97L166.09,298.05L168.64,298.48L169.95,292.45L172.48,276.16L173.81,262.35L176.34,262.84L178.9,302.91L180.22,294.87L182.75,309.12L184.05,266.52L186.62,297.07L189.19,287.66L190.51,286.38L193.06,348.31L194.36,310.06L196.89,295.07L199.53,239.53L200.77,311.47L203.35,338.44L204.65,290.19L208.5,260.32L211.03,296.17L213.66,319.29L214.91,341.48L217.46,248.12L218.8,282.27L221.38,238.77L223.93,331.54L227.77,350.91L229.07,343.1L234.24,338.52L235.46,336.77L238.06,302.44L239.37,274.07L241.93,290.21L243.16,351.28L248.31,286.4L249.62,305.8L253.52,270.76L256.07,313.94L258.59,289.67L259.91,361.94L263.76,319.84L266.29,281.9L268.94,224.24L270.18,176.54L272.77,271.36L274.09,251.54L276.65,278.94L277.89,281.41L280.43,236.48L283,318.24L284.31,334.38L286.91,321.58L290.75,275.87L293.3,250.82L294.63,256.08L297.2,213.54L301.03,229.66L302.28,288.26L304.9,258.9L307.47,282.73L308.78,317.65L311.32,294.17L312.63,251.89L315.21,310.81L317.76,203.41L319.01,223.74L321.58,243.23L322.91,279.23L325.5,363.44L328.04,364.59L329.35,362.39L331.87,342.15L333.19,333.19L335.7,289.02L337.01,280.64L339.56,257.34L343.47,221.19L345.99,135.59L349.87,277.81L352.44,297.39L353.76,324.69L356.27,328.51L357.58,309.83L360.19,305.21L362.72,339.81L364.02,334.18L366.62,293.59L367.83,292.92L370.46,285.95L371.68,268.36L374.25,204.77L376.83,297.97L378.14,311.4L380.68,268.13L382.02,272.08L384.59,245.82L387.13,279.07L388.87,288.2L391.03,297.89L392.28,266.65L394.88,229.42L396.2,269.52L398.68,172.4L401.24,287.66L402.57,230.61L405.15,191.05L406.42,133.68L408.97,270.99L411.6,299.02L412.83,262.57L415.47,276.17L416.71,251.15L419.31,184.7L421.87,183.99L423.13,220.73L425.71,245L426.97,288.54L429.6,293.35L430.82,273.04L433.38,271.19L437.26,308.71L439.88,231.71L441.12,296.59L443.66,188.46L446.28,212.16L447.55,211.95L450.09,207.1L451.43,177.27L453.97,209.15L456.54,285.7L457.86,242.72L460.41,303.92L461.73,313.92L464.28,277.01L465.6,295.27L468.14,215.47L470.67,252.83L471.99,210.24L474.61,239.46L475.85,195.43L478.41,141.74L481.03,153.23L482.29,232.35L484.8,53.68L486.12,156.95L488.71,281.02L491.31,145.57L492.59,273.92L495.15,311.95L496.36,299.85L500.22,240.57L502.86,305.89L505.38,268.03L506.71,294.61L509.23,297.56L510.57,271.79L513.16,320.07L515.71,264.11L516.96,247.46L519.55,334.89L523.42,201.81L524.68,225.9L527.25,175.53L529.81,173.7L531.07,219.6L533.69,225.9L534.93,219.24L537.55,188.27L540.11,90.66L541.4,175.3L543.96,115.28L545.71,44.91L547.81,216.15L550.43,106.31L551.63,85.65L554.24,306.1L555.57,358.92L558.08,293.13L559.4,303.8L561.93,292.68L565.8,254.37L568.36,207.57L569.62,194.76L572.24,193.44L576.12,315.39L578.7,300.41L579.92,300.04L582.56,227.73L585.06,203.29L586.41,216.82L588.9,211.92L590.25,175.94L592.79,277.39L594.1,245.02L596.62,265.09L599.19,209.21L603.05,285.58L604.37,226.06L606.97,290.13L609.54,198.7L610.81,144.05L613.32,228.75L614.68,329.56L617.19,338.26L621.12,284.05L623.66,314.08L624.96,288.23L627.5,254.01L631.4,234.89L633.97,272.62L637.83,311.29L639.05,284.49L641.6,282.71L644.24,256.48L648.09,177.18L649.38,185L651.97,70.86L653.2,187.78L658.36,88.66L659.7,88.7L662.19,238.15L663.45,196.09L666.11,131.59L668.68,324.77L669.93,307.96L672.5,167.77L673.81,135.09L676.31,235.75L678.95,209.39L680.21,238L684.03,307.74L686.67,252.12L687.91,207.45L690.5,323.79L694.36,275.12L696.92,263.94L698.18,241.5L700.78,170.91L703.39,106.46L704.6,46.58L707.18,47.41L708.58,94.25L711.1,67.35L713.62,247.71L714.9,225.69L717.44,251.53L718.73,269.53L721.39,245.37L725.18,208.41L727.78,157.15L729.09,167.82L731.6,219.06L732.86,225.07L735.51,204.49L738.09,94.92L739.36,105.86L741.92,126.45L743.16,111.89L745.74,216.68L747.03,178.89L749.59,160.06L752.17,154.6L753.43,166.08L756.01,165.15L757.34,99.14L759.86,165.41L763.72,195.38L766.28,268.09L767.63,201.91L770.17,308.02L772.75,231.51L774.03,226.77L776.59,210.84L777.88,175.77L780.46,145.62L781.71,152.39L784.34,266.46L786.93,235.81L788.14,205.32L790.75,274.29L792.04,288.87L794.6,251.58L797.23,237.11L798.43,209.39L802.31,169.02L804.86,216.22L807.44,220.95L808.77,169.67L811.32,170.62L812.57,234.4L816.41,285.37L819,287.48L821.57,294.03L822.86,290.17L825.46,284.69L826.75,274.26L829.28,269.43L831.91,269.96L833.12,223.97L835.69,196.28L839.6,299.47L842.13,286.54L846.04,265.89L847.26,243.26L849.9,251.87L851.12,235.74L856.33,195.47L857.6,175.6L860.19,153.18L861.49,164.63L864.04,254.87L866.63,198.59L867.88,163.13L870.46,161.53L871.77,217.61L874.31,255.41L875.54,251.92L878.21,237.18L880.75,283.29L881.99,267.05L885.85,240.1L888.43,192.99L892.29,163.99L894.85,163.12L896.18,142.48L898.72,202.3L901.27,177.62L902.58,227.73L906.41,165.85L909.06,180.77L910.24,169.51L912.9,273.82L915.38,271.22L916.72,263.84L920.63,198.68L923.16,218.82L925.76,201.32L926.99,204.38L929.62,188.73L930.85,197.84L935.98,256.78L937.24,226.19L939.84,211.39L941.17,211.95L943.69,208.62L945,208.46L947.59,215.66L950.1,207.64L951.42,208.77L953.94,215.8L955.27,220.54L957.83,215.43L961.72,243.17L964.29,228L965.6,236.43L968.12,233.49L969.42,229.21L972.01,333.71L975.86,301.1L978.44,277.79L979.69,275.03L982.22,251.58L986.12,211.05L988.66,260.22L992.54,154.25L995.13,150.38L996.36,135.91L998.95,206.82L1000.24,176.67L1002.79,219.7L1004.11,249L1006.74,252.85L1009.23,264.03L1010.54,276.2L1013.14,286.3L1014.43,297.51L1016.92,326.35" style="vector-effect: none; fill: none; stroke: rgb(128, 133, 233); stroke-opacity: 1; stroke-width: 2px; opacity: 1;"/></g><g class="points"/><g class="text"/></g><g class="trace scatter traceac7c0c" style="stroke-miterlimit: 2; opacity: 1;"><g class="fills"/><g class="errorbars"/><g class="lines"><path class="js-line" d="M0,373.3L1.54,373.21L2.79,372.13L5.37,372.4L6.72,370.99L9.33,371.78L11.82,371.27L15.76,367.2L16.96,369.59L19.57,372.31L20.8,367.29L23.37,367.66L25.96,369.25L27.32,369.07L29.86,370.8L36.25,370.23L37.54,368.87L40.14,368.79L41.38,367.6L46.58,368.97L47.79,366.67L50.43,365.69L51.66,367.27L55.54,364.67L58.12,366.86L60.7,333.76L61.95,268.77L64.56,312.45L65.82,260.76L68.41,248.79L70.91,292.94L72.28,259.91L74.8,225.29L78.69,297.36L79.94,238.64L82.5,243.21L85.07,290.64L86.41,228.06L89,272.87L90.28,267.34L92.85,303.21L95.35,358.24L96.66,355.89L100.48,309.79L103.12,305.23L105.65,325.7L106.95,323.46L109.49,277.22L110.83,332.07L113.37,252.49L114.63,302.16L117.19,309.66L119.77,261.14L123.67,341.35L124.97,330.09L127.49,317.49L130.11,284.08L131.37,274.31L133.9,279.73L135.24,311.86L137.78,333.23L140.4,283.27L141.64,328.98L144.18,343.36L145.47,331.21L148.08,335.31L149.34,321.33L151.95,330.92L154.55,324.39L158.39,359.93L159.61,339.67L162.21,331.95L164.82,314.52L166.04,309.54L168.66,294.07L169.96,287.7L172.5,260.35L173.82,310.3L176.37,292.03L178.92,306.49L180.24,322.99L182.75,267.67L184.09,298.28L186.64,250.72L189.22,310.68L190.54,313.45L193.07,338.31L196.89,270.76L199.46,280.22L200.79,351.49L203.59,338.67L204.64,329.85L207.25,235.75L208.54,288.67L211.05,270.96L213.66,346.77L214.89,333.09L217.52,301.25L218.74,268.46L221.3,316.89L223.91,331.63L225.24,308.78L227.79,342.91L231.63,310.53L234.16,334.38L235.45,321.54L238.08,267.06L239.3,244.93L241.86,330.91L243.17,310.45L245.78,314.76L248.33,272.89L249.58,325.38L252.24,225.62L253.49,236.03L256.06,311.53L258.58,337.33L259.88,352.36L262.48,314.76L263.79,294.8L266.33,243.36L268.92,223.59L270.17,286.4L272.8,247.3L274.04,286.53L276.58,287.27L277.89,258.43L280.45,233.22L283.05,325.89L284.35,361.54L286.87,315.11L288.19,289.85L290.74,287.47L293.29,280.54L294.61,291.24L297.17,296.47L298.48,240.75L301.08,281.33L302.32,270.2L304.89,237.98L307.45,315.28L308.76,286.08L311.29,260.01L312.61,310.51L315.13,281.23L317.79,246.37L319.02,268.29L322.87,340.24L325.43,362.5L329.35,340.33L331.86,311.36L333.17,296.59L335.71,299.47L337.03,302.6L339.58,234.01L342.16,219.34L343.42,143.33L346.06,178.67L347.32,339.03L349.86,324.17L352.47,337.1L353.69,338.3L356.3,280.23L357.63,267.4L360.17,267.95L362.71,323.16L364.02,302.05L367.88,279.08L370.44,258.6L374.25,224.4L376.91,344.07L380.74,298.22L381.97,288.1L384.54,301.94L387.14,287.72L388.4,308.75L391.03,311.25L392.31,246.56L394.9,231.37L396.15,201.1L398.68,250.28L401.32,268.74L402.55,214.47L405.17,108.97L406.38,139.48L408.97,331.67L411.58,256.61L412.9,279.16L415.47,223.24L416.72,209.11L419.26,160.4L421.81,264.5L423.15,262.75L427.02,316.48L429.55,288.56L430.86,251.81L433.41,326.81L436.03,292.66L437.24,241.27L439.8,229.74L441.16,164.22L443.69,246.19L446.31,112.03L447.61,198.68L450.11,197.7L451.47,199.31L453.95,297.52L456.58,300.92L457.8,343.94L460.45,326.93L461.68,294.69L464.27,314.15L465.57,276.83L468.11,318.38L470.73,266.09L471.96,243.74L474.54,216.07L475.88,179.47L478.42,234.22L481.01,158.12L482.27,161.45L484.87,59.35L486.09,290.34L488.74,192.55L491.26,306L492.59,267.11L495.14,320.52L496.44,299.68L498.97,222.07L500.31,197.29L502.87,283.28L505.43,276.43L506.71,287.68L509.29,247.72L510.55,263.07L513.1,295.3L515.66,246.59L516.99,233.4L519.56,251.77L520.79,197.32L523.42,198.92L524.68,128.17L527.24,162.11L529.79,204.36L531.07,256.77L533.68,222.99L534.96,187.43L537.51,147.43L540.08,149.85L543.94,34.42L545.25,184.05L547.85,175.2L550.37,58.76L554.26,352.24L555.56,332.33L558.12,298.14L559.36,302.08L562,234.32L564.51,243.06L565.84,237.77L568.36,170.19L569.65,227.63L572.25,229.72L574.84,321.87L576.06,291.37L578.63,297.54L579.95,241.43L582.53,170.46L585.05,265L586.4,196.56L588.94,182.05L590.22,173.75L592.85,254.03L594.1,261.56L596.65,223.28L599.28,280.85L600.51,331.17L603.06,269.67L604.4,321.36L606.96,200.85L609.5,219L610.83,154.99L613.33,324.16L614.65,343.64L617.18,317.54L619.81,267.97L621.04,266.72L623.68,285.85L624.9,252.59L627.48,236.75L628.84,253.08L631.33,222.57L633.91,268.53L635.25,329.16L637.79,270.52L639.03,281.83L641.61,224.44L644.22,205.03L645.48,166.06L648.06,186.73L649.33,132.4L651.94,171.69L653.23,146.04L655.82,88.77L658.34,185.14L659.62,261.96L662.25,211.44L663.5,145.95L666.12,261.57L668.65,254.18L669.91,219.74L672.52,167.25L673.81,184.56L676.36,202.6L678.9,274.86L680.24,294.93L682.8,316.29L684.04,248.85L686.66,260.75L687.9,286.93L690.53,311.69L693.07,299.26L694.39,267.56L698.22,147.41L700.82,127.04L703.36,49.92L704.62,89.85L707.15,90.03L708.46,94.02L711.11,278.15L713.63,248.6L714.92,234.39L717.5,232.86L721.38,257.97L722.63,230.86L725.23,113.76L727.74,132.19L729.1,187.14L731.61,235.31L735.45,111.01L738.03,91.31L739.38,62.71L741.9,143.56L743.25,109.68L745.8,152.63L747.06,133.25L749.57,131.16L752.18,181.9L753.5,172.19L756.06,127.83L757.31,132.67L759.91,182.93L762.45,181.96L763.76,204.86L766.36,214.72L767.56,303.78L770.22,224.92L772.7,229.13L774,223.08L776.63,250.36L777.91,205.46L780.42,193.02L781.76,176.35L784.32,259.49L786.85,226.11L788.17,168.59L790.72,293.37L792.02,248.21L794.57,233.67L797.13,209.67L798.49,175.16L802.35,268.24L804.88,198.4L807.44,143.01L808.7,154.5L812.58,264.73L815.21,285.05L816.41,296.66L819.04,343.43L821.58,322.99L822.91,318.48L829.32,277.36L831.83,250.69L833.15,216.91L835.76,261.76L836.99,302.01L839.62,275.77L843.48,253.53L846.03,271.02L849.83,181.02L851.12,175.84L853.72,160.01L856.3,138.14L860.19,169.18L861.48,251.73L864.06,208.02L866.62,181.96L867.91,166.64L870.45,245.67L871.69,208.42L874.27,281.59L875.58,262.14L878.11,311.12L881.99,276.19L884.57,259.09L885.84,256.88L888.39,243.02L891.02,199.65L892.31,211.09L894.88,176.4L896.2,259.38L898.76,186.39L901.29,198.86L902.59,176.84L905.14,190.78L906.47,197.47L909,223.52L910.26,295.42L912.9,250.76L915.41,231.86L916.77,227.72L919.29,187.41L920.52,197.8L923.18,225.51L925.68,213.18L926.99,200.05L929.53,198.46L930.84,221.67L933.41,209.55L936,278.97L937.23,238.38L941.17,199.46L943.7,216.24L945.05,229.6L947.59,220.34L950.12,215.24L951.44,233.74L953.97,223.5L955.28,221.38L957.83,225.33L960.46,233.61L961.76,243.55L964.26,236.31L965.56,234.51L968.08,242.54L969.37,327.02L972.03,311.22L975.88,276.95L978.46,245.15L979.65,241.82L982.27,232L984.88,230.82L986.09,212.85L988.73,228.53L990.02,229.94L995.12,176.08L996.36,197.29L1004.12,260.52L1006.73,278.95L1009.24,284.3L1010.54,299.67L1013.12,306.52L1014.42,306.3L1016.93,367.57" style="vector-effect: none; fill: none; stroke: rgb(241, 92, 128); stroke-opacity: 1; stroke-width: 2px; opacity: 1;"/></g><g class="points"/><g class="text"/></g></g></g></g><path class="xlines-above crisp" d="M0,0" style="fill: none;"/><path class="ylines-above crisp" d="M0,0" style="fill: none;"/><g class="overlines-above"/><g class="xaxislayer-above"><g class="xtick"><text text-anchor="middle" x="0" y="451" transform="translate(195.47,0)" style="font-family: 'Lucida Grande', 'Open Sans', verdana, arial, sans-serif; font-size: 10px; fill: rgb(0, 0, 0); fill-opacity: 1; white-space: pre; opacity: 1;">500</text></g><g class="xtick"><text text-anchor="middle" x="0" y="451" style="font-family: 'Lucida Grande', 'Open Sans', verdana, arial, sans-serif; font-size: 10px; fill: rgb(0, 0, 0); fill-opacity: 1; white-space: pre; opacity: 1;" transform="translate(324,0)">1000</text></g><g class="xtick"><text text-anchor="middle" x="0" y="451" style="font-family: 'Lucida Grande', 'Open Sans', verdana, arial, sans-serif; font-size: 10px; fill: rgb(0, 0, 0); fill-opacity: 1; white-space: pre; opacity: 1;" transform="translate(452.53,0)">1500</text></g><g class="xtick"><text text-anchor="middle" x="0" y="451" style="font-family: 'Lucida Grande', 'Open Sans', verdana, arial, sans-serif; font-size: 10px; fill: rgb(0, 0, 0); fill-opacity: 1; white-space: pre; opacity: 1;" transform="translate(581.07,0)">2000</text></g><g class="xtick"><text text-anchor="middle" x="0" y="451" style="font-family: 'Lucida Grande', 'Open Sans', verdana, arial, sans-serif; font-size: 10px; fill: rgb(0, 0, 0); fill-opacity: 1; white-space: pre; opacity: 1;" transform="translate(709.6,0)">2500</text></g><g class="xtick"><text text-anchor="middle" x="0" y="451" style="font-family: 'Lucida Grande', 'Open Sans', verdana, arial, sans-serif; font-size: 10px; fill: rgb(0, 0, 0); fill-opacity: 1; white-space: pre; opacity: 1;" transform="translate(838.13,0)">3000</text></g><g class="xtick"><text text-anchor="middle" x="0" y="451" style="font-family: 'Lucida Grande', 'Open Sans', verdana, arial, sans-serif; font-size: 10px; fill: rgb(0, 0, 0); fill-opacity: 1; white-space: pre; opacity: 1;" transform="translate(966.67,0)">3500</text></g></g><g class="yaxislayer-above"><g class="ytick"><text text-anchor="end" x="62" y="3.5" transform="translate(0,435)" style="font-family: 'Lucida Grande', 'Open Sans', verdana, arial, sans-serif; font-size: 10px; fill: rgb(0, 0, 0); fill-opacity: 1; white-space: pre; opacity: 1;">0</text></g><g class="ytick"><text text-anchor="end" x="62" y="3.5" style="font-family: 'Lucida Grande', 'Open Sans', verdana, arial, sans-serif; font-size: 10px; fill: rgb(0, 0, 0); fill-opacity: 1; white-space: pre; opacity: 1;" transform="translate(0,369.98)">500</text></g><g class="ytick"><text text-anchor="end" x="62" y="3.5" style="font-family: 'Lucida Grande', 'Open Sans', verdana, arial, sans-serif; font-size: 10px; fill: rgb(0, 0, 0); fill-opacity: 1; white-space: pre; opacity: 1;" transform="translate(0,304.95)">1000</text></g><g class="ytick"><text text-anchor="end" x="62" y="3.5" style="font-family: 'Lucida Grande', 'Open Sans', verdana, arial, sans-serif; font-size: 10px; fill: rgb(0, 0, 0); fill-opacity: 1; white-space: pre; opacity: 1;" transform="translate(0,239.93)">1500</text></g><g class="ytick"><text text-anchor="end" x="62" y="3.5" style="font-family: 'Lucida Grande', 'Open Sans', verdana, arial, sans-serif; font-size: 10px; fill: rgb(0, 0, 0); fill-opacity: 1; white-space: pre; opacity: 1;" transform="translate(0,174.9)">2000</text></g><g class="ytick"><text text-anchor="end" x="62" y="3.5" style="font-family: 'Lucida Grande', 'Open Sans', verdana, arial, sans-serif; font-size: 10px; fill: rgb(0, 0, 0); fill-opacity: 1; white-space: pre; opacity: 1;" transform="translate(0,109.88)">2500</text></g></g><g class="overaxes-above"/></g></g><g class="polarlayer"/><g class="smithlayer"/><g class="ternarylayer"/><g class="geolayer"/><g class="funnelarealayer"/><g class="pielayer"/><g class="iciclelayer"/><g class="treemaplayer"/><g class="sunburstlayer"/><g class="glimages"/><defs id="topdefs-355f68"><g class="clips"/></defs><g class="layer-above"><g class="imagelayer"/><g class="shapelayer"/></g><g class="infolayer"><g class="g-gtitle"><text class="gtitle" x="550" y="25" text-anchor="middle" dy="0em" style="opacity: 1; font-family: 'Lucida Grande', 'Open Sans', verdana, arial, sans-serif; font-size: 20px; fill: rgb(42, 63, 95); fill-opacity: 1; white-space: pre;"><tspan class="line" dy="0em" x="550" y="25">MS1 Peaks</tspan><tspan class="line" dy="1.3em" x="550" y="25">​<tspan style="font-size:70%" dy="-0.6em">6 samples</tspan><tspan dy="0.42em">​</tspan></tspan></text></g><g class="g-xtitle"><text class="xtitle" x="576.5" y="472.3" text-anchor="middle" style="opacity: 0.3; font-family: 'Lucida Grande', 'Open Sans', verdana, arial, sans-serif; font-size: 14px; fill: rgb(0, 0, 0); fill-opacity: 1; white-space: pre;">Retention Time (min)</text></g><g class="g-ytitle"><text class="ytitle" transform="rotate(-90,22.146875,242.5)" x="22.146875" y="242.5" text-anchor="middle" style="opacity: 0.3; font-family: 'Lucida Grande', 'Open Sans', verdana, arial, sans-serif; font-size: 14px; fill: rgb(0, 0, 0); fill-opacity: 1; white-space: pre;">Peak Count</text></g></g></svg>