<svg class="main-svg" xmlns="http://www.w3.org/2000/svg" xmlns:xlink="http://www.w3.org/1999/xlink" width="2200" height="546" style="" viewBox="0 0 1100 273"><rect x="0" y="0" width="1100" height="273" style="fill: rgb(255, 255, 255); fill-opacity: 1;"/><defs id="defs-024e8e"><g class="clips"><clipPath id="clip024e8exyplot" class="plotclip"><rect width="973" height="42.230769230769226"/></clipPath><clipPath id="clip024e8ex2y2plot" class="plotclip"><rect width="973" height="42.230769230769226"/></clipPath><clipPath id="clip024e8ex3y3plot" class="plotclip"><rect width="973" height="42.230769230769226"/></clipPath><clipPath class="axesclip" id="clip024e8ex"><rect x="112" y="0" width="973" height="273"/></clipPath><clipPath class="axesclip" id="clip024e8ey"><rect x="0" y="50.00000000000002" width="1100" height="42.230769230769226"/></clipPath><clipPath class="axesclip" id="clip024e8exy"><rect x="112" y="50.00000000000002" width="973" height="42.230769230769226"/></clipPath><clipPath class="axesclip" id="clip024e8ey2"><rect x="0" y="120.3846153846154" width="1100" height="42.230769230769226"/></clipPath><clipPath class="axesclip" id="clip024e8exy2"><rect x="112" y="120.3846153846154" width="973" height="42.230769230769226"/></clipPath><clipPath class="axesclip" id="clip024e8ey3"><rect x="0" y="190.76923076923077" width="1100" height="42.230769230769226"/></clipPath><clipPath class="axesclip" id="clip024e8exy3"><rect x="112" y="190.76923076923077" width="973" height="42.230769230769226"/></clipPath><clipPath class="axesclip" id="clip024e8ex2"><rect x="112" y="0" width="973" height="273"/></clipPath><clipPath class="axesclip" id="clip024e8ex2y"><rect x="112" y="50.00000000000002" width="973" height="42.230769230769226"/></clipPath><clipPath class="axesclip" id="clip024e8ex2y2"><rect x="112" y="120.3846153846154" width="973" height="42.230769230769226"/></clipPath><clipPath class="axesclip" id="clip024e8ex2y3"><rect x="112" y="190.76923076923077" width="973" height="42.230769230769226"/></clipPath><clipPath class="axesclip" id="clip024e8ex3"><rect x="112" y="0" width="973" height="273"/></clipPath><clipPath class="axesclip" id="clip024e8ex3y"><rect x="112" y="50.00000000000002" width="973" height="42.230769230769226"/></clipPath><clipPath class="axesclip" id="clip024e8ex3y2"><rect x="112" y="120.3846153846154" width="973" height="42.230769230769226"/></clipPath><clipPath class="axesclip" id="clip024e8ex3y3"><rect x="112" y="190.76923076923077" width="973" height="42.230769230769226"/></clipPath></g><g class="gradients"/><g class="patterns"/></defs><g class="bglayer"/><g class="layer-below"><g class="imagelayer"/><g class="shapelayer"/></g><g class="cartesianlayer"><g class="subplot xy"><g class="layer-subplot"><g class="shapelayer"/><g class="imagelayer"/></g><g class="minor-gridlayer"><g class="x"/><g class="y"/></g><g class="gridlayer"><g class="x"><path class="xgrid crisp" transform="translate(148.61,0)" d="M0,50.00000000000002v42.230769230769226" style="stroke: rgb(0, 0, 0); stroke-opacity: 0.1; stroke-width: 1px;"/><path class="xgrid crisp" transform="translate(271.94,0)" d="M0,50.00000000000002v42.230769230769226" style="stroke: rgb(0, 0, 0); stroke-opacity: 0.1; stroke-width: 1px;"/><path class="xgrid crisp" transform="translate(395.26,0)" d="M0,50.00000000000002v42.230769230769226" style="stroke: rgb(0, 0, 0); stroke-opacity: 0.1; stroke-width: 1px;"/><path class="xgrid crisp" transform="translate(518.5799999999999,0)" d="M0,50.00000000000002v42.230769230769226" style="stroke: rgb(0, 0, 0); stroke-opacity: 0.1; stroke-width: 1px;"/><path class="xgrid crisp" transform="translate(641.91,0)" d="M0,50.00000000000002v42.230769230769226" style="stroke: rgb(0, 0, 0); stroke-opacity: 0.1; stroke-width: 1px;"/><path class="xgrid crisp" transform="translate(765.23,0)" d="M0,50.00000000000002v42.230769230769226" style="stroke: rgb(0, 0, 0); stroke-opacity: 0.1; stroke-width: 1px;"/><path class="xgrid crisp" transform="translate(888.55,0)" d="M0,50.00000000000002v42.230769230769226" style="stroke: rgb(0, 0, 0); stroke-opacity: 0.1; stroke-width: 1px;"/><path class="xgrid crisp" transform="translate(1011.88,0)" d="M0,50.00000000000002v42.230769230769226" style="stroke: rgb(0, 0, 0); stroke-opacity: 0.1; stroke-width: 1px;"/></g><g class="y"><path class="ygrid crisp" transform="translate(0,71.12000000000002)" d="M112,0h973" style="stroke: rgb(0, 0, 0); stroke-opacity: 0.1; stroke-width: 1px;"/></g></g><g class="zerolinelayer"/><g class="layer-between"><g class="shapelayer"/><g class="imagelayer"/></g><path class="xlines-below"/><path class="ylines-below"/><g class="overlines-below"/><g class="xaxislayer-below"/><g class="yaxislayer-below"/><g class="overaxes-below"/><g class="overplot"><g class="xy" transform="translate(112,50.00000000000002)" clip-path="url(#clip024e8exyplot)"><g class="violinlayer mlayer"><g class="trace violins" style="opacity: 0.5;"><path class="violin" d="M48.65,19.96Q75.18,19.35 88.45,18.9C101.72,18.45 114.99,17.91 128.26,17.27C141.53,16.63 154.79,15.87 168.06,15.08C181.33,14.29 194.6,13.38 207.87,12.54C221.14,11.7 234.4,10.78 247.67,10.02C260.94,9.26 274.21,8.52 287.48,7.97C300.74,7.42 314.01,6.99 327.28,6.72C340.55,6.45 353.82,6.34 367.09,6.33C380.36,6.32 393.62,6.47 406.89,6.63C420.16,6.79 433.43,7.05 446.7,7.28C459.97,7.51 473.23,7.76 486.5,7.99C499.77,8.22 513.03,8.43 526.3,8.64C539.57,8.85 552.84,9.04 566.11,9.27C579.38,9.5 592.64,9.74 605.91,10.04C619.18,10.35 632.45,10.69 645.72,11.1C658.99,11.51 672.25,11.99 685.52,12.5C698.79,13.01 712.06,13.6 725.33,14.17C738.6,14.74 751.86,15.36 765.13,15.92C778.4,16.48 791.67,17.05 804.94,17.54C818.21,18.03 831.47,18.48 844.74,18.86C858.01,19.24 871.28,19.56 884.55,19.82Q897.82,20.08 924.35,20.44L924.35,21.79Q897.82,22.15 884.55,22.41C871.28,22.67 858.01,22.99 844.74,23.37C831.47,23.75 818.21,24.2 804.94,24.69C791.67,25.18 778.4,25.75 765.13,26.31C751.86,26.87 738.6,27.49 725.33,28.06C712.06,28.63 698.79,29.22 685.52,29.73C672.25,30.24 658.99,30.72 645.72,31.13C632.45,31.54 619.18,31.88 605.91,32.19C592.64,32.49 579.38,32.73 566.11,32.96C552.84,33.19 539.57,33.38 526.3,33.59C513.03,33.8 499.77,34.01 486.5,34.24C473.23,34.47 459.97,34.72 446.7,34.95C433.43,35.18 420.16,35.44 406.89,35.6C393.62,35.76 380.36,35.91 367.09,35.9C353.82,35.89 340.55,35.78 327.28,35.51C314.01,35.24 300.74,34.81 287.48,34.26C274.21,33.71 260.94,32.97 247.67,32.21C234.4,31.45 221.14,30.53 207.87,29.69C194.6,28.85 181.33,27.94 168.06,27.15C154.79,26.36 141.53,25.61 128.26,24.97C114.99,24.33 101.72,23.78 88.45,23.33Q75.18,22.88 48.65,22.27Z" style="vector-effect: none; stroke-width: 2px; stroke: rgb(181, 181, 181); stroke-opacity: 1; fill: rgb(181, 181, 181); fill-opacity: 1;"/><path class="box" d="M425.36,24.81V17.42M303.75,24.81V17.42H592.91V24.81ZM303.75,21.12H288.57M592.91,21.12H684.43" style="vector-effect: non-scaling-stroke; stroke-width: 2px; stroke: rgb(181, 181, 181); stroke-opacity: 1; fill: rgb(181, 181, 181); fill-opacity: 1;"/><path class="mean" d="M453.4,24.81V17.42" style="fill: none; vector-effect: non-scaling-stroke; stroke-width: 2px; stroke-dasharray: 4px, 2px; stroke: rgb(181, 181, 181); stroke-opacity: 1;"/></g></g><g class="scatterlayer mlayer"><g class="trace scatter trace11edda" style="stroke-miterlimit: 2; opacity: 1;"><g class="fills"/><g class="errorbars"/><g class="lines"/><g class="points"><path class="point" transform="translate(592.91,21.12)" d="M2,0A2,2 0 1,1 0,-2A2,2 0 0,1 2,0Z" style="opacity: 1; stroke-width: 0px; fill: rgb(11, 121, 230); fill-opacity: 1;"/></g><g class="text"/></g><g class="trace scatter traceb49f42" style="stroke-miterlimit: 2; opacity: 1;"><g class="fills"/><g class="errorbars"/><g class="lines"/><g class="points"><path class="point" transform="translate(486.21,21.12)" d="M2,0A2,2 0 1,1 0,-2A2,2 0 0,1 2,0Z" style="opacity: 1; stroke-width: 0px; fill: rgb(11, 121, 230); fill-opacity: 1;"/></g><g class="text"/></g><g class="trace scatter trace32710a" style="stroke-miterlimit: 2; opacity: 1;"><g class="fills"/><g class="errorbars"/><g class="lines"/><g class="points"><path class="point" transform="translate(684.43,21.12)" d="M2,0A2,2 0 1,1 0,-2A2,2 0 0,1 2,0Z" style="opacity: 1; stroke-width: 0px; fill: rgb(11, 121, 230); fill-opacity: 1;"/></g><g class="text"/></g><g class="trace scatter traceec7ffb" style="stroke-miterlimit: 2; opacity: 1;"><g class="fills"/><g class="errorbars"/><g class="lines"/><g class="points"><path class="point" transform="translate(288.57,21.12)" d="M2,0A2,2 0 1,1 0,-2A2,2 0 0,1 2,0Z" style="opacity: 1; stroke-width: 0px; fill: rgb(11, 121, 230); fill-opacity: 1;"/></g><g class="text"/></g><g class="trace scatter trace063430" style="stroke-miterlimit: 2; opacity: 1;"><g class="fills"/><g class="errorbars"/><g class="lines"/><g class="points"><path class="point" transform="translate(303.75,21.12)" d="M2,0A2,2 0 1,1 0,-2A2,2 0 0,1 2,0Z" style="opacity: 1; stroke-width: 0px; fill: rgb(11, 121, 230); fill-opacity: 1;"/></g><g class="text"/></g><g class="trace scatter trace10f280" style="stroke-miterlimit: 2; opacity: 1;"><g class="fills"/><g class="errorbars"/><g class="lines"/><g class="points"><path class="point" transform="translate(364.51,21.12)" d="M2,0A2,2 0 1,1 0,-2A2,2 0 0,1 2,0Z" style="opacity: 1; stroke-width: 0px; fill: rgb(11, 121, 230); fill-opacity: 1;"/></g><g class="text"/></g></g></g></g><path class="xlines-above crisp" d="M0,0" style="fill: none;"/><path class="ylines-above crisp" d="M0,0" style="fill: none;"/><g class="overlines-above"/><g class="xaxislayer-above"><g class="xtick"><text text-anchor="middle" x="0" y="102.23076923076925" transform="translate(148.61,0)" style="font-family: 'Lucida Grande', 'Open Sans', verdana, arial, sans-serif; font-size: 9px; fill: rgb(0, 0, 0); fill-opacity: 0.5; white-space: pre; opacity: 1;"><tspan class="line" dy="0em" x="0" y="102.23076923076925">00:00</tspan><tspan class="line" dy="1.3em" x="0" y="102.23076923076925">May 14, 2020</tspan></text></g><g class="xtick"><text text-anchor="middle" x="0" y="102.23076923076925" style="font-family: 'Lucida Grande', 'Open Sans', verdana, arial, sans-serif; font-size: 9px; fill: rgb(0, 0, 0); fill-opacity: 0.5; white-space: pre; opacity: 1;" transform="translate(271.94,0)">12:00</text></g><g class="xtick"><text text-anchor="middle" x="0" y="102.23076923076925" style="font-family: 'Lucida Grande', 'Open Sans', verdana, arial, sans-serif; font-size: 9px; fill: rgb(0, 0, 0); fill-opacity: 0.5; white-space: pre; opacity: 1;" transform="translate(395.26,0)"><tspan class="line" dy="0em" x="0" y="102.23076923076925">00:00</tspan><tspan class="line" dy="1.3em" x="0" y="102.23076923076925">May 15, 2020</tspan></text></g><g class="xtick"><text text-anchor="middle" x="0" y="102.23076923076925" style="font-family: 'Lucida Grande', 'Open Sans', verdana, arial, sans-serif; font-size: 9px; fill: rgb(0, 0, 0); fill-opacity: 0.5; white-space: pre; opacity: 1;" transform="translate(518.5799999999999,0)">12:00</text></g><g class="xtick"><text text-anchor="middle" x="0" y="102.23076923076925" style="font-family: 'Lucida Grande', 'Open Sans', verdana, arial, sans-serif; font-size: 9px; fill: rgb(0, 0, 0); fill-opacity: 0.5; white-space: pre; opacity: 1;" transform="translate(641.91,0)"><tspan class="line" dy="0em" x="0" y="102.23076923076925">00:00</tspan><tspan class="line" dy="1.3em" x="0" y="102.23076923076925">May 16, 2020</tspan></text></g><g class="xtick"><text text-anchor="middle" x="0" y="102.23076923076925" style="font-family: 'Lucida Grande', 'Open Sans', verdana, arial, sans-serif; font-size: 9px; fill: rgb(0, 0, 0); fill-opacity: 0.5; white-space: pre; opacity: 1;" transform="translate(765.23,0)">12:00</text></g><g class="xtick"><text text-anchor="middle" x="0" y="102.23076923076925" style="font-family: 'Lucida Grande', 'Open Sans', verdana, arial, sans-serif; font-size: 9px; fill: rgb(0, 0, 0); fill-opacity: 0.5; white-space: pre; opacity: 1;" transform="translate(888.55,0)"><tspan class="line" dy="0em" x="0" y="102.23076923076925">00:00</tspan><tspan class="line" dy="1.3em" x="0" y="102.23076923076925">May 17, 2020</tspan></text></g><g class="xtick"><text text-anchor="middle" x="0" y="102.23076923076925" style="font-family: 'Lucida Grande', 'Open Sans', verdana, arial, sans-serif; font-size: 9px; fill: rgb(0, 0, 0); fill-opacity: 0.5; white-space: pre; opacity: 1;" transform="translate(1011.88,0)">12:00</text></g></g><g class="yaxislayer-above"><g class="ytick"><text text-anchor="end" x="111" y="3.15" transform="translate(0,71.12000000000002)" style="font-family: 'Lucida Grande', 'Open Sans', verdana, arial, sans-serif; font-size: 9px; fill: rgb(0, 0, 0); fill-opacity: 0.5; white-space: pre; opacity: 1;">AcquisitionDateTime  </text></g></g><g class="overaxes-above"/></g><g class="subplot x2y2"><g class="layer-subplot"><g class="shapelayer"/><g class="imagelayer"/></g><g class="minor-gridlayer"><g class="x2"/><g class="y2"/></g><g class="gridlayer"><g class="x2"><path class="x2grid crisp" transform="translate(224.38,0)" d="M0,120.3846153846154v42.230769230769226" style="stroke: rgb(0, 0, 0); stroke-opacity: 0.1; stroke-width: 1px;"/><path class="x2grid crisp" transform="translate(331.95,0)" d="M0,120.3846153846154v42.230769230769226" style="stroke: rgb(0, 0, 0); stroke-opacity: 0.1; stroke-width: 1px;"/><path class="x2grid crisp" transform="translate(439.51,0)" d="M0,120.3846153846154v42.230769230769226" style="stroke: rgb(0, 0, 0); stroke-opacity: 0.1; stroke-width: 1px;"/><path class="x2grid crisp" transform="translate(547.0799999999999,0)" d="M0,120.3846153846154v42.230769230769226" style="stroke: rgb(0, 0, 0); stroke-opacity: 0.1; stroke-width: 1px;"/><path class="x2grid crisp" transform="translate(654.64,0)" d="M0,120.3846153846154v42.230769230769226" style="stroke: rgb(0, 0, 0); stroke-opacity: 0.1; stroke-width: 1px;"/><path class="x2grid crisp" transform="translate(762.21,0)" d="M0,120.3846153846154v42.230769230769226" style="stroke: rgb(0, 0, 0); stroke-opacity: 0.1; stroke-width: 1px;"/><path class="x2grid crisp" transform="translate(869.77,0)" d="M0,120.3846153846154v42.230769230769226" style="stroke: rgb(0, 0, 0); stroke-opacity: 0.1; stroke-width: 1px;"/><path class="x2grid crisp" transform="translate(977.34,0)" d="M0,120.3846153846154v42.230769230769226" style="stroke: rgb(0, 0, 0); stroke-opacity: 0.1; stroke-width: 1px;"/></g><g class="y2"><path class="y2grid crisp" transform="translate(0,141.5046153846154)" d="M112,0h973" style="stroke: rgb(0, 0, 0); stroke-opacity: 0.1; stroke-width: 1px;"/></g></g><g class="zerolinelayer"><path class="x2zl zl crisp" transform="translate(116.82,0)" d="M0,120.3846153846154v42.230769230769226" style="stroke: rgb(0, 0, 0); stroke-opacity: 0.1; stroke-width: 2px;"/></g><g class="layer-between"><g class="shapelayer"/><g class="imagelayer"/></g><path class="xlines-below"/><path class="ylines-below"/><g class="overlines-below"/><g class="xaxislayer-below"/><g class="yaxislayer-below"/><g class="overaxes-below"/><g class="overplot"><g class="x2y2" transform="translate(112,120.3846153846154)" clip-path="url(#clip024e8ex2y2plot)"><g class="violinlayer mlayer"><g class="trace violins" style="opacity: 0.5;"><path class="violin" d="M470.76,19.9Q491.64,19.25 502.08,18.78C512.52,18.31 522.96,17.74 533.4,17.08C543.84,16.42 554.27,15.62 564.71,14.81C575.15,13.99 585.59,13.05 596.03,12.19C606.47,11.33 616.91,10.4 627.35,9.64C637.79,8.88 648.23,8.15 658.67,7.63C669.11,7.11 679.55,6.73 689.99,6.51C700.43,6.29 710.86,6.27 721.3,6.33C731.74,6.39 742.18,6.64 752.62,6.88C763.06,7.12 773.5,7.46 783.94,7.75C794.38,8.03 804.82,8.34 815.26,8.59C825.7,8.84 836.14,9.04 846.58,9.23C857.02,9.42 867.45,9.55 877.89,9.73C888.33,9.91 898.77,10.06 909.21,10.3C919.65,10.54 930.09,10.81 940.53,11.16C950.97,11.51 961.41,11.94 971.85,12.41C982.29,12.88 992.73,13.45 1003.17,14C1013.61,14.56 1024.05,15.17 1034.49,15.74C1044.93,16.3 1055.36,16.89 1065.8,17.39C1076.24,17.89 1086.68,18.36 1097.12,18.75C1107.56,19.14 1118,19.47 1128.44,19.75Q1138.88,20.02 1159.76,20.4L1159.76,21.83Q1138.88,22.21 1128.44,22.48C1118,22.76 1107.56,23.09 1097.12,23.48C1086.68,23.87 1076.24,24.34 1065.8,24.84C1055.36,25.34 1044.93,25.93 1034.49,26.49C1024.05,27.06 1013.61,27.67 1003.17,28.23C992.73,28.78 982.29,29.35 971.85,29.82C961.41,30.29 950.97,30.72 940.53,31.07C930.09,31.42 919.65,31.69 909.21,31.93C898.77,32.17 888.33,32.32 877.89,32.5C867.45,32.68 857.02,32.81 846.58,33C836.14,33.19 825.7,33.4 815.26,33.65C804.82,33.9 794.38,34.2 783.94,34.48C773.5,34.76 763.06,35.11 752.62,35.35C742.18,35.59 731.74,35.84 721.3,35.9C710.86,35.96 700.43,35.94 689.99,35.72C679.55,35.5 669.11,35.12 658.67,34.6C648.23,34.08 637.79,33.35 627.35,32.59C616.91,31.83 606.47,30.9 596.03,30.04C585.59,29.18 575.15,28.24 564.71,27.42C554.27,26.61 543.84,25.81 533.4,25.15C522.96,24.49 512.52,23.92 502.08,23.45Q491.64,22.98 470.76,22.34Z" style="vector-effect: none; stroke-width: 2px; stroke: rgb(181, 181, 181); stroke-opacity: 1; fill: rgb(181, 181, 181); fill-opacity: 1;"/><path class="box" d="M752.64,24.81V17.42M680.53,24.81V17.42H910.39V24.81ZM680.53,21.12H662.36M910.39,21.12H968.16" style="vector-effect: non-scaling-stroke; stroke-width: 2px; stroke: rgb(181, 181, 181); stroke-opacity: 1; fill: rgb(181, 181, 181); fill-opacity: 1;"/><path class="mean" d="M787.79,24.81V17.42" style="fill: none; vector-effect: non-scaling-stroke; stroke-width: 2px; stroke-dasharray: 4px, 2px; stroke: rgb(181, 181, 181); stroke-opacity: 1;"/></g></g><g class="scatterlayer mlayer"><g class="trace scatter trace233365" style="stroke-miterlimit: 2; opacity: 1;"><g class="fills"/><g class="errorbars"/><g class="lines"/><g class="points"><path class="point" transform="translate(809.71,21.12)" d="M2,0A2,2 0 1,1 0,-2A2,2 0 0,1 2,0Z" style="opacity: 1; stroke-width: 0px; fill: rgb(11, 121, 230); fill-opacity: 1;"/></g><g class="text"/></g><g class="trace scatter trace124774" style="stroke-miterlimit: 2; opacity: 1;"><g class="fills"/><g class="errorbars"/><g class="lines"/><g class="points"><path class="point" transform="translate(662.36,21.12)" d="M2,0A2,2 0 1,1 0,-2A2,2 0 0,1 2,0Z" style="opacity: 1; stroke-width: 0px; fill: rgb(11, 121, 230); fill-opacity: 1;"/></g><g class="text"/></g><g class="trace scatter tracebd6724" style="stroke-miterlimit: 2; opacity: 1;"><g class="fills"/><g class="errorbars"/><g class="lines"/><g class="points"><path class="point" transform="translate(968.16,21.12)" d="M2,0A2,2 0 1,1 0,-2A2,2 0 0,1 2,0Z" style="opacity: 1; stroke-width: 0px; fill: rgb(11, 121, 230); fill-opacity: 1;"/></g><g class="text"/></g><g class="trace scatter trace62c848" style="stroke-miterlimit: 2; opacity: 1;"><g class="fills"/><g class="errorbars"/><g class="lines"/><g class="points"><path class="point" transform="translate(910.39,21.12)" d="M2,0A2,2 0 1,1 0,-2A2,2 0 0,1 2,0Z" style="opacity: 1; stroke-width: 0px; fill: rgb(11, 121, 230); fill-opacity: 1;"/></g><g class="text"/></g><g class="trace scatter tracefdd2f4" style="stroke-miterlimit: 2; opacity: 1;"><g class="fills"/><g class="errorbars"/><g class="lines"/><g class="points"><path class="point" transform="translate(680.53,21.12)" d="M2,0A2,2 0 1,1 0,-2A2,2 0 0,1 2,0Z" style="opacity: 1; stroke-width: 0px; fill: rgb(11, 121, 230); fill-opacity: 1;"/></g><g class="text"/></g><g class="trace scatter traceba3d3c" style="stroke-miterlimit: 2; opacity: 1;"><g class="fills"/><g class="errorbars"/><g class="lines"/><g class="points"><path class="point" transform="translate(695.58,21.12)" d="M2,0A2,2 0 1,1 0,-2A2,2 0 0,1 2,0Z" style="opacity: 1; stroke-width: 0px; fill: rgb(11, 121, 230); fill-opacity: 1;"/></g><g class="text"/></g></g></g></g><path class="xlines-above crisp" d="M0,0" style="fill: none;"/><path class="ylines-above crisp" d="M0,0" style="fill: none;"/><g class="overlines-above"/><g class="xaxislayer-above"><g class="x2tick"><text text-anchor="middle" x="0" y="172.61538461538464" transform="translate(116.82,0)" style="font-family: 'Lucida Grande', 'Open Sans', verdana, arial, sans-serif; font-size: 9px; fill: rgb(0, 0, 0); fill-opacity: 0.5; white-space: pre; opacity: 1;">0</text></g><g class="x2tick"><text text-anchor="middle" x="0" y="172.61538461538464" style="font-family: 'Lucida Grande', 'Open Sans', verdana, arial, sans-serif; font-size: 9px; fill: rgb(0, 0, 0); fill-opacity: 0.5; white-space: pre; opacity: 1;" transform="translate(224.38,0)">2T</text></g><g class="x2tick"><text text-anchor="middle" x="0" y="172.61538461538464" style="font-family: 'Lucida Grande', 'Open Sans', verdana, arial, sans-serif; font-size: 9px; fill: rgb(0, 0, 0); fill-opacity: 0.5; white-space: pre; opacity: 1;" transform="translate(331.95,0)">4T</text></g><g class="x2tick"><text text-anchor="middle" x="0" y="172.61538461538464" style="font-family: 'Lucida Grande', 'Open Sans', verdana, arial, sans-serif; font-size: 9px; fill: rgb(0, 0, 0); fill-opacity: 0.5; white-space: pre; opacity: 1;" transform="translate(439.51,0)">6T</text></g><g class="x2tick"><text text-anchor="middle" x="0" y="172.61538461538464" style="font-family: 'Lucida Grande', 'Open Sans', verdana, arial, sans-serif; font-size: 9px; fill: rgb(0, 0, 0); fill-opacity: 0.5; white-space: pre; opacity: 1;" transform="translate(547.0799999999999,0)">8T</text></g><g class="x2tick"><text text-anchor="middle" x="0" y="172.61538461538464" style="font-family: 'Lucida Grande', 'Open Sans', verdana, arial, sans-serif; font-size: 9px; fill: rgb(0, 0, 0); fill-opacity: 0.5; white-space: pre; opacity: 1;" transform="translate(654.64,0)">10T</text></g><g class="x2tick"><text text-anchor="middle" x="0" y="172.61538461538464" style="font-family: 'Lucida Grande', 'Open Sans', verdana, arial, sans-serif; font-size: 9px; fill: rgb(0, 0, 0); fill-opacity: 0.5; white-space: pre; opacity: 1;" transform="translate(762.21,0)">12T</text></g><g class="x2tick"><text text-anchor="middle" x="0" y="172.61538461538464" style="font-family: 'Lucida Grande', 'Open Sans', verdana, arial, sans-serif; font-size: 9px; fill: rgb(0, 0, 0); fill-opacity: 0.5; white-space: pre; opacity: 1;" transform="translate(869.77,0)">14T</text></g><g class="x2tick"><text text-anchor="middle" x="0" y="172.61538461538464" style="font-family: 'Lucida Grande', 'Open Sans', verdana, arial, sans-serif; font-size: 9px; fill: rgb(0, 0, 0); fill-opacity: 0.5; white-space: pre; opacity: 1;" transform="translate(977.34,0)">16T</text></g><g class="x2tick"><text text-anchor="middle" x="0" y="172.61538461538464" style="font-family: 'Lucida Grande', 'Open Sans', verdana, arial, sans-serif; font-size: 9px; fill: rgb(0, 0, 0); fill-opacity: 0.5; white-space: pre; opacity: 1;" transform="translate(1084.9,0)">18T</text></g></g><g class="yaxislayer-above"><g class="y2tick"><text text-anchor="end" x="111" y="3.15" transform="translate(0,141.5046153846154)" style="font-family: 'Lucida Grande', 'Open Sans', verdana, arial, sans-serif; font-size: 9px; fill: rgb(0, 0, 0); fill-opacity: 0.5; white-space: pre; opacity: 1;">TotalCurrent  </text></g></g><g class="overaxes-above"/></g><g class="subplot x3y3"><g class="layer-subplot"><g class="shapelayer"/><g class="imagelayer"/></g><g class="minor-gridlayer"><g class="x3"/><g class="y3"/></g><g class="gridlayer"><g class="x3"><path class="x3grid crisp" transform="translate(253.94,0)" d="M0,190.76923076923077v42.230769230769226" style="stroke: rgb(0, 0, 0); stroke-opacity: 0.1; stroke-width: 1px;"/><path class="x3grid crisp" transform="translate(391.06,0)" d="M0,190.76923076923077v42.230769230769226" style="stroke: rgb(0, 0, 0); stroke-opacity: 0.1; stroke-width: 1px;"/><path class="x3grid crisp" transform="translate(528.19,0)" d="M0,190.76923076923077v42.230769230769226" style="stroke: rgb(0, 0, 0); stroke-opacity: 0.1; stroke-width: 1px;"/><path class="x3grid crisp" transform="translate(665.31,0)" d="M0,190.76923076923077v42.230769230769226" style="stroke: rgb(0, 0, 0); stroke-opacity: 0.1; stroke-width: 1px;"/><path class="x3grid crisp" transform="translate(802.43,0)" d="M0,190.76923076923077v42.230769230769226" style="stroke: rgb(0, 0, 0); stroke-opacity: 0.1; stroke-width: 1px;"/><path class="x3grid crisp" transform="translate(939.56,0)" d="M0,190.76923076923077v42.230769230769226" style="stroke: rgb(0, 0, 0); stroke-opacity: 0.1; stroke-width: 1px;"/><path class="x3grid crisp" transform="translate(1076.6799999999998,0)" d="M0,190.76923076923077v42.230769230769226" style="stroke: rgb(0, 0, 0); stroke-opacity: 0.1; stroke-width: 1px;"/></g><g class="y3"><path class="y3grid crisp" transform="translate(0,211.88923076923078)" d="M112,0h973" style="stroke: rgb(0, 0, 0); stroke-opacity: 0.1; stroke-width: 1px;"/></g></g><g class="zerolinelayer"><path class="x3zl zl crisp" transform="translate(116.82,0)" d="M0,190.76923076923077v42.230769230769226" style="stroke: rgb(0, 0, 0); stroke-opacity: 0.1; stroke-width: 2px;"/></g><g class="layer-between"><g class="shapelayer"/><g class="imagelayer"/></g><path class="xlines-below"/><path class="ylines-below"/><g class="overlines-below"/><g class="xaxislayer-below"/><g class="yaxislayer-below"/><g class="overaxes-below"/><g class="overplot"><g class="x3y3" transform="translate(112,190.76923076923077)" clip-path="url(#clip024e8ex3y3plot)"><g class="violinlayer mlayer"><g class="trace violins" style="opacity: 0.5;"><path class="violin" d="M579.04,20.37Q586.47,20 590.19,19.74C593.91,19.48 597.63,19.17 601.34,18.83C605.06,18.49 608.77,18.08 612.48,17.68C616.2,17.27 619.91,16.83 623.63,16.4C627.34,15.98 631.05,15.54 634.77,15.13C638.48,14.72 642.2,14.34 645.92,13.96C649.64,13.58 653.35,13.24 657.07,12.87C660.78,12.5 664.5,12.14 668.21,11.74C671.93,11.34 675.64,10.91 679.36,10.48C683.07,10.05 686.78,9.58 690.5,9.15C694.21,8.73 697.93,8.28 701.65,7.93C705.36,7.58 709.08,7.27 712.8,7.03C716.51,6.8 720.22,6.64 723.94,6.52C727.65,6.4 731.37,6.35 735.09,6.33C738.8,6.31 742.52,6.33 746.23,6.39C749.95,6.45 753.67,6.54 757.38,6.71C761.1,6.89 764.81,7.1 768.52,7.44C772.24,7.79 775.96,8.23 779.67,8.78C783.39,9.33 787.11,10.01 790.82,10.73C794.54,11.45 798.25,12.29 801.96,13.08C805.68,13.87 809.39,14.71 813.11,15.45C816.82,16.19 820.53,16.9 824.25,17.5C827.96,18.1 831.68,18.62 835.4,19.04C839.11,19.46 842.83,19.77 846.55,20.03C850.26,20.29 853.97,20.46 857.69,20.59C861.4,20.72 865.12,20.79 868.84,20.83C872.55,20.87 876.27,20.88 879.98,20.85C883.7,20.82 887.41,20.77 891.13,20.67C894.85,20.57 898.57,20.45 902.28,20.27C906,20.09 909.71,19.87 913.42,19.61C917.14,19.35 920.86,19.03 924.57,18.7C928.29,18.37 932,17.98 935.71,17.63C939.43,17.28 943.14,16.9 946.86,16.6C950.57,16.3 954.29,16.01 958.01,15.85C961.72,15.69 965.44,15.59 969.15,15.61C972.87,15.63 976.59,15.76 980.3,15.95C984.02,16.14 987.73,16.46 991.44,16.77C995.16,17.08 998.87,17.48 1002.59,17.83C1006.3,18.18 1010.01,18.56 1013.73,18.88C1017.44,19.2 1021.16,19.5 1024.88,19.75Q1028.6,20 1036.03,20.37L1036.03,21.86Q1028.6,22.23 1024.88,22.48C1021.16,22.73 1017.44,23.03 1013.73,23.35C1010.01,23.67 1006.3,24.05 1002.59,24.4C998.87,24.75 995.16,25.15 991.44,25.46C987.73,25.77 984.02,26.09 980.3,26.28C976.59,26.47 972.87,26.6 969.15,26.62C965.44,26.64 961.72,26.54 958.01,26.38C954.29,26.22 950.57,25.94 946.86,25.64C943.14,25.34 939.43,24.95 935.71,24.6C932,24.25 928.29,23.86 924.57,23.53C920.86,23.2 917.14,22.88 913.42,22.62C909.71,22.36 906,22.14 902.28,21.96C898.57,21.78 894.85,21.66 891.13,21.56C887.41,21.46 883.7,21.41 879.98,21.38C876.27,21.35 872.55,21.36 868.84,21.4C865.12,21.44 861.4,21.51 857.69,21.64C853.97,21.77 850.26,21.94 846.55,22.2C842.83,22.46 839.11,22.78 835.4,23.2C831.68,23.62 827.96,24.13 824.25,24.73C820.53,25.33 816.82,26.04 813.11,26.78C809.39,27.52 805.68,28.36 801.96,29.15C798.25,29.94 794.54,30.78 790.82,31.5C787.11,32.22 783.39,32.9 779.67,33.45C775.96,34 772.24,34.44 768.52,34.79C764.81,35.13 761.1,35.34 757.38,35.52C753.67,35.69 749.95,35.78 746.23,35.84C742.52,35.9 738.8,35.92 735.09,35.9C731.37,35.88 727.65,35.84 723.94,35.72C720.22,35.6 716.51,35.44 712.8,35.2C709.08,34.96 705.36,34.65 701.65,34.3C697.93,33.95 694.21,33.5 690.5,33.08C686.78,32.65 683.07,32.18 679.36,31.75C675.64,31.32 671.93,30.89 668.21,30.49C664.5,30.09 660.78,29.73 657.07,29.36C653.35,28.99 649.64,28.65 645.92,28.27C642.2,27.89 638.48,27.51 634.77,27.1C631.05,26.69 627.34,26.25 623.63,25.83C619.91,25.4 616.2,24.96 612.48,24.55C608.77,24.15 605.06,23.74 601.34,23.4C597.63,23.06 593.91,22.75 590.19,22.49Q586.47,22.24 579.04,21.87Z" style="vector-effect: none; stroke-width: 2px; stroke: rgb(181, 181, 181); stroke-opacity: 1; fill: rgb(181, 181, 181); fill-opacity: 1;"/><path class="box" d="M742.6,24.81V17.42M711.87,24.81V17.42H773.73V24.81ZM711.87,21.12H646.91M773.73,21.12H773.73" style="vector-effect: non-scaling-stroke; stroke-width: 2px; stroke: rgb(181, 181, 181); stroke-opacity: 1; fill: rgb(181, 181, 181); fill-opacity: 1;"/><path class="mean" d="M764.31,24.81V17.42" style="fill: none; vector-effect: non-scaling-stroke; stroke-width: 2px; stroke-dasharray: 4px, 2px; stroke: rgb(181, 181, 181); stroke-opacity: 1;"/></g></g><g class="scatterlayer mlayer"><g class="trace scatter trace3d4063" style="stroke-miterlimit: 2; opacity: 1;"><g class="fills"/><g class="errorbars"/><g class="lines"/><g class="points"><path class="point" transform="translate(772.86,21.12)" d="M2,0A2,2 0 1,1 0,-2A2,2 0 0,1 2,0Z" style="opacity: 1; stroke-width: 0px; fill: rgb(11, 121, 230); fill-opacity: 1;"/></g><g class="text"/></g><g class="trace scatter trace4986c6" style="stroke-miterlimit: 2; opacity: 1;"><g class="fills"/><g class="errorbars"/><g class="lines"/><g class="points"><path class="point" transform="translate(711.87,21.12)" d="M2,0A2,2 0 1,1 0,-2A2,2 0 0,1 2,0Z" style="opacity: 1; stroke-width: 0px; fill: rgb(11, 121, 230); fill-opacity: 1;"/></g><g class="text"/></g><g class="trace scatter trace763413" style="stroke-miterlimit: 2; opacity: 1;"><g class="fills"/><g class="errorbars"/><g class="lines"/><g class="points"><path class="point" transform="translate(968.16,21.12)" d="M2,0A2,2 0 1,1 0,-2A2,2 0 0,1 2,0Z" style="opacity: 1; stroke-width: 0px; fill: rgb(11, 121, 230); fill-opacity: 1;"/></g><g class="text"/></g><g class="trace scatter trace857e45" style="stroke-miterlimit: 2; opacity: 1;"><g class="fills"/><g class="errorbars"/><g class="lines"/><g class="points"><path class="point" transform="translate(773.73,21.12)" d="M2,0A2,2 0 1,1 0,-2A2,2 0 0,1 2,0Z" style="opacity: 1; stroke-width: 0px; fill: rgb(11, 121, 230); fill-opacity: 1;"/></g><g class="text"/></g><g class="trace scatter tracec727b5" style="stroke-miterlimit: 2; opacity: 1;"><g class="fills"/><g class="errorbars"/><g class="lines"/><g class="points"><path class="point" transform="translate(646.91,21.12)" d="M2,0A2,2 0 1,1 0,-2A2,2 0 0,1 2,0Z" style="opacity: 1; stroke-width: 0px; fill: rgb(11, 121, 230); fill-opacity: 1;"/></g><g class="text"/></g><g class="trace scatter tracebc2325" style="stroke-miterlimit: 2; opacity: 1;"><g class="fills"/><g class="errorbars"/><g class="lines"/><g class="points"><path class="point" transform="translate(712.34,21.12)" d="M2,0A2,2 0 1,1 0,-2A2,2 0 0,1 2,0Z" style="opacity: 1; stroke-width: 0px; fill: rgb(11, 121, 230); fill-opacity: 1;"/></g><g class="text"/></g></g></g></g><path class="xlines-above crisp" d="M0,0" style="fill: none;"/><path class="ylines-above crisp" d="M0,0" style="fill: none;"/><g class="overlines-above"/><g class="xaxislayer-above"><g class="x3tick"><text text-anchor="middle" x="0" y="243" transform="translate(116.82,0)" style="font-family: 'Lucida Grande', 'Open Sans', verdana, arial, sans-serif; font-size: 9px; fill: rgb(0, 0, 0); fill-opacity: 0.5; white-space: pre; opacity: 1;">0</text></g><g class="x3tick"><text text-anchor="middle" x="0" y="243" style="font-family: 'Lucida Grande', 'Open Sans', verdana, arial, sans-serif; font-size: 9px; fill: rgb(0, 0, 0); fill-opacity: 0.5; white-space: pre; opacity: 1;" transform="translate(253.94,0)">1B</text></g><g class="x3tick"><text text-anchor="middle" x="0" y="243" style="font-family: 'Lucida Grande', 'Open Sans', verdana, arial, sans-serif; font-size: 9px; fill: rgb(0, 0, 0); fill-opacity: 0.5; white-space: pre; opacity: 1;" transform="translate(391.06,0)">2B</text></g><g class="x3tick"><text text-anchor="middle" x="0" y="243" style="font-family: 'Lucida Grande', 'Open Sans', verdana, arial, sans-serif; font-size: 9px; fill: rgb(0, 0, 0); fill-opacity: 0.5; white-space: pre; opacity: 1;" transform="translate(528.19,0)">3B</text></g><g class="x3tick"><text text-anchor="middle" x="0" y="243" style="font-family: 'Lucida Grande', 'Open Sans', verdana, arial, sans-serif; font-size: 9px; fill: rgb(0, 0, 0); fill-opacity: 0.5; white-space: pre; opacity: 1;" transform="translate(665.31,0)">4B</text></g><g class="x3tick"><text text-anchor="middle" x="0" y="243" style="font-family: 'Lucida Grande', 'Open Sans', verdana, arial, sans-serif; font-size: 9px; fill: rgb(0, 0, 0); fill-opacity: 0.5; white-space: pre; opacity: 1;" transform="translate(802.43,0)">5B</text></g><g class="x3tick"><text text-anchor="middle" x="0" y="243" style="font-family: 'Lucida Grande', 'Open Sans', verdana, arial, sans-serif; font-size: 9px; fill: rgb(0, 0, 0); fill-opacity: 0.5; white-space: pre; opacity: 1;" transform="translate(939.56,0)">6B</text></g><g class="x3tick"><text text-anchor="middle" x="0" y="243" style="font-family: 'Lucida Grande', 'Open Sans', verdana, arial, sans-serif; font-size: 9px; fill: rgb(0, 0, 0); fill-opacity: 0.5; white-space: pre; opacity: 1;" transform="translate(1076.6799999999998,0)">7B</text></g></g><g class="yaxislayer-above"><g class="y3tick"><text text-anchor="end" x="111" y="3.15" transform="translate(0,211.88923076923078)" style="font-family: 'Lucida Grande', 'Open Sans', verdana, arial, sans-serif; font-size: 9px; fill: rgb(0, 0, 0); fill-opacity: 0.5; white-space: pre; opacity: 1;">ScanCurrent  </text></g></g><g class="overaxes-above"/></g></g><g class="polarlayer"/><g class="smithlayer"/><g class="ternarylayer"/><g class="geolayer"/><g class="funnelarealayer"/><g class="pielayer"/><g class="iciclelayer"/><g class="treemaplayer"/><g class="sunburstlayer"/><g class="glimages"/><defs id="topdefs-024e8e"><g class="clips"/></defs><g class="layer-above"><g class="imagelayer"/><g class="shapelayer"/></g><g class="infolayer"><g class="g-gtitle"><text class="gtitle" x="550" y="25" text-anchor="middle" dy="0em" style="opacity: 1; font-family: 'Lucida Grande', 'Open Sans', verdana, arial, sans-serif; font-size: 20px; fill: rgb(42, 63, 95); fill-opacity: 1; white-space: pre;"><tspan class="line" dy="0em" x="550" y="25">General Stats</tspan><tspan class="line" dy="1.3em" x="550" y="25">​<tspan style="font-size:70%" dy="-0.6em">6 samples</tspan><tspan dy="0.42em">​</tspan></tspan></text></g><g class="g-xtitle"/><g class="g-x2title"/><g class="g-x3title"/><g class="g-ytitle"/><g class="g-y2title"/><g class="g-y3title"/></g></svg>